<svg width="149" height="103" viewBox="0 0 149 103" fill="none" xmlns="http://www.w3.org/2000/svg">
<g clip-path="url(#clip0_2562_446)">
<mask id="mask0_2562_446" style="mask-type:luminance" maskUnits="userSpaceOnUse" x="0" y="0" width="149" height="47">
<path d="M149 0.285156H0V46.1313H149V0.285156Z" fill="white"/>
</mask>
<g mask="url(#mask0_2562_446)">
<path d="M143.482 46.1231H5.51852C2.42815 46.1231 0 43.6024 0 40.3943V6.02173C0 2.81363 2.42815 0.292969 5.51852 0.292969H143.482C146.572 0.292969 149 2.81363 149 6.02173V40.3943C149 43.6024 146.572 46.1231 143.482 46.1231Z" fill="#1E261B"/>
<path d="M52.316 11.9762C52.316 12.8929 52.0953 13.6949 51.5434 14.2678C50.8813 14.9553 50.1087 15.2989 49.1153 15.2989C48.122 15.2989 47.3494 14.9553 46.6872 14.2678C46.0249 13.5803 45.6938 12.7783 45.6938 11.7471C45.6938 10.7159 46.0249 9.91393 46.6872 9.22647C47.3494 8.53901 48.122 8.19531 49.1153 8.19531C49.5568 8.19531 49.9983 8.30985 50.4398 8.53901C50.8813 8.76816 51.2123 8.99731 51.4331 9.34101L50.8813 9.91393C50.4398 9.34101 49.8879 9.11185 49.1153 9.11185C48.4531 9.11185 47.7909 9.34101 47.3494 9.91393C46.7975 10.3722 46.5768 11.0597 46.5768 11.8617C46.5768 12.6637 46.7975 13.3512 47.3494 13.8095C47.9013 14.2678 48.4531 14.6115 49.1153 14.6115C49.8879 14.6115 50.4398 14.3823 50.9916 13.8095C51.3227 13.4657 51.5434 13.0075 51.5434 12.4346H49.1153V11.5179H52.316V11.9762ZM57.3931 9.11185H54.4131V11.2888H57.1723V12.0909H54.4131V14.2678H57.3931V15.1844H53.5301V8.30985H57.3931V9.11185ZM61.0353 15.1844H60.1523V9.11185H58.276V8.30985H62.9116V9.11185H61.0353V15.1844ZM66.1124 15.1844V8.30985H66.9953V15.1844H66.1124ZM70.7479 15.1844H69.8649V9.11185H67.9887V8.30985H72.5138V9.11185H70.6375V15.1844H70.7479ZM81.2332 14.2678C80.5707 14.9553 79.7982 15.2989 78.8049 15.2989C77.8115 15.2989 77.039 14.9553 76.3768 14.2678C75.7146 13.5803 75.3834 12.7783 75.3834 11.7471C75.3834 10.7159 75.7146 9.91393 76.3768 9.22647C77.039 8.53901 77.8115 8.19531 78.8049 8.19531C79.7982 8.19531 80.5707 8.53901 81.2332 9.22647C81.8956 9.91393 82.2265 10.7159 82.2265 11.7471C82.2265 12.7783 81.8956 13.5803 81.2332 14.2678ZM77.039 13.6949C77.4807 14.1532 78.1424 14.4969 78.8049 14.4969C79.4673 14.4969 80.129 14.2678 80.5707 13.6949C81.0123 13.2366 81.3432 12.5492 81.3432 11.7471C81.3432 10.9451 81.1224 10.2576 80.5707 9.79932C80.129 9.34101 79.4673 8.99731 78.8049 8.99731C78.1424 8.99731 77.4807 9.22647 77.039 9.79932C76.5974 10.2576 76.2664 10.9451 76.2664 11.7471C76.2664 12.5492 76.4873 13.2366 77.039 13.6949ZM83.4407 15.1844V8.30985H84.434L87.6348 13.6949V8.30985H88.5174V15.1844H87.6348L84.2132 9.57016V15.1844H83.4407Z" fill="white"/>
<path fill-rule="evenodd" clip-rule="evenodd" d="M49.1154 8.31119C48.1513 8.31119 47.4068 8.64288 46.7653 9.3088C46.1238 9.97471 45.8042 10.7476 45.8042 11.7484C45.8042 12.7493 46.1238 13.5222 46.7653 14.1881C47.4068 14.854 48.1513 15.1857 49.1154 15.1857C50.0795 15.1857 50.824 14.854 51.4655 14.1881C51.9894 13.6443 52.2057 12.8765 52.2057 11.9776V11.6339H49.2257V12.3213H51.6539V12.4359C51.6539 13.0424 51.4193 13.529 51.0697 13.8918C50.7857 14.1867 50.4979 14.3969 50.1781 14.5327C49.8584 14.6684 49.5124 14.7274 49.1154 14.7274C48.414 14.7274 47.8369 14.3623 47.2805 13.9003C46.6937 13.4129 46.4665 12.6861 46.4665 11.863C46.4665 11.0444 46.6912 10.3211 47.2709 9.83374C47.739 9.23361 48.4338 8.99865 49.1154 8.99865C49.8697 8.99865 50.4349 9.21222 50.8884 9.74586L51.2891 9.32989C51.0855 9.05198 50.7915 8.85102 50.3905 8.64281C49.9625 8.42068 49.5378 8.31119 49.1154 8.31119ZM46.6092 9.14681C47.2922 8.4378 48.0928 8.08203 49.1154 8.08203C49.5759 8.08203 50.0342 8.20169 50.4892 8.43787C50.9353 8.66947 51.2879 8.90963 51.525 9.27884L51.5752 9.35701L50.8722 10.0868L50.7951 9.98686C50.3788 9.44657 49.8618 9.2278 49.1154 9.2278C48.4763 9.2278 47.8504 9.44855 47.4357 9.98686L47.428 9.9968L47.4184 10.0047C46.9016 10.4339 46.6872 11.0821 46.6872 11.863C46.6872 12.644 46.9016 13.2921 47.4184 13.7213C47.9657 14.1758 48.4924 14.4983 49.1154 14.4983C49.4909 14.4983 49.8072 14.4427 50.0945 14.3206C50.3818 14.1986 50.6457 14.0079 50.9136 13.7298C51.2038 13.4285 51.4029 13.0365 51.43 12.5505H49.005V11.4047H52.4265V11.9776C52.4265 12.9118 52.2015 13.7482 51.6216 14.3501C50.9386 15.0591 50.1379 15.4149 49.1154 15.4149C48.0928 15.4149 47.2922 15.0591 46.6092 14.3501C45.9262 13.6412 45.5835 12.81 45.5835 11.7484C45.5835 10.6869 45.9262 9.85574 46.6092 9.14681ZM78.805 8.31119C77.8407 8.31119 77.0965 8.64288 76.4546 9.3088C75.8135 9.97471 75.4939 10.7476 75.4939 11.7484C75.4939 12.7493 75.8135 13.5222 76.4546 14.1881C77.0965 14.854 77.8407 15.1857 78.805 15.1857C79.7693 15.1857 80.5135 14.854 81.1554 14.1881C81.7965 13.5222 82.1159 12.7493 82.1159 11.7484C82.1159 10.7476 81.7965 9.97471 81.1554 9.3088C80.5135 8.64288 79.7693 8.31119 78.805 8.31119ZM76.2988 9.14681C76.9818 8.4378 77.7826 8.08203 78.805 8.08203C79.8274 8.08203 80.6281 8.4378 81.3113 9.14681C81.9944 9.85574 82.3367 10.6869 82.3367 11.7484C82.3367 12.81 81.9944 13.6412 81.3113 14.3501C80.6281 15.0591 79.8274 15.4149 78.805 15.4149C77.7826 15.4149 76.9818 15.0591 76.2988 14.3501C75.6159 13.6412 75.2732 12.81 75.2732 11.7484C75.2732 10.6869 75.6159 9.85574 76.2988 9.14681ZM53.4198 8.19665H57.5035V9.2278H54.5235V11.1756H57.2828V12.2067H54.5235V14.1545H57.5035V15.3003H53.4198V8.19665ZM53.6406 8.4258V15.0711H57.2828V14.3837H54.3028V11.9776H57.0621V11.4047H54.3028V8.99865H57.2828V8.4258H53.6406ZM58.1657 8.19665H63.0221V9.2278H61.1457V15.3003H60.0421V9.2278H58.1657V8.19665ZM58.3865 8.4258V8.99865H60.2628V15.0711H60.925V8.99865H62.8013V8.4258H58.3865ZM66.0021 8.19665H67.1057V15.3003H66.0021V8.19665ZM66.2228 8.4258V15.0711H66.885V8.4258H66.2228ZM67.8783 8.19665H72.6242V9.2278H70.748V15.3003H69.7547V9.2278H67.8783V8.19665ZM70.5272 15.0711H69.9754V8.99865H68.0991V8.4258H72.4035V8.99865H70.5272V15.0711ZM83.33 8.19665H84.4953L87.5242 13.2924V8.19665H88.6283V15.3003H87.5738L84.3233 9.96692V15.3003H83.33V8.19665ZM83.5508 8.4258V15.0711H84.1025V9.17615L87.6953 15.0711H88.4075V8.4258H87.745V14.1001L84.3722 8.4258H83.5508ZM76.9566 9.72416C77.425 9.12037 78.1211 8.88411 78.805 8.88411C79.4996 8.88411 80.1865 9.24179 80.645 9.71522C81.228 10.2026 81.4541 10.9275 81.4541 11.7484C81.4541 12.5811 81.1111 13.295 80.6534 13.7728C80.185 14.3766 79.4889 14.6128 78.805 14.6128C78.1104 14.6128 77.4235 14.2551 76.965 13.7817C76.3821 13.2944 76.1562 12.5694 76.1562 11.7484C76.1562 10.9159 76.4989 10.2018 76.9566 9.72416ZM78.805 9.11326C78.1662 9.11326 77.5404 9.33394 77.1255 9.87225L77.1217 9.87721L77.1171 9.88172C76.6945 10.3206 76.3768 10.9797 76.3768 11.7484C76.3768 12.5294 76.5914 13.1775 77.1079 13.6068L77.1125 13.6108L77.1171 13.6152C77.5419 14.0562 78.1769 14.3837 78.805 14.3837C79.4438 14.3837 80.0696 14.163 80.4845 13.6247L80.4883 13.6197L80.4929 13.6152C80.9154 13.1763 81.2333 12.5173 81.2333 11.7484C81.2333 10.9675 81.0186 10.3194 80.5021 9.89013L80.4975 9.88615L80.4929 9.88172C80.0681 9.44076 79.4331 9.11326 78.805 9.11326Z" fill="white"/>
<path d="M75.1628 25.2718C72.5139 25.2718 70.4169 27.3341 70.4169 30.1985C70.4169 32.9484 72.5139 35.1253 75.1628 35.1253C77.8118 35.1253 79.9085 33.0629 79.9085 30.1985C79.9085 27.2196 77.8118 25.2718 75.1628 25.2718ZM75.1628 33.0629C73.728 33.0629 72.5139 31.8026 72.5139 30.084C72.5139 28.3654 73.728 27.105 75.1628 27.105C76.5976 27.105 77.8118 28.2507 77.8118 30.084C77.8118 31.8026 76.5976 33.0629 75.1628 33.0629ZM64.8984 25.2718C62.2495 25.2718 60.1524 27.3341 60.1524 30.1985C60.1524 32.9484 62.2495 35.1253 64.8984 35.1253C67.5472 35.1253 69.6443 33.0629 69.6443 30.1985C69.6443 27.2196 67.5472 25.2718 64.8984 25.2718ZM64.8984 33.0629C63.4635 33.0629 62.2495 31.8026 62.2495 30.084C62.2495 28.3654 63.4635 27.105 64.8984 27.105C66.3331 27.105 67.5472 28.2507 67.5472 30.084C67.5472 31.8026 66.3331 33.0629 64.8984 33.0629ZM52.6472 26.7613V28.8236H57.3931C57.2828 29.9694 56.8413 30.886 56.2895 31.4588C55.6272 32.1463 54.5235 32.9484 52.6472 32.9484C49.6672 32.9484 47.4598 30.5423 47.4598 27.4487C47.4598 24.3552 49.7776 21.9491 52.6472 21.9491C54.1924 21.9491 55.4065 22.6366 56.2895 23.4386L57.7243 21.9491C56.5102 20.8033 54.965 19.8867 52.7576 19.8867C48.7843 19.8867 45.3628 23.324 45.3628 27.4487C45.3628 31.5734 48.7843 35.0107 52.7576 35.0107C54.965 35.0107 56.5102 34.3232 57.8346 32.8337C59.159 31.4588 59.6005 29.5111 59.6005 28.0216C59.6005 27.5633 59.6005 27.105 59.4902 26.7613H52.6472ZM102.755 28.3654C102.314 27.2196 101.21 25.2718 98.7818 25.2718C96.3543 25.2718 94.3676 27.2196 94.3676 30.1985C94.3676 32.9484 96.3543 35.1253 99.0026 35.1253C101.1 35.1253 102.424 33.7504 102.866 32.9484L101.321 31.8026C100.768 32.6046 100.107 33.1775 99.0026 33.1775C97.8993 33.1775 97.2368 32.7192 96.6851 31.688L102.976 28.9382L102.755 28.3654ZM96.3543 29.9694C96.3543 28.1362 97.7885 27.105 98.7818 27.105C99.5543 27.105 100.328 27.5633 100.548 28.1362L96.3543 29.9694ZM91.1668 34.667H93.2635V20.345H91.1668V34.667ZM87.8551 26.303C87.3035 25.7301 86.4209 25.1572 85.3168 25.1572C82.9993 25.1572 80.7918 27.3341 80.7918 30.084C80.7918 32.8338 82.8885 34.8961 85.3168 34.8961C86.4209 34.8961 87.3035 34.3232 87.7451 33.7504H87.8551V34.4378C87.8551 36.271 86.8618 37.3022 85.3168 37.3022C84.1026 37.3022 83.2201 36.3856 82.9993 35.5835L81.2334 36.3856C81.7851 37.6459 83.1093 39.25 85.4276 39.25C87.8551 39.25 89.8418 37.7605 89.8418 34.2087V25.501H87.8551V26.303ZM85.4276 33.0629C83.9926 33.0629 82.7785 31.8026 82.7785 30.084C82.7785 28.3654 83.9926 27.105 85.4276 27.105C86.8618 27.105 87.9659 28.3654 87.9659 30.084C87.9659 31.8026 86.8618 33.0629 85.4276 33.0629ZM112.358 20.345H107.391V34.667H109.488V29.2819H112.358C114.675 29.2819 116.883 27.5633 116.883 24.8135C116.883 22.0636 114.675 20.345 112.358 20.345ZM112.468 27.2196H109.488V22.2928H112.468C114.013 22.2928 114.896 23.6677 114.896 24.6989C114.786 25.9593 113.903 27.2196 112.468 27.2196ZM125.161 25.1572C123.615 25.1572 122.07 25.8447 121.518 27.3341L123.394 28.1362C123.836 27.3341 124.498 27.105 125.271 27.105C126.374 27.105 127.368 27.7924 127.478 28.9382V29.0527C127.148 28.8236 126.264 28.4799 125.381 28.4799C123.394 28.4799 121.408 29.6257 121.408 31.688C121.408 33.6358 123.063 34.8961 124.829 34.8961C126.264 34.8961 126.927 34.2087 127.478 33.5212H127.588V34.667H129.575V29.1674C129.354 26.6467 127.478 25.1572 125.161 25.1572ZM124.94 33.0629C124.278 33.0629 123.284 32.7192 123.284 31.8026C123.284 30.6568 124.498 30.3131 125.492 30.3131C126.374 30.3131 126.816 30.5423 127.368 30.7714C127.148 32.1463 126.043 33.0629 124.94 33.0629ZM136.528 25.501L134.211 31.688H134.101L131.673 25.501H129.465L133.108 34.2087L131.01 39.0208H133.108L138.736 25.501H136.528ZM117.987 34.667H120.083V20.345H117.987V34.667Z" fill="white"/>
<path d="M11.4791 8.89062C11.148 9.23439 11.0376 9.80724 11.0376 10.4947V35.8158C11.0376 36.5033 11.2583 37.0762 11.5894 37.4198L11.6998 37.5345L25.3858 23.3271V23.098L11.4791 8.89062Z" fill="white"/>
<path d="M29.8001 28.1374L25.2749 23.4398V23.0961L29.8001 18.3984L29.9105 18.5131L35.3186 21.7211C36.8638 22.6378 36.8638 24.1272 35.3186 25.0438L29.8001 28.1374Z" fill="white"/>
<path d="M29.9114 28.0231L25.2758 23.2109L11.4795 37.5328C12.0314 38.1057 12.804 38.1057 13.7973 37.6474L29.9114 28.0231Z" fill="white"/>
<path d="M29.9114 18.3981L13.7973 8.88832C12.804 8.31547 12.0314 8.43009 11.4795 9.00293L25.2758 23.2103L29.9114 18.3981Z" fill="white"/>
<path opacity="0.2" d="M29.801 27.9062L13.7973 37.3014C12.9143 37.8744 12.1417 37.7597 11.5899 37.3014L11.4795 37.416L11.5899 37.5306C12.1417 37.9889 12.9143 38.1035 13.7973 37.5306L29.801 27.9062Z" fill="white"/>
<path opacity="0.12" d="M11.4791 37.3037C11.148 36.96 11.0376 36.3871 11.0376 35.6997V35.8142C11.0376 36.5017 11.2583 37.0746 11.5894 37.4183V37.3037H11.4791ZM35.3191 24.7004L29.8006 27.9085L29.9109 28.0231L35.3191 24.815C36.0917 24.3567 36.4228 23.7838 36.4228 23.2109C36.4228 23.7838 35.9813 24.2421 35.3191 24.7004Z" fill="white"/>
<path opacity="0.25" d="M13.7968 9.00315L35.3191 21.721C35.9813 22.1793 36.4228 22.6376 36.4228 23.2105C36.4228 22.6376 36.0917 22.0648 35.3191 21.6065L13.7968 8.88861C12.2517 7.972 11.0376 8.65946 11.0376 10.4927V10.6072C11.0376 8.88861 12.2517 8.08661 13.7968 9.00315Z" fill="white"/>
</g>
<rect x="42" y="6" width="89" height="12" fill="#1E261B"/>
</g>
<g clip-path="url(#clip1_2562_446)">
<mask id="mask1_2562_446" style="mask-type:luminance" maskUnits="userSpaceOnUse" x="0" y="56" width="149" height="46">
<path d="M149 56.0664H0V101.913H149V56.0664Z" fill="white"/>
</mask>
<g mask="url(#mask1_2562_446)">
<path d="M148.24 97.727C148.24 98.3412 148.13 98.9493 147.915 99.5166C147.7 100.084 147.385 100.599 146.989 101.033C146.593 101.467 146.122 101.812 145.604 102.046C145.086 102.281 144.532 102.401 143.971 102.401H4.27433C3.14208 102.402 2.05572 101.91 1.25416 101.034C0.452599 100.157 0.00147559 98.9679 0 97.727V60.457C0.00147491 59.2155 0.45242 58.0254 1.25382 57.148C2.05522 56.2706 3.14157 55.7777 4.27433 55.7773H143.97C144.531 55.7773 145.085 55.8984 145.604 56.1336C146.122 56.3688 146.592 56.7135 146.989 57.1481C147.385 57.5826 147.699 58.0985 147.914 58.6663C148.128 59.234 148.239 59.8425 148.239 60.457L148.24 97.727Z" fill="#1E261B"/>
<rect x="44" y="61.0039" width="89" height="12" fill="#1E261B"/>
<path d="M54.146 64.0039H53.0891C53.0266 63.6999 52.9173 63.4329 52.761 63.2028C52.6076 62.9727 52.4201 62.7795 52.1985 62.6232C51.9798 62.4641 51.7369 62.3448 51.4698 62.2653C51.2028 62.1857 50.9244 62.146 50.6346 62.146C50.1062 62.146 49.6275 62.2795 49.1985 62.5465C48.7724 62.8136 48.4329 63.207 48.18 63.7269C47.93 64.2468 47.805 64.8846 47.805 65.6403C47.805 66.396 47.93 67.0337 48.18 67.5536C48.4329 68.0735 48.7724 68.467 49.1985 68.734C49.6275 69.0011 50.1062 69.1346 50.6346 69.1346C50.9244 69.1346 51.2028 69.0948 51.4698 69.0153C51.7369 68.9357 51.9798 68.8178 52.1985 68.6616C52.4201 68.5025 52.6076 68.3079 52.761 68.0778C52.9173 67.8448 53.0266 67.5778 53.0891 67.2766H54.146C54.0664 67.7227 53.9215 68.1218 53.7113 68.4741C53.5011 68.8263 53.2397 69.1261 52.9272 69.3732C52.6147 69.6175 52.2638 69.8036 51.8746 69.9315C51.4883 70.0593 51.0749 70.1232 50.6346 70.1232C49.8903 70.1232 49.2283 69.9414 48.6488 69.5778C48.0692 69.2141 47.6133 68.6971 47.2809 68.0266C46.9485 67.3562 46.7823 66.5607 46.7823 65.6403C46.7823 64.7198 46.9485 63.9244 47.2809 63.2539C47.6133 62.5835 48.0692 62.0664 48.6488 61.7028C49.2283 61.3391 49.8903 61.1573 50.6346 61.1573C51.0749 61.1573 51.4883 61.2212 51.8746 61.3491C52.2638 61.4769 52.6147 61.6644 52.9272 61.9116C53.2397 62.1559 53.5011 62.4542 53.7113 62.8065C53.9215 63.1559 54.0664 63.555 54.146 64.0039ZM58.3764 70.1403C57.7855 70.1403 57.267 69.9996 56.821 69.7184C56.3778 69.4371 56.0312 69.0437 55.7812 68.538C55.5341 68.0323 55.4105 67.4414 55.4105 66.7653C55.4105 66.0835 55.5341 65.4883 55.7812 64.9798C56.0312 64.4712 56.3778 64.0763 56.821 63.7951C57.267 63.5138 57.7855 63.3732 58.3764 63.3732C58.9673 63.3732 59.4844 63.5138 59.9276 63.7951C60.3736 64.0763 60.7202 64.4712 60.9673 64.9798C61.2173 65.4883 61.3423 66.0835 61.3423 66.7653C61.3423 67.4414 61.2173 68.0323 60.9673 68.538C60.7202 69.0437 60.3736 69.4371 59.9276 69.7184C59.4844 69.9996 58.9673 70.1403 58.3764 70.1403ZM58.3764 69.2369C58.8253 69.2369 59.1946 69.1218 59.4844 68.8917C59.7741 68.6616 59.9886 68.359 60.1278 67.984C60.267 67.609 60.3366 67.2028 60.3366 66.7653C60.3366 66.3278 60.267 65.9201 60.1278 65.5423C59.9886 65.1644 59.7741 64.859 59.4844 64.6261C59.1946 64.3931 58.8253 64.2766 58.3764 64.2766C57.9276 64.2766 57.5582 64.3931 57.2685 64.6261C56.9787 64.859 56.7642 65.1644 56.625 65.5423C56.4858 65.9201 56.4162 66.3278 56.4162 66.7653C56.4162 67.2028 56.4858 67.609 56.625 67.984C56.7642 68.359 56.9787 68.6616 57.2685 68.8917C57.5582 69.1218 57.9276 69.2369 58.3764 69.2369ZM62.8775 70.0039V63.4585H63.8491V64.4812H63.9343C64.0707 64.1317 64.2908 63.8604 64.5948 63.6673C64.8988 63.4712 65.2638 63.3732 65.69 63.3732C66.1218 63.3732 66.4812 63.4712 66.7681 63.6673C67.0579 63.8604 67.2837 64.1317 67.4457 64.4812H67.5138C67.6815 64.1431 67.9329 63.8746 68.2681 63.6758C68.6033 63.4741 69.0053 63.3732 69.4741 63.3732C70.0593 63.3732 70.538 63.5565 70.9102 63.9229C71.2823 64.2866 71.4684 64.8533 71.4684 65.6232V70.0039H70.4627V65.6232C70.4627 65.1403 70.3306 64.7951 70.0664 64.5877C69.8022 64.3803 69.4911 64.2766 69.1332 64.2766C68.6729 64.2766 68.3164 64.4158 68.0636 64.6942C67.8107 64.9698 67.6843 65.3192 67.6843 65.7425V70.0039H66.6616V65.521C66.6616 65.1488 66.5408 64.8491 66.2994 64.6218C66.0579 64.3917 65.7468 64.2766 65.3661 64.2766C65.1048 64.2766 64.8604 64.3462 64.6332 64.4854C64.4087 64.6246 64.2269 64.8178 64.0877 65.065C63.9513 65.3093 63.8832 65.592 63.8832 65.913V70.0039H62.8775ZM73.3072 70.0039V63.4585H74.3129V70.0039H73.3072ZM73.8185 62.3675C73.6225 62.3675 73.4535 62.3008 73.3114 62.1673C73.1722 62.0337 73.1026 61.8732 73.1026 61.6857C73.1026 61.4982 73.1722 61.3377 73.3114 61.2042C73.4535 61.0707 73.6225 61.0039 73.8185 61.0039C74.0146 61.0039 74.1822 61.0707 74.3214 61.2042C74.4634 61.3377 74.5344 61.4982 74.5344 61.6857C74.5344 61.8732 74.4634 62.0337 74.3214 62.1673C74.1822 62.3008 74.0146 62.3675 73.8185 62.3675ZM77.1605 66.0664V70.0039H76.1548V63.4585H77.1264V64.4812H77.2116C77.3651 64.1488 77.598 63.8817 77.9105 63.68C78.223 63.4755 78.6264 63.3732 79.1207 63.3732C79.5639 63.3732 79.9517 63.4641 80.2841 63.646C80.6165 63.8249 80.875 64.0977 81.0597 64.4641C81.2443 64.8278 81.3366 65.288 81.3366 65.8448V70.0039H80.331V65.913C80.331 65.3988 80.1974 64.9982 79.9304 64.7113C79.6634 64.4215 79.2969 64.2766 78.831 64.2766C78.5099 64.2766 78.223 64.3462 77.9702 64.4854C77.7202 64.6246 77.5227 64.8278 77.3778 65.0948C77.233 65.3619 77.1605 65.6857 77.1605 66.0664ZM85.8164 72.5948C85.3306 72.5948 84.913 72.5323 84.5636 72.4073C84.2141 72.2852 83.9229 72.1232 83.69 71.9215C83.4599 71.7227 83.2766 71.5096 83.1403 71.2823L83.9414 70.7198C84.0323 70.8391 84.1474 70.9755 84.2866 71.1289C84.4258 71.2852 84.6161 71.4201 84.8576 71.5337C85.1019 71.6502 85.4215 71.7085 85.8164 71.7085C86.3448 71.7085 86.7809 71.5806 87.1246 71.3249C87.4684 71.0692 87.6403 70.6687 87.6403 70.1232V68.7937H87.555C87.4812 68.913 87.3761 69.0607 87.2397 69.2369C87.1062 69.4102 86.913 69.565 86.6602 69.7013C86.4102 69.8349 86.0721 69.9016 85.646 69.9016C85.1175 69.9016 84.6431 69.7766 84.2227 69.5266C83.805 69.2766 83.4741 68.913 83.2298 68.4357C82.9883 67.9585 82.8675 67.3789 82.8675 66.6971C82.8675 66.0266 82.9854 65.4428 83.2212 64.9457C83.457 64.4457 83.7852 64.0593 84.2056 63.7866C84.6261 63.511 85.1119 63.3732 85.663 63.3732C86.0891 63.3732 86.4272 63.4442 86.6772 63.5863C86.93 63.7255 87.1232 63.8846 87.2567 64.0636C87.3931 64.2397 87.4982 64.3846 87.5721 64.4982H87.6744V63.4585H88.646V70.1914C88.646 70.7539 88.5181 71.2113 88.2624 71.5636C88.0096 71.9187 87.6687 72.1786 87.2397 72.3434C86.8136 72.511 86.3391 72.5948 85.8164 72.5948ZM85.7823 68.9982C86.1857 68.9982 86.5266 68.9059 86.805 68.7212C87.0835 68.5366 87.2951 68.271 87.44 67.9244C87.5849 67.5778 87.6573 67.163 87.6573 66.68C87.6573 66.2085 87.5863 65.7923 87.4442 65.4315C87.3022 65.0707 87.092 64.788 86.8136 64.5835C86.5352 64.3789 86.1914 64.2766 85.7823 64.2766C85.3562 64.2766 85.0011 64.3846 84.717 64.6005C84.4357 64.8164 84.2241 65.1062 84.082 65.4698C83.9428 65.8335 83.8732 66.2369 83.8732 66.68C83.8732 67.1346 83.9442 67.5366 84.0863 67.886C84.2312 68.2326 84.4442 68.5053 84.7255 68.7042C85.0096 68.9002 85.3619 68.9982 85.7823 68.9982ZM98.771 63.4585C98.7198 63.0266 98.5124 62.6914 98.1488 62.4528C97.7852 62.2141 97.3391 62.0948 96.8107 62.0948C96.4244 62.0948 96.0863 62.1573 95.7965 62.2823C95.5096 62.4073 95.2852 62.5792 95.1232 62.7979C94.9641 63.0167 94.8846 63.2653 94.8846 63.5437C94.8846 63.7766 94.94 63.9769 95.0508 64.1445C95.1644 64.3093 95.3093 64.4471 95.4854 64.5579C95.6616 64.6658 95.8462 64.7553 96.0394 64.8263C96.2326 64.8945 96.4102 64.9499 96.5721 64.9925L97.4585 65.2312C97.6857 65.2908 97.9386 65.3732 98.217 65.4783C98.4982 65.5835 98.7667 65.7269 99.0224 65.9087C99.2809 66.0877 99.494 66.3178 99.6616 66.5991C99.8292 66.8803 99.913 67.2255 99.913 67.6346C99.913 68.1062 99.7894 68.5323 99.5423 68.913C99.2979 69.2937 98.94 69.5962 98.4684 69.8207C97.9996 70.0451 97.43 70.1573 96.7596 70.1573C96.1346 70.1573 95.5934 70.0565 95.136 69.8548C94.6815 69.6531 94.3235 69.3718 94.0621 69.011C93.8036 68.6502 93.6573 68.2312 93.6232 67.7539H94.7141C94.7425 68.0835 94.8533 68.3562 95.0465 68.5721C95.2425 68.7852 95.4897 68.9442 95.788 69.0494C96.0891 69.1516 96.413 69.2028 96.7596 69.2028C97.163 69.2028 97.5252 69.1374 97.8462 69.0067C98.1673 68.8732 98.4215 68.6886 98.609 68.4528C98.7965 68.2141 98.8903 67.9357 98.8903 67.6175C98.8903 67.3278 98.8093 67.092 98.6474 66.9102C98.4854 66.7283 98.2724 66.5806 98.0082 66.467C97.744 66.3533 97.4585 66.2539 97.1516 66.1687L96.0778 65.8619C95.396 65.6658 94.8562 65.386 94.4585 65.0224C94.0607 64.6587 93.8619 64.1829 93.8619 63.5948C93.8619 63.1062 93.994 62.68 94.2582 62.3164C94.5252 61.9499 94.8832 61.6658 95.332 61.4641C95.7837 61.2596 96.288 61.1573 96.8448 61.1573C97.4073 61.1573 97.9073 61.2582 98.3448 61.4599C98.7823 61.6587 99.1289 61.9315 99.3846 62.2781C99.6431 62.6246 99.7795 63.0181 99.7937 63.4585H98.771ZM104.173 70.1403C103.582 70.1403 103.064 69.9996 102.618 69.7184C102.175 69.4371 101.828 69.0437 101.578 68.538C101.331 68.0323 101.207 67.4414 101.207 66.7653C101.207 66.0835 101.331 65.4883 101.578 64.9798C101.828 64.4712 102.175 64.0763 102.618 63.7951C103.064 63.5138 103.582 63.3732 104.173 63.3732C104.764 63.3732 105.281 63.5138 105.724 63.7951C106.17 64.0763 106.517 64.4712 106.764 64.9798C107.014 65.4883 107.139 66.0835 107.139 66.7653C107.139 67.4414 107.014 68.0323 106.764 68.538C106.517 69.0437 106.17 69.4371 105.724 69.7184C105.281 69.9996 104.764 70.1403 104.173 70.1403ZM104.173 69.2369C104.622 69.2369 104.991 69.1218 105.281 68.8917C105.571 68.6616 105.786 68.359 105.925 67.984C106.064 67.609 106.134 67.2028 106.134 66.7653C106.134 66.3278 106.064 65.9201 105.925 65.5423C105.786 65.1644 105.571 64.859 105.281 64.6261C104.991 64.3931 104.622 64.2766 104.173 64.2766C103.724 64.2766 103.355 64.3931 103.065 64.6261C102.776 64.859 102.561 65.1644 102.422 65.5423C102.283 65.9201 102.213 66.3278 102.213 66.7653C102.213 67.2028 102.283 67.609 102.422 67.984C102.561 68.359 102.776 68.6616 103.065 68.8917C103.355 69.1218 103.724 69.2369 104.173 69.2369ZM111.333 70.1403C110.743 70.1403 110.224 69.9996 109.778 69.7184C109.335 69.4371 108.988 69.0437 108.738 68.538C108.491 68.0323 108.368 67.4414 108.368 66.7653C108.368 66.0835 108.491 65.4883 108.738 64.9798C108.988 64.4712 109.335 64.0763 109.778 63.7951C110.224 63.5138 110.743 63.3732 111.333 63.3732C111.924 63.3732 112.441 63.5138 112.885 63.7951C113.331 64.0763 113.677 64.4712 113.924 64.9798C114.174 65.4883 114.299 66.0835 114.299 66.7653C114.299 67.4414 114.174 68.0323 113.924 68.538C113.677 69.0437 113.331 69.4371 112.885 69.7184C112.441 69.9996 111.924 70.1403 111.333 70.1403ZM111.333 69.2369C111.782 69.2369 112.152 69.1218 112.441 68.8917C112.731 68.6616 112.946 68.359 113.085 67.984C113.224 67.609 113.294 67.2028 113.294 66.7653C113.294 66.3278 113.224 65.9201 113.085 65.5423C112.946 65.1644 112.731 64.859 112.441 64.6261C112.152 64.3931 111.782 64.2766 111.333 64.2766C110.885 64.2766 110.515 64.3931 110.225 64.6261C109.936 64.859 109.721 65.1644 109.582 65.5423C109.443 65.9201 109.373 66.3278 109.373 66.7653C109.373 67.2028 109.443 67.609 109.582 67.984C109.721 68.359 109.936 68.6616 110.225 68.8917C110.515 69.1218 110.885 69.2369 111.333 69.2369ZM116.84 66.0664V70.0039H115.835V63.4585H116.806V64.4812H116.891C117.045 64.1488 117.278 63.8817 117.59 63.68C117.903 63.4755 118.306 63.3732 118.8 63.3732C119.244 63.3732 119.631 63.4641 119.964 63.646C120.296 63.8249 120.555 64.0977 120.739 64.4641C120.924 64.8278 121.016 65.288 121.016 65.8448V70.0039H120.011V65.913C120.011 65.3988 119.877 64.9982 119.61 64.7113C119.343 64.4215 118.977 64.2766 118.511 64.2766C118.19 64.2766 117.903 64.3462 117.65 64.4854C117.4 64.6246 117.202 64.8278 117.058 65.0948C116.913 65.3619 116.84 65.6857 116.84 66.0664Z" fill="white"/>
<path d="M33.2792 78.7481C33.2472 75.0534 36.1943 73.2559 36.329 73.1722C34.66 70.6467 32.073 70.3017 31.164 70.2742C28.9913 70.0368 26.8836 71.6234 25.7768 71.6234C24.6479 71.6234 22.9435 70.2971 21.1066 70.3361C18.7428 70.3739 16.5314 71.7943 15.3186 73.9999C12.8155 78.4971 14.6823 85.1059 17.0804 88.7411C18.28 90.5226 19.6817 92.5093 21.5164 92.4393C23.3114 92.3636 23.9819 91.2528 26.148 91.2528C28.2942 91.2528 28.9239 92.4393 30.795 92.3946C32.7214 92.3636 33.9343 90.6063 35.0919 88.8099C36.4782 86.7705 37.0349 84.7597 37.057 84.6566C37.0128 84.6405 33.3168 83.1754 33.2792 78.7481ZM29.7446 67.8828C30.7099 66.6299 31.3705 64.9252 31.1871 63.1953C29.7898 63.2595 28.0424 64.1984 27.0361 65.4239C26.1458 66.5037 25.3505 68.2738 25.5559 69.9383C27.1255 70.0598 28.7372 69.1163 29.7446 67.8828Z" fill="white"/>
<path d="M59.2774 92.181H56.7688L55.3947 87.6999H50.6184L49.3095 92.181H46.8672L51.6004 76.9251H54.5232L59.2774 92.181ZM54.9804 85.8198L53.7378 81.8361C53.6063 81.4292 53.3589 80.4708 52.9966 78.9622H52.9524C52.8066 79.611 52.5736 80.5694 52.2543 81.8361L51.0326 85.8198H54.9804ZM71.4257 86.5454C71.4257 88.4163 70.9363 89.8951 69.9565 90.9808C69.0795 91.9471 67.9893 92.4297 66.6892 92.4297C65.2852 92.4297 64.2756 91.9104 63.6625 90.8696V96.6415H61.3076V84.796C61.3076 83.621 61.2778 82.4162 61.2203 81.1804H63.2914L63.4228 82.9241H63.4671C64.2524 81.6103 65.4443 80.9534 67.0437 80.9534C68.2942 80.9534 69.338 81.4658 70.1731 82.4919C71.007 83.5201 71.4257 84.8705 71.4257 86.5454ZM69.0265 86.6348C69.0265 85.5641 68.7945 84.6814 68.3284 83.9855C67.8192 83.2622 67.1354 82.9 66.2782 82.9C65.6972 82.9 65.1692 83.1017 64.6976 83.4995C64.2248 83.9007 63.9155 84.4246 63.7708 85.0735C63.7063 85.3162 63.6695 85.5659 63.6615 85.8175V87.6528C63.6615 88.4518 63.8979 89.127 64.3706 89.6796C64.8434 90.2299 65.4576 90.5062 66.2131 90.5062C67.1001 90.5062 67.7905 90.1496 68.2842 89.4423C68.7791 88.7327 69.0265 87.7973 69.0265 86.6348ZM83.6168 86.5454C83.6168 88.4163 83.1278 89.8951 82.1482 90.9808C81.2695 91.9471 80.1806 92.4297 78.8793 92.4297C77.4757 92.4297 76.4663 91.9104 75.8529 90.8696V96.6415H73.4979V84.796C73.4979 83.621 73.468 82.4162 73.4106 81.1804H75.4818L75.6132 82.9241H75.6573C76.4419 81.6103 77.6339 80.9534 79.2339 80.9534C80.4832 80.9534 81.527 81.4658 82.3644 82.4919C83.1973 83.5201 83.6168 84.8705 83.6168 86.5454ZM81.2167 86.6348C81.2167 85.5641 80.9837 84.6814 80.5176 83.9855C80.0087 83.2622 79.3271 82.9 78.4698 82.9C77.8883 82.9 77.3603 83.1017 76.8866 83.4995C76.4143 83.9007 76.1058 84.4246 75.9612 85.0735C75.8893 85.3761 75.8507 85.6226 75.8507 85.8175V87.6528C75.8507 88.4518 76.0882 89.127 76.5588 89.6796C77.0317 90.2287 77.6453 90.5062 78.4033 90.5062C79.2912 90.5062 79.9819 90.1496 80.4748 89.4423C80.9692 88.7327 81.2167 87.7973 81.2167 86.6348ZM97.2476 87.9016C97.2476 89.2004 96.8105 90.2562 95.941 91.0713C94.9843 91.9609 93.6487 92.4068 91.9371 92.4068C90.3554 92.4068 89.087 92.0905 88.1303 91.4565L88.6751 89.4194C89.7074 90.0544 90.8421 90.3708 92.0769 90.3708C92.9656 90.3708 93.6556 90.1622 94.1484 89.7484C94.642 89.3334 94.8919 88.7785 94.8919 88.0862C94.8919 87.466 94.6848 86.9467 94.2798 86.5237C93.8718 86.1018 93.1986 85.7086 92.2519 85.3475C89.6776 84.3512 88.3901 82.8943 88.3901 80.9775C88.3901 79.7257 88.8448 78.7008 89.7533 77.8995C90.661 77.0993 91.8653 76.6992 93.3629 76.6992C94.7008 76.6992 95.8149 76.9411 96.6997 77.4237L96.1091 79.4161C95.2762 78.9484 94.3364 78.7145 93.2842 78.7145C92.4536 78.7145 91.8018 78.9267 91.3357 79.3485C90.9438 79.7257 90.7451 80.1854 90.7451 80.731C90.7451 81.3329 90.9713 81.8327 91.4221 82.2247C91.8133 82.5859 92.527 82.9791 93.5585 83.4009C94.8246 83.9305 95.7545 84.5473 96.3498 85.2557C96.9496 85.9642 97.2476 86.848 97.2476 87.9016ZM105.054 83.0146H102.458V88.3555C102.458 89.714 102.916 90.3915 103.832 90.3915C104.253 90.3915 104.602 90.3548 104.878 90.278L104.944 92.134C104.48 92.314 103.869 92.4045 103.112 92.4045C102.182 92.4045 101.456 92.1099 100.931 91.5207C100.408 90.9315 100.145 89.9444 100.145 88.555V83.01H98.5985V81.1758H100.145V79.1616L102.458 78.4371V81.1758H105.054V83.0146ZM116.743 86.5901C116.743 88.281 116.277 89.6693 115.347 90.7549C114.373 91.8726 113.079 92.4297 111.465 92.4297C109.907 92.4297 108.669 91.8944 107.746 90.8248C106.823 89.753 106.36 88.4025 106.36 86.7735C106.36 85.0689 106.838 83.6726 107.789 82.587C108.742 81.5002 110.026 80.9569 111.639 80.9569C113.194 80.9569 114.444 81.4934 115.39 82.5641C116.293 83.6027 116.743 84.944 116.743 86.5901ZM114.302 86.6463C114.302 85.6386 114.091 84.7743 113.671 84.0509C113.177 83.1774 112.47 82.7406 111.555 82.7406C110.611 82.7406 109.887 83.1774 109.395 84.0509C108.973 84.7743 108.763 85.6535 108.763 86.6922C108.763 87.701 108.973 88.5676 109.395 89.2887C109.904 90.1622 110.615 90.599 111.535 90.599C112.435 90.599 113.141 90.1531 113.651 89.2669C114.084 88.5264 114.302 87.6562 114.302 86.6463ZM124.401 83.3299C124.156 83.2839 123.907 83.2613 123.659 83.2622C122.831 83.2622 122.189 83.5855 121.739 84.2366C121.348 84.8098 121.151 85.5343 121.151 86.409V92.181H118.796V84.6447C118.798 83.49 118.775 82.3352 118.728 81.1815H120.779L120.865 83.2863H120.93C121.18 82.5629 121.571 81.9794 122.108 81.5426C122.599 81.161 123.197 80.9544 123.81 80.9534C124.028 80.9534 124.224 80.9695 124.398 80.9981L124.401 83.3299ZM134.933 86.1603C134.939 86.5318 134.91 86.903 134.847 87.2688H127.782C127.809 88.3555 128.151 89.1878 128.807 89.761C129.403 90.2723 130.173 90.5291 131.118 90.5291C132.164 90.5291 133.118 90.3571 133.976 90.0097L134.346 91.7053C133.342 92.1592 132.159 92.385 130.792 92.385C129.148 92.385 127.858 91.8829 126.919 90.881C125.982 89.8779 125.513 88.5298 125.513 86.8412C125.513 85.1835 125.95 83.8022 126.823 82.7005C127.738 81.5243 128.974 80.9362 130.529 80.9362C132.057 80.9362 133.213 81.5243 133.999 82.7005C134.621 83.6325 134.933 84.788 134.933 86.1603ZM132.687 85.5263C132.704 84.8006 132.549 84.1759 132.231 83.6474C131.822 82.9665 131.195 82.6271 130.355 82.6271C129.584 82.6271 128.957 82.9584 128.48 83.6233C128.088 84.1518 127.855 84.7869 127.783 85.524L132.687 85.5263Z" fill="white"/>
</g>
</g>
<path d="M54.146 9H53.0891C53.0266 8.69602 52.9173 8.42898 52.761 8.19886C52.6076 7.96875 52.4201 7.77557 52.1985 7.61932C51.9798 7.46023 51.7369 7.34091 51.4698 7.26136C51.2028 7.18182 50.9244 7.14205 50.6346 7.14205C50.1062 7.14205 49.6275 7.27557 49.1985 7.54261C48.7724 7.80966 48.4329 8.20312 48.18 8.72301C47.93 9.2429 47.805 9.88068 47.805 10.6364C47.805 11.392 47.93 12.0298 48.18 12.5497C48.4329 13.0696 48.7724 13.4631 49.1985 13.7301C49.6275 13.9972 50.1062 14.1307 50.6346 14.1307C50.9244 14.1307 51.2028 14.0909 51.4698 14.0114C51.7369 13.9318 51.9798 13.8139 52.1985 13.6577C52.4201 13.4986 52.6076 13.304 52.761 13.0739C52.9173 12.8409 53.0266 12.5739 53.0891 12.2727H54.146C54.0664 12.7187 53.9215 13.1179 53.7113 13.4702C53.5011 13.8224 53.2397 14.1222 52.9272 14.3693C52.6147 14.6136 52.2638 14.7997 51.8746 14.9276C51.4883 15.0554 51.0749 15.1193 50.6346 15.1193C49.8903 15.1193 49.2283 14.9375 48.6488 14.5739C48.0692 14.2102 47.6133 13.6932 47.2809 13.0227C46.9485 12.3523 46.7823 11.5568 46.7823 10.6364C46.7823 9.71591 46.9485 8.92045 47.2809 8.25C47.6133 7.57955 48.0692 7.0625 48.6488 6.69886C49.2283 6.33523 49.8903 6.15341 50.6346 6.15341C51.0749 6.15341 51.4883 6.21733 51.8746 6.34517C52.2638 6.47301 52.6147 6.66051 52.9272 6.90767C53.2397 7.15199 53.5011 7.45028 53.7113 7.80256C53.9215 8.15199 54.0664 8.55114 54.146 9ZM58.3764 15.1364C57.7855 15.1364 57.267 14.9957 56.821 14.7145C56.3778 14.4332 56.0312 14.0398 55.7812 13.5341C55.5341 13.0284 55.4105 12.4375 55.4105 11.7614C55.4105 11.0795 55.5341 10.4844 55.7812 9.97585C56.0312 9.46733 56.3778 9.07244 56.821 8.79119C57.267 8.50994 57.7855 8.36932 58.3764 8.36932C58.9673 8.36932 59.4844 8.50994 59.9276 8.79119C60.3736 9.07244 60.7202 9.46733 60.9673 9.97585C61.2173 10.4844 61.3423 11.0795 61.3423 11.7614C61.3423 12.4375 61.2173 13.0284 60.9673 13.5341C60.7202 14.0398 60.3736 14.4332 59.9276 14.7145C59.4844 14.9957 58.9673 15.1364 58.3764 15.1364ZM58.3764 14.233C58.8253 14.233 59.1946 14.1179 59.4844 13.8878C59.7741 13.6577 59.9886 13.3551 60.1278 12.9801C60.267 12.6051 60.3366 12.1989 60.3366 11.7614C60.3366 11.3239 60.267 10.9162 60.1278 10.5384C59.9886 10.1605 59.7741 9.85511 59.4844 9.62216C59.1946 9.3892 58.8253 9.27273 58.3764 9.27273C57.9276 9.27273 57.5582 9.3892 57.2685 9.62216C56.9787 9.85511 56.7642 10.1605 56.625 10.5384C56.4858 10.9162 56.4162 11.3239 56.4162 11.7614C56.4162 12.1989 56.4858 12.6051 56.625 12.9801C56.7642 13.3551 56.9787 13.6577 57.2685 13.8878C57.5582 14.1179 57.9276 14.233 58.3764 14.233ZM62.8775 15V8.45455H63.8491V9.47727H63.9343C64.0707 9.12784 64.2908 8.85653 64.5948 8.66335C64.8988 8.46733 65.2638 8.36932 65.69 8.36932C66.1218 8.36932 66.4812 8.46733 66.7681 8.66335C67.0579 8.85653 67.2837 9.12784 67.4457 9.47727H67.5138C67.6815 9.1392 67.9329 8.87074 68.2681 8.67188C68.6033 8.47017 69.0053 8.36932 69.4741 8.36932C70.0593 8.36932 70.538 8.55256 70.9102 8.91903C71.2823 9.28267 71.4684 9.84943 71.4684 10.6193V15H70.4627V10.6193C70.4627 10.1364 70.3306 9.79119 70.0664 9.58381C69.8022 9.37642 69.4911 9.27273 69.1332 9.27273C68.6729 9.27273 68.3164 9.41193 68.0636 9.69034C67.8107 9.96591 67.6843 10.3153 67.6843 10.7386V15H66.6616V10.517C66.6616 10.1449 66.5408 9.84517 66.2994 9.6179C66.0579 9.38778 65.7468 9.27273 65.3661 9.27273C65.1048 9.27273 64.8604 9.34233 64.6332 9.48153C64.4087 9.62074 64.2269 9.81392 64.0877 10.0611C63.9513 10.3054 63.8832 10.5881 63.8832 10.9091V15H62.8775ZM73.3072 15V8.45455H74.3129V15H73.3072ZM73.8185 7.36364C73.6225 7.36364 73.4535 7.29688 73.3114 7.16335C73.1722 7.02983 73.1026 6.86932 73.1026 6.68182C73.1026 6.49432 73.1722 6.33381 73.3114 6.20028C73.4535 6.06676 73.6225 6 73.8185 6C74.0146 6 74.1822 6.06676 74.3214 6.20028C74.4634 6.33381 74.5344 6.49432 74.5344 6.68182C74.5344 6.86932 74.4634 7.02983 74.3214 7.16335C74.1822 7.29688 74.0146 7.36364 73.8185 7.36364ZM77.1605 11.0625V15H76.1548V8.45455H77.1264V9.47727H77.2116C77.3651 9.14489 77.598 8.87784 77.9105 8.67614C78.223 8.47159 78.6264 8.36932 79.1207 8.36932C79.5639 8.36932 79.9517 8.46023 80.2841 8.64205C80.6165 8.82102 80.875 9.09375 81.0597 9.46023C81.2443 9.82386 81.3366 10.2841 81.3366 10.8409V15H80.331V10.9091C80.331 10.3949 80.1974 9.99432 79.9304 9.70739C79.6634 9.41761 79.2969 9.27273 78.831 9.27273C78.5099 9.27273 78.223 9.34233 77.9702 9.48153C77.7202 9.62074 77.5227 9.82386 77.3778 10.0909C77.233 10.358 77.1605 10.6818 77.1605 11.0625ZM85.8164 17.5909C85.3306 17.5909 84.913 17.5284 84.5636 17.4034C84.2141 17.2812 83.9229 17.1193 83.69 16.9176C83.4599 16.7188 83.2766 16.5057 83.1403 16.2784L83.9414 15.7159C84.0323 15.8352 84.1474 15.9716 84.2866 16.125C84.4258 16.2812 84.6161 16.4162 84.8576 16.5298C85.1019 16.6463 85.4215 16.7045 85.8164 16.7045C86.3448 16.7045 86.7809 16.5767 87.1246 16.321C87.4684 16.0653 87.6403 15.6648 87.6403 15.1193V13.7898H87.555C87.4812 13.9091 87.3761 14.0568 87.2397 14.233C87.1062 14.4062 86.913 14.5611 86.6602 14.6974C86.4102 14.831 86.0721 14.8977 85.646 14.8977C85.1175 14.8977 84.6431 14.7727 84.2227 14.5227C83.805 14.2727 83.4741 13.9091 83.2298 13.4318C82.9883 12.9545 82.8675 12.375 82.8675 11.6932C82.8675 11.0227 82.9854 10.4389 83.2212 9.94176C83.457 9.44176 83.7852 9.0554 84.2056 8.78267C84.6261 8.5071 85.1119 8.36932 85.663 8.36932C86.0891 8.36932 86.4272 8.44034 86.6772 8.58239C86.93 8.72159 87.1232 8.88068 87.2567 9.05966C87.3931 9.2358 87.4982 9.38068 87.5721 9.49432H87.6744V8.45455H88.646V15.1875C88.646 15.75 88.5181 16.2074 88.2624 16.5597C88.0096 16.9148 87.6687 17.1747 87.2397 17.3395C86.8136 17.5071 86.3391 17.5909 85.8164 17.5909ZM85.7823 13.9943C86.1857 13.9943 86.5266 13.902 86.805 13.7173C87.0835 13.5327 87.2951 13.267 87.44 12.9205C87.5849 12.5739 87.6573 12.1591 87.6573 11.6761C87.6573 11.2045 87.5863 10.7884 87.4442 10.4276C87.3022 10.0668 87.092 9.78409 86.8136 9.57955C86.5352 9.375 86.1914 9.27273 85.7823 9.27273C85.3562 9.27273 85.0011 9.38068 84.717 9.59659C84.4357 9.8125 84.2241 10.1023 84.082 10.4659C83.9428 10.8295 83.8732 11.233 83.8732 11.6761C83.8732 12.1307 83.9442 12.5327 84.0863 12.8821C84.2312 13.2287 84.4442 13.5014 84.7255 13.7003C85.0096 13.8963 85.3619 13.9943 85.7823 13.9943ZM98.771 8.45455C98.7198 8.02273 98.5124 7.6875 98.1488 7.44886C97.7852 7.21023 97.3391 7.09091 96.8107 7.09091C96.4244 7.09091 96.0863 7.15341 95.7965 7.27841C95.5096 7.40341 95.2852 7.57528 95.1232 7.79403C94.9641 8.01278 94.8846 8.26136 94.8846 8.53977C94.8846 8.77273 94.94 8.97301 95.0508 9.14062C95.1644 9.3054 95.3093 9.44318 95.4854 9.55398C95.6616 9.66193 95.8462 9.75142 96.0394 9.82244C96.2326 9.89062 96.4102 9.94602 96.5721 9.98864L97.4585 10.2273C97.6857 10.2869 97.9386 10.3693 98.217 10.4744C98.4982 10.5795 98.7667 10.723 99.0224 10.9048C99.2809 11.0838 99.494 11.3139 99.6616 11.5952C99.8292 11.8764 99.913 12.2216 99.913 12.6307C99.913 13.1023 99.7894 13.5284 99.5423 13.9091C99.2979 14.2898 98.94 14.5923 98.4684 14.8168C97.9996 15.0412 97.43 15.1534 96.7596 15.1534C96.1346 15.1534 95.5934 15.0526 95.136 14.8509C94.6815 14.6491 94.3235 14.3679 94.0621 14.0071C93.8036 13.6463 93.6573 13.2273 93.6232 12.75H94.7141C94.7425 13.0795 94.8533 13.3523 95.0465 13.5682C95.2425 13.7812 95.4897 13.9403 95.788 14.0455C96.0891 14.1477 96.413 14.1989 96.7596 14.1989C97.163 14.1989 97.5252 14.1335 97.8462 14.0028C98.1673 13.8693 98.4215 13.6847 98.609 13.4489C98.7965 13.2102 98.8903 12.9318 98.8903 12.6136C98.8903 12.3239 98.8093 12.0881 98.6474 11.9062C98.4854 11.7244 98.2724 11.5767 98.0082 11.4631C97.744 11.3494 97.4585 11.25 97.1516 11.1648L96.0778 10.858C95.396 10.6619 94.8562 10.3821 94.4585 10.0185C94.0607 9.65483 93.8619 9.17898 93.8619 8.59091C93.8619 8.10227 93.994 7.67614 94.2582 7.3125C94.5252 6.94602 94.8832 6.66193 95.332 6.46023C95.7837 6.25568 96.288 6.15341 96.8448 6.15341C97.4073 6.15341 97.9073 6.25426 98.3448 6.45597C98.7823 6.65483 99.1289 6.92756 99.3846 7.27415C99.6431 7.62074 99.7795 8.0142 99.7937 8.45455H98.771ZM104.173 15.1364C103.582 15.1364 103.064 14.9957 102.618 14.7145C102.175 14.4332 101.828 14.0398 101.578 13.5341C101.331 13.0284 101.207 12.4375 101.207 11.7614C101.207 11.0795 101.331 10.4844 101.578 9.97585C101.828 9.46733 102.175 9.07244 102.618 8.79119C103.064 8.50994 103.582 8.36932 104.173 8.36932C104.764 8.36932 105.281 8.50994 105.724 8.79119C106.17 9.07244 106.517 9.46733 106.764 9.97585C107.014 10.4844 107.139 11.0795 107.139 11.7614C107.139 12.4375 107.014 13.0284 106.764 13.5341C106.517 14.0398 106.17 14.4332 105.724 14.7145C105.281 14.9957 104.764 15.1364 104.173 15.1364ZM104.173 14.233C104.622 14.233 104.991 14.1179 105.281 13.8878C105.571 13.6577 105.786 13.3551 105.925 12.9801C106.064 12.6051 106.134 12.1989 106.134 11.7614C106.134 11.3239 106.064 10.9162 105.925 10.5384C105.786 10.1605 105.571 9.85511 105.281 9.62216C104.991 9.3892 104.622 9.27273 104.173 9.27273C103.724 9.27273 103.355 9.3892 103.065 9.62216C102.776 9.85511 102.561 10.1605 102.422 10.5384C102.283 10.9162 102.213 11.3239 102.213 11.7614C102.213 12.1989 102.283 12.6051 102.422 12.9801C102.561 13.3551 102.776 13.6577 103.065 13.8878C103.355 14.1179 103.724 14.233 104.173 14.233ZM111.333 15.1364C110.743 15.1364 110.224 14.9957 109.778 14.7145C109.335 14.4332 108.988 14.0398 108.738 13.5341C108.491 13.0284 108.368 12.4375 108.368 11.7614C108.368 11.0795 108.491 10.4844 108.738 9.97585C108.988 9.46733 109.335 9.07244 109.778 8.79119C110.224 8.50994 110.743 8.36932 111.333 8.36932C111.924 8.36932 112.441 8.50994 112.885 8.79119C113.331 9.07244 113.677 9.46733 113.924 9.97585C114.174 10.4844 114.299 11.0795 114.299 11.7614C114.299 12.4375 114.174 13.0284 113.924 13.5341C113.677 14.0398 113.331 14.4332 112.885 14.7145C112.441 14.9957 111.924 15.1364 111.333 15.1364ZM111.333 14.233C111.782 14.233 112.152 14.1179 112.441 13.8878C112.731 13.6577 112.946 13.3551 113.085 12.9801C113.224 12.6051 113.294 12.1989 113.294 11.7614C113.294 11.3239 113.224 10.9162 113.085 10.5384C112.946 10.1605 112.731 9.85511 112.441 9.62216C112.152 9.3892 111.782 9.27273 111.333 9.27273C110.885 9.27273 110.515 9.3892 110.225 9.62216C109.936 9.85511 109.721 10.1605 109.582 10.5384C109.443 10.9162 109.373 11.3239 109.373 11.7614C109.373 12.1989 109.443 12.6051 109.582 12.9801C109.721 13.3551 109.936 13.6577 110.225 13.8878C110.515 14.1179 110.885 14.233 111.333 14.233ZM116.84 11.0625V15H115.835V8.45455H116.806V9.47727H116.891C117.045 9.14489 117.278 8.87784 117.59 8.67614C117.903 8.47159 118.306 8.36932 118.8 8.36932C119.244 8.36932 119.631 8.46023 119.964 8.64205C120.296 8.82102 120.555 9.09375 120.739 9.46023C120.924 9.82386 121.016 10.2841 121.016 10.8409V15H120.011V10.9091C120.011 10.3949 119.877 9.99432 119.61 9.70739C119.343 9.41761 118.977 9.27273 118.511 9.27273C118.19 9.27273 117.903 9.34233 117.65 9.48153C117.4 9.62074 117.202 9.82386 117.058 10.0909C116.913 10.358 116.84 10.6818 116.84 11.0625Z" fill="white"/>
<defs>
<clipPath id="clip0_2562_446">
<rect width="149" height="46.6103" fill="white"/>
</clipPath>
<clipPath id="clip1_2562_446">
<rect width="149" height="46.6103" fill="white" transform="translate(0 55.7812)"/>
</clipPath>
</defs>
</svg>
