<svg width="21" height="20" viewBox="0 0 21 20" fill="none" xmlns="http://www.w3.org/2000/svg">
<path fill-rule="evenodd" clip-rule="evenodd" d="M18.9822 0H1.49477C0.895212 0 0.409668 0.485544 0.409668 1.0851V18.5726C0.409668 19.1721 0.895212 19.6577 1.49477 19.6577H10.9088V12.0452H8.34743V9.07889H10.9088V6.89001C10.9088 4.35024 12.4598 2.96831 14.7254 2.96831C15.8105 2.96831 16.7422 3.0489 17.0145 3.08527V5.73906H15.4439C14.2113 5.73906 13.9735 6.32485 13.9735 7.18389V9.07791H16.9113L16.528 12.0443H13.9725V19.6577H18.9822C19.5818 19.6577 20.0673 19.1721 20.0673 18.5726V1.0851C20.0673 0.485544 19.5818 0 18.9822 0Z" fill="#1E261B" fill-opacity="0.8"/>
</svg>
