<svg width="21" height="20" viewBox="0 0 21 20" fill="none" xmlns="http://www.w3.org/2000/svg">
<path d="M3.68421 0C2.1353 0 0.875977 1.25932 0.875977 2.80824V16.8494C0.875977 18.3983 2.1353 19.6577 3.68421 19.6577H17.7254C19.2743 19.6577 20.5336 18.3983 20.5336 16.8494V2.80824C20.5336 1.25932 19.2743 0 17.7254 0H3.68421ZM16.7206 3.68581L12.166 8.88983L17.5236 15.9719H13.3288L10.0466 11.6761L6.28622 15.9719H4.20198L9.07252 10.4036L3.93432 3.68581H8.23444L11.205 7.61296L14.6363 3.68581H16.7206ZM15.062 14.7257L7.60697 4.86615H6.3652L13.9036 14.7257H15.0576H15.062Z" fill="#1E261B" fill-opacity="0.8"/>
</svg>
