<svg width="140" height="140" viewBox="0 0 140 140" fill="none" xmlns="http://www.w3.org/2000/svg">
<path d="M17.2423 47.1562H18.4873C22.8094 47.2502 27.0611 48.9885 30.1148 52.0656C28.9873 53.2167 27.8363 54.3207 26.7322 55.4717C25.0175 53.9214 22.9503 52.7234 20.6953 52.3005C17.3597 51.5958 13.7658 52.2301 10.9705 54.1328C7.91679 56.1294 5.84968 59.512 5.40337 63.1294C4.91008 66.6999 5.92015 70.4583 8.24565 73.2301C10.4772 75.9314 13.8832 77.6227 17.4067 77.7401C20.6953 77.9281 24.1248 76.918 26.5208 74.616C28.4 72.9952 29.2691 70.5287 29.551 68.1328C25.6517 68.1328 21.7524 68.1562 17.853 68.1328V63.2938H34.2725C35.1181 68.4851 33.8967 74.3341 29.9504 78.0455C27.3195 80.6764 23.6785 82.2267 19.9671 82.5321C16.3732 82.8844 12.6618 82.2032 9.46713 80.465C5.63827 78.4214 2.58458 74.9683 1.08122 70.9046C-0.328176 67.1697 -0.351665 62.9415 0.963771 59.1831C2.16176 55.7536 4.46377 52.7234 7.4235 50.6093C10.2658 48.5187 13.7188 47.3677 17.2423 47.1562Z" fill="white"/>
<path d="M111.436 48.3789H116.462V81.9225C114.795 81.9225 113.103 81.946 111.436 81.899C111.459 70.7413 111.436 59.5601 111.436 48.3789Z" fill="white"/>
<path d="M45.4522 60.0052C48.5529 59.418 51.9119 60.0757 54.4723 61.9314C56.7978 63.5757 58.4186 66.1596 58.9119 68.9784C59.5462 72.2435 58.7475 75.814 56.6334 78.3979C54.3549 81.2871 50.62 82.8375 46.979 82.6026C43.6435 82.4146 40.4019 80.7469 38.4287 78.022C36.1972 75.0153 35.6569 70.8811 36.8784 67.3576C38.0998 63.5757 41.5529 60.6865 45.4522 60.0052ZM46.1569 64.4683C44.8884 64.7972 43.7139 65.5254 42.8683 66.5589C40.5898 69.2838 40.7307 73.7234 43.2441 76.2603C44.677 77.7167 46.8381 78.3979 48.8347 77.9985C50.6904 77.6697 52.3113 76.4247 53.2039 74.7804C54.7542 71.9851 54.3079 68.1328 51.9354 65.9482C50.4086 64.5388 48.177 63.9516 46.1569 64.4683Z" fill="white"/>
<path d="M70.353 60.007C73.9 59.3258 77.7758 60.3123 80.4302 62.8023C84.7523 66.6781 85.2221 73.9365 81.5342 78.3996C79.3027 81.2184 75.6852 82.7687 72.1148 82.6043C68.7087 82.5103 65.3497 80.8191 63.3295 78.0238C61.051 74.9466 60.5577 70.7184 61.8497 67.1244C63.1416 63.46 66.5242 60.6647 70.353 60.007ZM71.0577 64.4701C69.7893 64.7989 68.6148 65.5271 67.7691 66.5372C65.5141 69.215 65.608 73.5842 68.0275 76.1446C69.4604 77.6714 71.6919 78.4231 73.7591 78.0003C75.5913 77.6479 77.2356 76.4264 78.1282 74.7821C79.655 71.9634 79.2087 68.111 76.8127 65.9264C75.2859 64.517 73.0544 63.9533 71.0577 64.4701Z" fill="white"/>
<path d="M91.4706 61.3662C94.1719 59.6749 97.7659 59.2051 100.679 60.6615C101.595 61.0608 102.346 61.7421 103.075 62.4233C103.098 61.789 103.075 61.1313 103.098 60.4736C104.672 60.4971 106.246 60.4736 107.843 60.4971V81.2152C107.82 84.3394 107.021 87.6515 104.766 89.93C102.299 92.4434 98.5176 93.2186 95.1115 92.7018C91.4706 92.1615 88.2995 89.5072 86.8901 86.1481C88.2995 85.4669 89.7793 84.9266 91.2357 84.2924C92.0578 86.2186 93.7256 87.8629 95.8162 88.2387C97.9068 88.6145 100.326 88.0978 101.689 86.3595C103.145 84.5743 103.145 82.1313 103.075 79.9468C101.994 81.0038 100.749 81.9434 99.2458 82.2958C95.9807 83.2119 92.3867 82.0843 89.8733 79.8763C87.3364 77.6682 85.833 74.2622 85.974 70.8796C86.0444 67.0508 88.2055 63.3629 91.4706 61.3662ZM96.333 64.3729C94.9001 64.6078 93.5612 65.4065 92.6451 66.5105C90.437 69.1414 90.437 73.3461 92.6686 75.93C93.937 77.4568 95.9807 78.3025 97.9538 78.0911C99.8095 77.9031 101.524 76.7286 102.44 75.1078C103.991 72.3595 103.732 68.6246 101.642 66.2286C100.35 64.7488 98.2827 64.0206 96.333 64.3729Z" fill="white"/>
<path d="M122.499 62.5671C125.318 59.9363 129.663 59.0437 133.281 60.4296C136.71 61.7215 138.895 64.9866 139.999 68.3457C134.902 70.4598 129.828 72.5504 124.731 74.6645C125.435 76.0034 126.516 77.2249 127.972 77.7182C130.016 78.4463 132.459 78.188 134.174 76.8255C134.855 76.3088 135.395 75.6276 135.912 74.9698C137.204 75.839 138.496 76.6846 139.788 77.5537C137.955 80.302 134.878 82.2282 131.566 82.5336C127.902 82.9799 124.002 81.5705 121.63 78.7047C117.731 74.1947 118.106 66.6309 122.499 62.5671ZM125.012 66.9128C124.214 68.0638 123.885 69.4732 123.908 70.8591C127.314 69.4497 130.721 68.0403 134.127 66.6074C133.563 65.292 132.2 64.4933 130.814 64.2819C128.583 63.8826 126.257 65.0806 125.012 66.9128Z" fill="white"/>
</svg>
