<svg width="178" height="56" viewBox="0 0 178 56" fill="none" xmlns="http://www.w3.org/2000/svg">
<g clip-path="url(#clip0_2556_123)">
<mask id="mask0_2556_123" style="mask-type:luminance" maskUnits="userSpaceOnUse" x="0" y="0" width="178" height="56">
<path d="M177.77 0.339844H0V55.0385H177.77V0.339844Z" fill="white"/>
</mask>
<g mask="url(#mask0_2556_123)">
<path d="M171.187 55.031H6.58409C2.897 55.031 0 52.0237 0 48.1961V7.1865C0 3.35894 2.897 0.351562 6.58409 0.351562H171.187C174.873 0.351562 177.77 3.35894 177.77 7.1865V48.1961C177.77 52.0237 174.873 55.031 171.187 55.031Z" fill="white"/>
<path d="M62.4179 14.2922C62.4179 15.3859 62.1547 16.3427 61.4962 17.0263C60.7061 17.8465 59.7844 18.2565 58.5992 18.2565C57.4141 18.2565 56.4923 17.8465 55.7022 17.0263C54.9121 16.2061 54.5171 15.2492 54.5171 14.0188C54.5171 12.7886 54.9121 11.8317 55.7022 11.0115C56.4923 10.1913 57.4141 9.78125 58.5992 9.78125C59.1259 9.78125 59.6527 9.91791 60.1794 10.1913C60.7061 10.4647 61.1012 10.7381 61.3645 11.1482L60.7061 11.8317C60.1794 11.1482 59.521 10.8748 58.5992 10.8748C57.8091 10.8748 57.019 11.1482 56.4923 11.8317C55.8339 12.3785 55.5705 13.1987 55.5705 14.1556C55.5705 15.1125 55.8339 15.9327 56.4923 16.4795C57.1507 17.0263 57.8091 17.4363 58.5992 17.4363C59.521 17.4363 60.1794 17.1629 60.8378 16.4795C61.2328 16.0693 61.4962 15.5226 61.4962 14.839H58.5992V13.7454H62.4179V14.2922ZM68.4754 10.8748H64.9199V13.472H68.212V14.429H64.9199V17.0263H68.4754V18.1199H63.8664V9.91791H68.4754V10.8748ZM72.8209 18.1199H71.7674V10.8748H69.5288V9.91791H75.0594V10.8748H72.8209V18.1199ZM78.8782 18.1199V9.91791H79.9317V18.1199H78.8782ZM84.4089 18.1199H83.3554V10.8748H81.1168V9.91791H86.5158V10.8748H84.2771V18.1199H84.4089ZM96.9187 17.0263C96.1283 17.8465 95.2067 18.2565 94.0215 18.2565C92.8364 18.2565 91.9147 17.8465 91.1246 17.0263C90.3346 16.2061 89.9395 15.2492 89.9395 14.0188C89.9395 12.7886 90.3346 11.8317 91.1246 11.0115C91.9147 10.1913 92.8364 9.78125 94.0215 9.78125C95.2067 9.78125 96.1283 10.1913 96.9187 11.0115C97.7091 11.8317 98.1039 12.7886 98.1039 14.0188C98.1039 15.2492 97.7091 16.2061 96.9187 17.0263ZM91.9147 16.3427C92.4416 16.8895 93.2311 17.2997 94.0215 17.2997C94.8119 17.2997 95.6014 17.0263 96.1283 16.3427C96.6553 15.796 97.05 14.9758 97.05 14.0188C97.05 13.062 96.7865 12.2418 96.1283 11.695C95.6014 11.1482 94.8119 10.7381 94.0215 10.7381C93.2311 10.7381 92.4416 11.0115 91.9147 11.695C91.3878 12.2418 90.993 13.062 90.993 14.0188C90.993 14.9758 91.2565 15.796 91.9147 16.3427ZM99.5525 18.1199V9.91791H100.738L104.556 16.3427V9.91791H105.609V18.1199H104.556L100.474 11.4216V18.1199H99.5525Z" fill="#1E261B"/>
<path fill-rule="evenodd" clip-rule="evenodd" d="M58.5991 9.91793C57.4488 9.91793 56.5606 10.3137 55.7952 11.1082C55.0299 11.9027 54.6486 12.8248 54.6486 14.0189C54.6486 15.213 55.0299 16.1352 55.7952 16.9297C56.5606 17.7242 57.4488 18.1199 58.5991 18.1199C59.7494 18.1199 60.6377 17.7242 61.403 16.9297C62.028 16.2808 62.2862 15.3648 62.2862 14.2923V13.8822H58.7308V14.7024H61.6278V14.8391C61.6278 15.5626 61.3478 16.1433 60.9309 16.5761C60.592 16.9279 60.2486 17.1787 59.8671 17.3408C59.4856 17.5027 59.0728 17.5731 58.5991 17.5731C57.7623 17.5731 57.0738 17.1375 56.4099 16.5862C55.7098 16.0048 55.4387 15.1376 55.4387 14.1556C55.4387 13.1789 55.7069 12.3159 56.3985 11.7345C56.957 11.0185 57.7859 10.7381 58.5991 10.7381C59.499 10.7381 60.1734 10.9929 60.7144 11.6296L61.1926 11.1333C60.9496 10.8018 60.5989 10.562 60.1204 10.3136C59.6098 10.0486 59.1031 9.91793 58.5991 9.91793ZM55.609 10.9149C56.4239 10.069 57.3791 9.64453 58.5991 9.64453C59.1486 9.64453 59.6954 9.78729 60.2382 10.0691C60.7705 10.3454 61.1911 10.6319 61.474 11.0724L61.5339 11.1657L60.6951 12.0364L60.6032 11.9172C60.1065 11.2725 59.4896 11.0115 58.5991 11.0115C57.8366 11.0115 57.0899 11.2749 56.5951 11.9172L56.5859 11.929L56.5745 11.9385C55.9578 12.4506 55.7021 13.2239 55.7021 14.1556C55.7021 15.0873 55.9578 15.8607 56.5745 16.3727C57.2274 16.915 57.8558 17.2997 58.5991 17.2997C59.0471 17.2997 59.4245 17.2333 59.7673 17.0877C60.11 16.9421 60.425 16.7146 60.7446 16.3829C61.0908 16.0234 61.3283 15.5556 61.3607 14.9758H58.4674V13.6088H62.5496V14.2923C62.5496 15.4069 62.2811 16.4047 61.5892 17.1229C60.7744 17.9688 59.8191 18.3933 58.5991 18.3933C57.3791 18.3933 56.4239 17.9688 55.609 17.1229C54.7941 16.2771 54.3853 15.2854 54.3853 14.0189C54.3853 12.7524 54.7941 11.7607 55.609 10.9149ZM94.0215 9.91793C92.871 9.91793 91.9831 10.3137 91.2173 11.1082C90.4523 11.9027 90.0711 12.8248 90.0711 14.0189C90.0711 15.213 90.4523 16.1352 91.2173 16.9297C91.9831 17.7242 92.871 18.1199 94.0215 18.1199C95.172 18.1199 96.0599 17.7242 96.8257 16.9297C97.5906 16.1352 97.9717 15.213 97.9717 14.0189C97.9717 12.8248 97.5906 11.9027 96.8257 11.1082C96.0599 10.3137 95.172 9.91793 94.0215 9.91793ZM91.0314 10.9149C91.8463 10.069 92.8017 9.64453 94.0215 9.64453C95.2413 9.64453 96.1967 10.069 97.0117 10.9149C97.8267 11.7607 98.2351 12.7524 98.2351 14.0189C98.2351 15.2854 97.8267 16.2771 97.0117 17.1229C96.1967 17.9688 95.2413 18.3933 94.0215 18.3933C92.8017 18.3933 91.8463 17.9688 91.0314 17.1229C90.2166 16.2771 89.8077 15.2854 89.8077 14.0189C89.8077 12.7524 90.2166 11.7607 91.0314 10.9149ZM63.7347 9.78128H68.6069V11.0115H65.0515V13.3354H68.3436V14.5657H65.0515V16.8895H68.6069V18.2566H63.7347V9.78128ZM63.9981 10.0547V17.9832H68.3436V17.1629H64.7882V14.2923H68.0802V13.6088H64.7882V10.7381H68.3436V10.0547H63.9981ZM69.397 9.78128H75.1911V11.0115H72.9524V18.2566H71.6356V11.0115H69.397V9.78128ZM69.6604 10.0547V10.7381H71.899V17.9832H72.6891V10.7381H74.9277V10.0547H69.6604ZM78.7465 9.78128H80.0632V18.2566H78.7465V9.78128ZM79.0098 10.0547V17.9832H79.7999V10.0547H79.0098ZM80.985 9.78128H86.6473V11.0115H84.4088V18.2566H83.2236V11.0115H80.985V9.78128ZM84.1454 17.9832H83.487V10.7381H81.2484V10.0547H86.3839V10.7381H84.1454V17.9832ZM99.4203 9.78128H100.811L104.424 15.8609V9.78128H105.742V18.2566H104.484L100.605 11.8934V18.2566H99.4203V9.78128ZM99.6837 10.0547V17.9832H100.342V10.9499L104.628 17.9832H105.478V10.0547H104.688V16.8246L100.664 10.0547H99.6837ZM91.8162 11.6037C92.3751 10.8834 93.2056 10.6015 94.0215 10.6015C94.8502 10.6015 95.6698 11.0282 96.2167 11.5931C96.9123 12.1745 97.1822 13.0395 97.1822 14.0189C97.1822 15.0123 96.7729 15.8641 96.2268 16.4341C95.6679 17.1545 94.8374 17.4363 94.0215 17.4363C93.1928 17.4363 92.3733 17.0096 91.8263 16.4448C91.1308 15.8634 90.8612 14.9983 90.8612 14.0189C90.8612 13.0255 91.2702 12.1736 91.8162 11.6037ZM94.0215 10.8749C93.2594 10.8749 92.5127 11.1382 92.0177 11.7804L92.0132 11.7863L92.0077 11.7917C91.5036 12.3154 91.1245 13.1017 91.1245 14.0189C91.1245 14.9507 91.3805 15.7239 91.9967 16.2361L92.0022 16.2408L92.0077 16.2461C92.5146 16.7722 93.2721 17.1629 94.0215 17.1629C94.7836 17.1629 95.5303 16.8997 96.0253 16.2574L96.0299 16.2515L96.0353 16.2461C96.5395 15.7225 96.9187 14.9362 96.9187 14.0189C96.9187 13.0872 96.6625 12.3139 96.0463 11.8018L96.0408 11.797L96.0353 11.7917C95.5285 11.2656 94.7709 10.8749 94.0215 10.8749Z" fill="#1E261B"/>
<path d="M89.6762 30.1554C86.5158 30.1554 84.0139 32.6159 84.0139 36.0334C84.0139 39.3142 86.5158 41.9115 89.6762 41.9115C92.8367 41.9115 95.3382 39.4509 95.3382 36.0334C95.3382 32.4792 92.8367 30.1554 89.6762 30.1554ZM89.6762 39.4508C87.9643 39.4508 86.5158 37.9472 86.5158 35.8967C86.5158 33.8462 87.9643 32.3425 89.6762 32.3425C91.3881 32.3425 92.8367 33.7095 92.8367 35.8967C92.8367 37.9472 91.3881 39.4508 89.6762 39.4508ZM77.4298 30.1554C74.2694 30.1554 71.7674 32.6159 71.7674 36.0334C71.7674 39.3142 74.2694 41.9115 77.4298 41.9115C80.5901 41.9115 83.0921 39.4509 83.0921 36.0334C83.0921 32.4792 80.5901 30.1554 77.4298 30.1554ZM77.4298 39.4508C75.7179 39.4508 74.2694 37.9472 74.2694 35.8967C74.2694 33.8462 75.7179 32.3425 77.4298 32.3425C79.1416 32.3425 80.5901 33.7095 80.5901 35.8967C80.5901 37.9472 79.1416 39.4508 77.4298 39.4508ZM62.813 31.9324V34.393H68.4754C68.3437 35.76 67.817 36.8536 67.1586 37.537C66.3685 38.3572 65.0517 39.3142 62.813 39.3142C59.2576 39.3142 56.624 36.4435 56.624 32.7526C56.624 29.0618 59.3894 26.1911 62.813 26.1911C64.6566 26.1911 66.1051 27.0113 67.1586 27.9682L68.8705 26.1911C67.4219 24.8241 65.5784 23.7305 62.9448 23.7305C58.2042 23.7305 54.1221 27.8315 54.1221 32.7526C54.1221 37.6738 58.2042 41.7747 62.9448 41.7747C65.5784 41.7747 67.4219 40.9545 69.0021 39.1774C70.5823 37.537 71.109 35.2132 71.109 33.4361C71.109 32.8893 71.109 32.3425 70.9774 31.9324H62.813ZM122.596 33.8462C122.07 32.4792 120.753 30.1554 117.856 30.1554C114.96 30.1554 112.589 32.4792 112.589 36.0334C112.589 39.3142 114.96 41.9115 118.119 41.9115C120.622 41.9115 122.202 40.2711 122.729 39.3142L120.885 37.9472C120.226 38.904 119.437 39.5876 118.119 39.5876C116.803 39.5876 116.012 39.0408 115.354 37.8104L122.86 34.5297L122.596 33.8462ZM114.96 35.76C114.96 33.5728 116.671 32.3425 117.856 32.3425C118.777 32.3425 119.7 32.8893 119.963 33.5728L114.96 35.76ZM108.77 41.3647H111.272V24.2773H108.77V41.3647ZM104.819 31.3856C104.161 30.7022 103.108 30.0186 101.791 30.0186C99.0258 30.0186 96.3921 32.6159 96.3921 35.8967C96.3921 39.1775 98.8936 41.6381 101.791 41.6381C103.108 41.6381 104.161 40.9545 104.688 40.2711H104.819V41.0913C104.819 43.2784 103.634 44.5087 101.791 44.5087C100.342 44.5087 99.2893 43.4151 99.0258 42.4582L96.919 43.4151C97.5772 44.9188 99.1571 46.8326 101.923 46.8326C104.819 46.8326 107.19 45.0555 107.19 40.8179V30.4288H104.819V31.3856ZM101.923 39.4508C100.211 39.4508 98.7623 37.9472 98.7623 35.8967C98.7623 33.8462 100.211 32.3425 101.923 32.3425C103.634 32.3425 104.951 33.8462 104.951 35.8967C104.951 37.9472 103.634 39.4508 101.923 39.4508ZM134.053 24.2773H128.127V41.3647H130.629V34.9398H134.053C136.818 34.9398 139.452 32.8893 139.452 29.6086C139.452 26.3277 136.818 24.2773 134.053 24.2773ZM134.184 32.4792H130.629V26.6011H134.184C136.028 26.6011 137.081 28.2416 137.081 29.4718C136.95 30.9756 135.896 32.4792 134.184 32.4792ZM149.328 30.0186C147.484 30.0186 145.641 30.8388 144.983 32.6159L147.221 33.5728C147.748 32.6159 148.538 32.3425 149.46 32.3425C150.776 32.3425 151.961 33.1627 152.093 34.5297V34.6664C151.699 34.393 150.645 33.9829 149.591 33.9829C147.221 33.9829 144.85 35.3499 144.85 37.8104C144.85 40.1343 146.826 41.6381 148.933 41.6381C150.645 41.6381 151.435 40.8179 152.093 39.9977H152.225V41.3647H154.595V34.8031C154.332 31.7957 152.093 30.0186 149.328 30.0186ZM149.065 39.4508C148.275 39.4508 147.089 39.0408 147.089 37.9472C147.089 36.5802 148.538 36.1701 149.723 36.1701C150.776 36.1701 151.303 36.4435 151.961 36.7169C151.699 38.3572 150.381 39.4508 149.065 39.4508ZM162.891 30.4288L160.126 37.8104H159.995L157.097 30.4288H154.464L158.81 40.8179L156.307 46.5592H158.81L165.525 30.4288H162.891ZM140.769 41.3647H143.271V24.2773H140.769V41.3647Z" fill="#1E261B"/>
<path d="M13.6957 10.6094C13.3007 11.0195 13.1689 11.703 13.1689 12.5232V42.7336C13.1689 43.5538 13.4323 44.2373 13.8273 44.6473L13.9591 44.7841L30.2876 27.8334V27.56L13.6957 10.6094Z" fill="#1E261B"/>
<path d="M35.5542 33.5726L30.1553 27.9679V27.5578L35.5542 21.9531L35.6859 22.0899L42.1384 25.9174C43.9819 27.011 43.9819 28.7881 42.1384 29.8817L35.5542 33.5726Z" fill="#1E261B"/>
<path d="M35.6872 33.4367L30.1566 27.6953L13.6963 44.7826C14.3548 45.4662 15.2765 45.4662 16.4617 44.9194L35.6872 33.4367Z" fill="#1E261B"/>
<path d="M35.6872 21.9516L16.4617 10.6056C15.2765 9.92211 14.3548 10.0589 13.6963 10.7423L30.1566 27.693L35.6872 21.9516Z" fill="#1E261B"/>
<path opacity="0.2" d="M35.5555 33.2969L16.4617 44.5062C15.4082 45.1897 14.4864 45.053 13.828 44.5062L13.6963 44.6429L13.828 44.7796C14.4864 45.3264 15.4082 45.4631 16.4617 44.7796L35.5555 33.2969Z" fill="#1E261B"/>
<path opacity="0.12" d="M13.6957 44.5092C13.3007 44.0992 13.1689 43.4157 13.1689 42.5955V42.7321C13.1689 43.5524 13.4323 44.2359 13.8273 44.646V44.5092H13.6957ZM42.139 29.4724L35.5549 33.2999L35.6865 33.4367L42.139 29.6091C43.0607 29.0623 43.4557 28.3788 43.4557 27.6953C43.4557 28.3788 42.9291 28.9256 42.139 29.4724Z" fill="#1E261B"/>
<path opacity="0.25" d="M16.461 10.7439L42.139 25.9175C42.9291 26.4643 43.4557 27.0111 43.4557 27.6946C43.4557 27.0111 43.0607 26.3277 42.139 25.7809L16.461 10.6073C14.6175 9.51369 13.1689 10.3339 13.1689 12.5211V12.6578C13.1689 10.6073 14.6175 9.65043 16.461 10.7439Z" fill="#1E261B"/>
</g>
<rect x="50.1099" y="7.16016" width="106.185" height="14.3171" fill="white"/>
<path d="M65.5054 10.8299H63.8435C63.7795 10.4748 63.6606 10.1623 63.4866 9.8924C63.3126 9.62251 63.0995 9.39347 62.8474 9.20526C62.5952 9.01705 62.3129 8.875 62.0004 8.77912C61.6915 8.68324 61.363 8.6353 61.015 8.6353C60.3864 8.6353 59.8236 8.79332 59.3264 9.10938C58.8328 9.42543 58.4422 9.88885 58.1545 10.4996C57.8704 11.1104 57.7284 11.8562 57.7284 12.7369C57.7284 13.6246 57.8704 14.3739 58.1545 14.9847C58.4422 15.5955 58.8346 16.0572 59.3317 16.3697C59.8289 16.6822 60.3882 16.8384 61.0096 16.8384C61.3541 16.8384 61.6808 16.7923 61.9898 16.6999C62.3023 16.604 62.5846 16.4638 62.8367 16.2791C63.0888 16.0945 63.3019 15.869 63.4759 15.6026C63.6535 15.3327 63.776 15.0238 63.8435 14.6758L65.5054 14.6811C65.4166 15.2173 65.2444 15.7109 64.9887 16.1619C64.7366 16.6094 64.4116 16.9964 64.0139 17.3232C63.6197 17.6463 63.1687 17.8967 62.6609 18.0742C62.1531 18.2518 61.5991 18.3406 60.999 18.3406C60.0544 18.3406 59.2128 18.1168 58.4741 17.6694C57.7355 17.2184 57.1531 16.5739 56.727 15.7358C56.3044 14.8977 56.0931 13.8981 56.0931 12.7369C56.0931 11.5721 56.3062 10.5724 56.7323 9.73793C57.1584 8.89986 57.7408 8.2571 58.4795 7.80966C59.2181 7.35866 60.0579 7.13317 60.999 7.13317C61.5778 7.13317 62.1176 7.21662 62.6183 7.38352C63.1226 7.54687 63.5753 7.78835 63.9766 8.10795C64.3779 8.42401 64.7099 8.81108 64.9727 9.26918C65.2355 9.72372 65.4131 10.244 65.5054 10.8299ZM70.7935 18.3565C70.0264 18.3565 69.357 18.1808 68.7853 17.8292C68.2136 17.4776 67.7697 16.9858 67.4536 16.3537C67.1376 15.7216 66.9796 14.983 66.9796 14.1378C66.9796 13.2891 67.1376 12.5469 67.4536 11.9112C67.7697 11.2756 68.2136 10.782 68.7853 10.4304C69.357 10.0788 70.0264 9.90305 70.7935 9.90305C71.5605 9.90305 72.2299 10.0788 72.8016 10.4304C73.3734 10.782 73.8173 11.2756 74.1333 11.9112C74.4494 12.5469 74.6074 13.2891 74.6074 14.1378C74.6074 14.983 74.4494 15.7216 74.1333 16.3537C73.8173 16.9858 73.3734 17.4776 72.8016 17.8292C72.2299 18.1808 71.5605 18.3565 70.7935 18.3565ZM70.7988 17.0195C71.296 17.0195 71.7079 16.8881 72.0346 16.6254C72.3613 16.3626 72.6028 16.0128 72.759 15.576C72.9188 15.1392 72.9987 14.658 72.9987 14.1325C72.9987 13.6104 72.9188 13.131 72.759 12.6942C72.6028 12.2539 72.3613 11.9006 72.0346 11.6342C71.7079 11.3679 71.296 11.2347 70.7988 11.2347C70.2981 11.2347 69.8826 11.3679 69.5524 11.6342C69.2256 11.9006 68.9824 12.2539 68.8226 12.6942C68.6663 13.131 68.5882 13.6104 68.5882 14.1325C68.5882 14.658 68.6663 15.1392 68.8226 15.576C68.9824 16.0128 69.2256 16.3626 69.5524 16.6254C69.8826 16.8881 70.2981 17.0195 70.7988 17.0195ZM76.3852 18.1914V10.0096H77.9139V11.3413H78.0152C78.1856 10.8903 78.4644 10.5387 78.8514 10.2866C79.2385 10.0309 79.7019 9.90305 80.2417 9.90305C80.7886 9.90305 81.2467 10.0309 81.616 10.2866C81.9889 10.5423 82.2641 10.8938 82.4416 11.3413H82.5269C82.7222 10.9045 83.0329 10.5565 83.459 10.2972C83.8852 10.0344 84.393 9.90305 84.9825 9.90305C85.7247 9.90305 86.3301 10.1357 86.7989 10.6009C87.2712 11.0661 87.5073 11.7674 87.5073 12.7049V18.1914H85.9147V12.854C85.9147 12.3001 85.7637 11.8988 85.4619 11.6502C85.16 11.4016 84.7996 11.2773 84.3806 11.2773C83.8621 11.2773 83.459 11.4371 83.1714 11.7567C82.8838 12.0728 82.7399 12.4794 82.7399 12.9766V18.1914H81.1526V12.7528C81.1526 12.3089 81.0141 11.9521 80.7371 11.6822C80.4601 11.4123 80.0997 11.2773 79.6558 11.2773C79.3539 11.2773 79.0752 11.3572 78.8195 11.517C78.5674 11.6733 78.3632 11.8917 78.2069 12.1722C78.0542 12.4528 77.9779 12.7777 77.9779 13.147V18.1914H76.3852ZM89.642 18.1914V10.0096H91.2347V18.1914H89.642ZM90.4464 8.74716C90.1694 8.74716 89.9314 8.65483 89.7326 8.47017C89.5373 8.28196 89.4396 8.05824 89.4396 7.79901C89.4396 7.53622 89.5373 7.3125 89.7326 7.12784C89.9314 6.93963 90.1694 6.84553 90.4464 6.84553C90.7233 6.84553 90.9595 6.93963 91.1548 7.12784C91.3537 7.3125 91.4531 7.53622 91.4531 7.79901C91.4531 8.05824 91.3537 8.28196 91.1548 8.47017C90.9595 8.65483 90.7233 8.74716 90.4464 8.74716ZM94.9701 13.3335V18.1914H93.3774V10.0096H94.9061V11.3413H95.0073C95.1956 10.908 95.4903 10.56 95.8916 10.2972C96.2964 10.0344 96.806 9.90305 97.4203 9.90305C97.9779 9.90305 98.4661 10.0202 98.8852 10.2546C99.3042 10.4854 99.6291 10.8299 99.86 11.288C100.091 11.7461 100.206 12.3125 100.206 12.9872V18.1914H98.6135V13.179C98.6135 12.5859 98.459 12.1225 98.1501 11.7887C97.8411 11.4513 97.4168 11.2827 96.877 11.2827C96.5077 11.2827 96.1792 11.3626 95.8916 11.5224C95.6075 11.6822 95.382 11.9165 95.2151 12.2255C95.0517 12.5309 94.9701 12.9002 94.9701 13.3335ZM105.773 21.43C105.123 21.43 104.563 21.3448 104.095 21.1744C103.63 21.0039 103.25 20.7784 102.955 20.4979C102.66 20.2173 102.44 19.9102 102.294 19.5763L103.663 19.0117C103.759 19.168 103.887 19.3331 104.047 19.5071C104.21 19.6847 104.43 19.8356 104.707 19.9599C104.988 20.0842 105.348 20.1463 105.789 20.1463C106.392 20.1463 106.891 19.9989 107.285 19.7042C107.68 19.413 107.877 18.9478 107.877 18.3086V16.6999H107.775C107.68 16.8739 107.541 17.0675 107.36 17.2805C107.182 17.4936 106.937 17.6783 106.625 17.8345C106.312 17.9908 105.906 18.0689 105.405 18.0689C104.759 18.0689 104.176 17.918 103.658 17.6161C103.143 17.3107 102.735 16.8615 102.433 16.2685C102.134 15.6719 101.985 14.9386 101.985 14.0685C101.985 13.1985 102.133 12.4528 102.427 11.8313C102.726 11.2099 103.134 10.734 103.653 10.4038C104.171 10.07 104.759 9.90305 105.416 9.90305C105.924 9.90305 106.334 9.98828 106.646 10.1587C106.959 10.3256 107.202 10.521 107.376 10.7447C107.554 10.9684 107.69 11.1655 107.786 11.3359H107.903V10.0096H109.464V18.3725C109.464 19.0756 109.301 19.6527 108.974 20.1037C108.647 20.5547 108.205 20.8885 107.648 21.1051C107.094 21.3217 106.469 21.43 105.773 21.43ZM105.757 16.7479C106.215 16.7479 106.602 16.6413 106.918 16.4283C107.237 16.2116 107.479 15.9027 107.642 15.5014C107.809 15.0966 107.893 14.6119 107.893 14.0472C107.893 13.4968 107.811 13.0121 107.648 12.593C107.484 12.174 107.245 11.8473 106.929 11.6129C106.612 11.375 106.222 11.256 105.757 11.256C105.277 11.256 104.878 11.3803 104.558 11.6289C104.239 11.8739 103.997 12.2077 103.834 12.6303C103.674 13.0529 103.594 13.5252 103.594 14.0472C103.594 14.5835 103.676 15.054 103.839 15.4588C104.002 15.8636 104.244 16.1797 104.563 16.407C104.887 16.6342 105.284 16.7479 105.757 16.7479ZM121.648 10.1481C121.591 9.64382 121.356 9.2532 120.944 8.97621C120.532 8.69567 120.014 8.5554 119.389 8.5554C118.942 8.5554 118.554 8.62642 118.228 8.76847C117.901 8.90696 117.647 9.09872 117.466 9.34375C117.289 9.58523 117.2 9.86044 117.2 10.1694C117.2 10.4286 117.26 10.6523 117.381 10.8406C117.505 11.0288 117.667 11.1868 117.866 11.3146C118.068 11.4389 118.285 11.5437 118.515 11.6289C118.746 11.7106 118.968 11.7781 119.181 11.8313L120.247 12.1083C120.595 12.1935 120.951 12.3089 121.317 12.4545C121.683 12.6001 122.022 12.7919 122.335 13.0298C122.647 13.2678 122.899 13.5625 123.091 13.9141C123.286 14.2656 123.384 14.6864 123.384 15.1765C123.384 15.7944 123.224 16.343 122.905 16.8224C122.589 17.3018 122.129 17.68 121.525 17.957C120.925 18.234 120.199 18.3725 119.346 18.3725C118.53 18.3725 117.823 18.2429 117.226 17.9837C116.63 17.7244 116.163 17.3569 115.825 16.881C115.488 16.4016 115.302 15.8335 115.266 15.1765H116.917C116.949 15.5707 117.077 15.8991 117.301 16.1619C117.528 16.4212 117.818 16.6147 118.169 16.7425C118.524 16.8668 118.913 16.929 119.336 16.929C119.801 16.929 120.215 16.8562 120.577 16.7106C120.943 16.5614 121.23 16.3555 121.44 16.0927C121.649 15.8263 121.754 15.5156 121.754 15.1605C121.754 14.8374 121.662 14.5728 121.477 14.3668C121.296 14.1609 121.049 13.9904 120.737 13.8555C120.428 13.7205 120.078 13.6016 119.687 13.4986L118.398 13.147C117.525 12.9091 116.832 12.5593 116.321 12.0977C115.813 11.636 115.559 11.0252 115.559 10.2653C115.559 9.63672 115.73 9.08807 116.07 8.61932C116.411 8.15057 116.873 7.78658 117.455 7.52734C118.038 7.26456 118.695 7.13317 119.426 7.13317C120.165 7.13317 120.817 7.26278 121.381 7.52202C121.949 7.78125 122.397 8.13814 122.724 8.59268C123.05 9.04368 123.221 9.56214 123.235 10.1481H121.648ZM128.669 18.3565C127.902 18.3565 127.233 18.1808 126.661 17.8292C126.09 17.4776 125.646 16.9858 125.33 16.3537C125.014 15.7216 124.856 14.983 124.856 14.1378C124.856 13.2891 125.014 12.5469 125.33 11.9112C125.646 11.2756 126.09 10.782 126.661 10.4304C127.233 10.0788 127.902 9.90305 128.669 9.90305C129.436 9.90305 130.106 10.0788 130.678 10.4304C131.249 10.782 131.693 11.2756 132.009 11.9112C132.325 12.5469 132.483 13.2891 132.483 14.1378C132.483 14.983 132.325 15.7216 132.009 16.3537C131.693 16.9858 131.249 17.4776 130.678 17.8292C130.106 18.1808 129.436 18.3565 128.669 18.3565ZM128.675 17.0195C129.172 17.0195 129.584 16.8881 129.911 16.6254C130.237 16.3626 130.479 16.0128 130.635 15.576C130.795 15.1392 130.875 14.658 130.875 14.1325C130.875 13.6104 130.795 13.131 130.635 12.6942C130.479 12.2539 130.237 11.9006 129.911 11.6342C129.584 11.3679 129.172 11.2347 128.675 11.2347C128.174 11.2347 127.759 11.3679 127.428 11.6342C127.102 11.9006 126.858 12.2539 126.699 12.6942C126.542 13.131 126.464 13.6104 126.464 14.1325C126.464 14.658 126.542 15.1392 126.699 15.576C126.858 16.0128 127.102 16.3626 127.428 16.6254C127.759 16.8881 128.174 17.0195 128.675 17.0195ZM137.708 18.3565C136.94 18.3565 136.271 18.1808 135.699 17.8292C135.128 17.4776 134.684 16.9858 134.368 16.3537C134.052 15.7216 133.894 14.983 133.894 14.1378C133.894 13.2891 134.052 12.5469 134.368 11.9112C134.684 11.2756 135.128 10.782 135.699 10.4304C136.271 10.0788 136.94 9.90305 137.708 9.90305C138.475 9.90305 139.144 10.0788 139.716 10.4304C140.287 10.782 140.731 11.2756 141.047 11.9112C141.363 12.5469 141.521 13.2891 141.521 14.1378C141.521 14.983 141.363 15.7216 141.047 16.3537C140.731 16.9858 140.287 17.4776 139.716 17.8292C139.144 18.1808 138.475 18.3565 137.708 18.3565ZM137.713 17.0195C138.21 17.0195 138.622 16.8881 138.949 16.6254C139.275 16.3626 139.517 16.0128 139.673 15.576C139.833 15.1392 139.913 14.658 139.913 14.1325C139.913 13.6104 139.833 13.131 139.673 12.6942C139.517 12.2539 139.275 11.9006 138.949 11.6342C138.622 11.3679 138.21 11.2347 137.713 11.2347C137.212 11.2347 136.797 11.3679 136.466 11.6342C136.14 11.9006 135.896 12.2539 135.737 12.6942C135.58 13.131 135.502 13.6104 135.502 14.1325C135.502 14.658 135.58 15.1392 135.737 15.576C135.896 16.0128 136.14 16.3626 136.466 16.6254C136.797 16.8881 137.212 17.0195 137.713 17.0195ZM144.892 13.3335V18.1914H143.299V10.0096H144.828V11.3413H144.929C145.117 10.908 145.412 10.56 145.813 10.2972C146.218 10.0344 146.728 9.90305 147.342 9.90305C147.9 9.90305 148.388 10.0202 148.807 10.2546C149.226 10.4854 149.551 10.8299 149.782 11.288C150.013 11.7461 150.128 12.3125 150.128 12.9872V18.1914H148.535V13.179C148.535 12.5859 148.381 12.1225 148.072 11.7887C147.763 11.4513 147.339 11.2827 146.799 11.2827C146.43 11.2827 146.101 11.3626 145.813 11.5224C145.529 11.6822 145.304 11.9165 145.137 12.2255C144.974 12.5309 144.892 12.9002 144.892 13.3335Z" fill="#1E261B"/>
</g>
<defs>
<clipPath id="clip0_2556_123">
<rect width="177.77" height="55.6103" fill="white"/>
</clipPath>
</defs>
</svg>
