<svg width="561" height="616" viewBox="0 0 561 616" fill="none" xmlns="http://www.w3.org/2000/svg">
<rect x="0.6" y="0.6" width="543.8" height="614.8" rx="30.4" fill="white" stroke="white" stroke-width="0.8"/>
<path d="M297 515.5C307.825 515.5 316.6 504.531 316.6 491C316.6 504.531 325.375 515.5 336.2 515.5C325.375 515.5 316.6 526.469 316.6 540C316.6 526.469 307.825 515.5 297 515.5Z" fill="#3B4337"/>
<path d="M398 81.5C408.825 81.5 417.6 70.531 417.6 57C417.6 70.531 426.375 81.5 437.2 81.5C426.375 81.5 417.6 92.469 417.6 106C417.6 92.469 408.825 81.5 398 81.5Z" fill="#EFF6EB"/>
<rect x="77" y="165" width="374" height="223" rx="16" fill="#545C4D" fill-opacity="0.08"/>
<rect x="67" y="140" width="394" height="228" rx="16" fill="url(#paint0_linear_2534_121)"/>
<mask id="mask0_2534_121" style="mask-type:alpha" maskUnits="userSpaceOnUse" x="67" y="140" width="394" height="228">
<rect x="67" y="140" width="394" height="228" rx="20" fill="url(#paint1_linear_2534_121)"/>
</mask>
<g mask="url(#mask0_2534_121)">
<path opacity="0.9" d="M142.019 330.841C170.288 352.874 175.093 395.32 151.303 425.844C127.513 456.367 85.1784 462.073 56.9091 440.04C28.6398 418.007 23.835 375.561 47.6249 345.037C71.4148 314.514 113.75 308.808 142.019 330.841Z" stroke="url(#paint2_linear_2534_121)" stroke-opacity="0.59" stroke-width="22"/>
<circle cx="407.235" cy="179.532" r="80.6471" stroke="url(#paint3_linear_2534_121)" stroke-opacity="0.8" stroke-width="31.6263"/>
</g>
<path fill-rule="evenodd" clip-rule="evenodd" d="M415.667 164H404.278V175.389H414.528V185.639H424.778V194.75H414.528V186.778H406.556V194.75H414.528L414.528 207.277H425.916V197.027H437.305V184.5H425.916V173.111H415.667V164ZM406.555 194.75H402V199.305H406.555V194.75Z" fill="#545C4D"/>
<path d="M95.704 184L91.432 167.2H94.696L98.248 181.96H98.584L102.136 167.2H105.4L101.128 184H95.704ZM107.516 184V172.096H110.54V184H107.516ZM109.028 170.704C108.484 170.704 108.02 170.528 107.636 170.176C107.268 169.824 107.084 169.36 107.084 168.784C107.084 168.208 107.268 167.744 107.636 167.392C108.02 167.04 108.484 166.864 109.028 166.864C109.588 166.864 110.052 167.04 110.42 167.392C110.788 167.744 110.972 168.208 110.972 168.784C110.972 169.36 110.788 169.824 110.42 170.176C110.052 170.528 109.588 170.704 109.028 170.704ZM118.835 184.336C117.283 184.336 116.011 184 115.019 183.328C114.027 182.656 113.427 181.696 113.219 180.448L116.003 179.728C116.115 180.288 116.299 180.728 116.555 181.048C116.827 181.368 117.155 181.6 117.539 181.744C117.939 181.872 118.371 181.936 118.835 181.936C119.539 181.936 120.059 181.816 120.395 181.576C120.731 181.32 120.899 181.008 120.899 180.64C120.899 180.272 120.739 179.992 120.419 179.8C120.099 179.592 119.587 179.424 118.883 179.296L118.211 179.176C117.379 179.016 116.619 178.8 115.931 178.528C115.243 178.24 114.691 177.848 114.275 177.352C113.859 176.856 113.651 176.216 113.651 175.432C113.651 174.248 114.083 173.344 114.947 172.72C115.811 172.08 116.947 171.76 118.355 171.76C119.683 171.76 120.787 172.056 121.667 172.648C122.547 173.24 123.123 174.016 123.395 174.976L120.587 175.84C120.459 175.232 120.195 174.8 119.795 174.544C119.411 174.288 118.931 174.16 118.355 174.16C117.779 174.16 117.339 174.264 117.035 174.472C116.731 174.664 116.579 174.936 116.579 175.288C116.579 175.672 116.739 175.96 117.059 176.152C117.379 176.328 117.811 176.464 118.355 176.56L119.027 176.68C119.923 176.84 120.731 177.056 121.451 177.328C122.187 177.584 122.763 177.96 123.179 178.456C123.611 178.936 123.827 179.592 123.827 180.424C123.827 181.672 123.371 182.64 122.459 183.328C121.563 184 120.355 184.336 118.835 184.336ZM131.013 184.192C130.085 184.192 129.269 183.984 128.565 183.568C127.877 183.136 127.341 182.544 126.957 181.792C126.573 181.04 126.381 180.176 126.381 179.2V172.096H129.405V178.96C129.405 179.856 129.621 180.528 130.053 180.976C130.501 181.424 131.133 181.648 131.949 181.648C132.877 181.648 133.597 181.344 134.109 180.736C134.621 180.112 134.877 179.248 134.877 178.144V172.096H137.901V184H134.925V182.44H134.493C134.301 182.84 133.941 183.232 133.413 183.616C132.885 184 132.085 184.192 131.013 184.192ZM144.962 184.336C144.114 184.336 143.354 184.192 142.682 183.904C142.01 183.6 141.474 183.168 141.074 182.608C140.69 182.032 140.498 181.336 140.498 180.52C140.498 179.704 140.69 179.024 141.074 178.48C141.474 177.92 142.018 177.504 142.706 177.232C143.41 176.944 144.21 176.8 145.106 176.8H148.37V176.128C148.37 175.568 148.194 175.112 147.842 174.76C147.49 174.392 146.93 174.208 146.162 174.208C145.41 174.208 144.85 174.384 144.482 174.736C144.114 175.072 143.874 175.512 143.762 176.056L140.978 175.12C141.17 174.512 141.474 173.96 141.89 173.464C142.322 172.952 142.89 172.544 143.594 172.24C144.314 171.92 145.186 171.76 146.21 171.76C147.778 171.76 149.018 172.152 149.93 172.936C150.842 173.72 151.298 174.856 151.298 176.344V180.784C151.298 181.264 151.522 181.504 151.97 181.504H152.93V184H150.914C150.322 184 149.834 183.856 149.45 183.568C149.066 183.28 148.874 182.896 148.874 182.416V182.392H148.418C148.354 182.584 148.21 182.84 147.986 183.16C147.762 183.464 147.41 183.736 146.93 183.976C146.45 184.216 145.794 184.336 144.962 184.336ZM145.49 181.888C146.338 181.888 147.026 181.656 147.554 181.192C148.098 180.712 148.37 180.08 148.37 179.296V179.056H145.322C144.762 179.056 144.322 179.176 144.002 179.416C143.682 179.656 143.522 179.992 143.522 180.424C143.522 180.856 143.69 181.208 144.026 181.48C144.362 181.752 144.85 181.888 145.49 181.888ZM155.141 184V167.2H158.165V184H155.141ZM173.898 184.336C171.818 184.336 170.17 183.76 168.954 182.608C167.738 181.44 167.13 179.776 167.13 177.616V173.584C167.13 171.424 167.738 169.768 168.954 168.616C170.17 167.448 171.818 166.864 173.898 166.864C175.962 166.864 177.554 167.432 178.674 168.568C179.81 169.688 180.378 171.232 180.378 173.2V173.344H177.258V173.104C177.258 172.112 176.978 171.296 176.418 170.656C175.874 170.016 175.034 169.696 173.898 169.696C172.778 169.696 171.898 170.04 171.258 170.728C170.618 171.416 170.298 172.352 170.298 173.536V177.664C170.298 178.832 170.618 179.768 171.258 180.472C171.898 181.16 172.778 181.504 173.898 181.504C175.034 181.504 175.874 181.184 176.418 180.544C176.978 179.888 177.258 179.072 177.258 178.096V177.664H180.378V178C180.378 179.968 179.81 181.52 178.674 182.656C177.554 183.776 175.962 184.336 173.898 184.336ZM186.751 184.336C185.903 184.336 185.143 184.192 184.471 183.904C183.799 183.6 183.263 183.168 182.863 182.608C182.479 182.032 182.287 181.336 182.287 180.52C182.287 179.704 182.479 179.024 182.863 178.48C183.263 177.92 183.807 177.504 184.495 177.232C185.199 176.944 185.999 176.8 186.895 176.8H190.159V176.128C190.159 175.568 189.983 175.112 189.631 174.76C189.279 174.392 188.719 174.208 187.951 174.208C187.199 174.208 186.639 174.384 186.271 174.736C185.903 175.072 185.663 175.512 185.551 176.056L182.767 175.12C182.959 174.512 183.263 173.96 183.679 173.464C184.111 172.952 184.679 172.544 185.383 172.24C186.103 171.92 186.975 171.76 187.999 171.76C189.567 171.76 190.807 172.152 191.719 172.936C192.631 173.72 193.087 174.856 193.087 176.344V180.784C193.087 181.264 193.311 181.504 193.759 181.504H194.719V184H192.703C192.111 184 191.623 183.856 191.239 183.568C190.855 183.28 190.663 182.896 190.663 182.416V182.392H190.207C190.143 182.584 189.999 182.84 189.775 183.16C189.551 183.464 189.199 183.736 188.719 183.976C188.239 184.216 187.583 184.336 186.751 184.336ZM187.279 181.888C188.127 181.888 188.815 181.656 189.343 181.192C189.887 180.712 190.159 180.08 190.159 179.296V179.056H187.111C186.551 179.056 186.111 179.176 185.791 179.416C185.471 179.656 185.311 179.992 185.311 180.424C185.311 180.856 185.479 181.208 185.815 181.48C186.151 181.752 186.639 181.888 187.279 181.888ZM196.93 184V172.096H199.906V173.44H200.338C200.514 172.96 200.802 172.608 201.202 172.384C201.618 172.16 202.098 172.048 202.642 172.048H204.082V174.736H202.594C201.826 174.736 201.194 174.944 200.698 175.36C200.202 175.76 199.954 176.384 199.954 177.232V184H196.93ZM210.824 184.336C209.88 184.336 208.992 184.104 208.16 183.64C207.344 183.16 206.688 182.464 206.192 181.552C205.696 180.64 205.448 179.536 205.448 178.24V177.856C205.448 176.56 205.696 175.456 206.192 174.544C206.688 173.632 207.344 172.944 208.16 172.48C208.976 172 209.864 171.76 210.824 171.76C211.544 171.76 212.144 171.848 212.624 172.024C213.12 172.184 213.52 172.392 213.824 172.648C214.128 172.904 214.36 173.176 214.52 173.464H214.952V167.2H217.976V184H215V182.56H214.568C214.296 183.008 213.872 183.416 213.296 183.784C212.736 184.152 211.912 184.336 210.824 184.336ZM211.736 181.696C212.664 181.696 213.44 181.4 214.064 180.808C214.688 180.2 215 179.32 215 178.168V177.928C215 176.776 214.688 175.904 214.064 175.312C213.456 174.704 212.68 174.4 211.736 174.4C210.808 174.4 210.032 174.704 209.408 175.312C208.784 175.904 208.472 176.776 208.472 177.928V178.168C208.472 179.32 208.784 180.2 209.408 180.808C210.032 181.4 210.808 181.696 211.736 181.696Z" fill="white"/>
<path d="M93.72 304L91.66 290H93.82L95.5 302.54H95.82L97.98 290H101.76L103.92 302.54H104.24L105.9 290H108.06L106 304H102.22L100.02 291.28H99.7L97.52 304H93.72ZM113.158 304.28C112.451 304.28 111.818 304.16 111.258 303.92C110.711 303.68 110.271 303.327 109.938 302.86C109.618 302.393 109.458 301.827 109.458 301.16C109.458 300.48 109.618 299.92 109.938 299.48C110.271 299.027 110.718 298.687 111.278 298.46C111.851 298.233 112.498 298.12 113.218 298.12H116.218V297.48C116.218 296.907 116.045 296.447 115.698 296.1C115.351 295.753 114.818 295.58 114.098 295.58C113.391 295.58 112.851 295.747 112.478 296.08C112.105 296.413 111.858 296.847 111.738 297.38L109.818 296.76C109.978 296.227 110.231 295.747 110.578 295.32C110.938 294.88 111.411 294.527 111.998 294.26C112.585 293.993 113.291 293.86 114.118 293.86C115.398 293.86 116.405 294.187 117.138 294.84C117.871 295.493 118.238 296.42 118.238 297.62V301.68C118.238 302.08 118.425 302.28 118.798 302.28H119.638V304H118.098C117.631 304 117.251 303.88 116.958 303.64C116.665 303.4 116.518 303.073 116.518 302.66V302.6H116.218C116.111 302.8 115.951 303.033 115.738 303.3C115.525 303.567 115.211 303.8 114.798 304C114.385 304.187 113.838 304.28 113.158 304.28ZM113.458 302.58C114.285 302.58 114.951 302.347 115.458 301.88C115.965 301.4 116.218 300.747 116.218 299.92V299.72H113.338C112.791 299.72 112.351 299.84 112.018 300.08C111.685 300.307 111.518 300.647 111.518 301.1C111.518 301.553 111.691 301.913 112.038 302.18C112.385 302.447 112.858 302.58 113.458 302.58ZM125.487 304.28C124.673 304.28 123.92 304.08 123.227 303.68C122.533 303.28 121.973 302.707 121.547 301.96C121.133 301.2 120.927 300.287 120.927 299.22V298.92C120.927 297.867 121.133 296.96 121.547 296.2C121.96 295.44 122.513 294.86 123.207 294.46C123.9 294.06 124.66 293.86 125.487 293.86C126.127 293.86 126.66 293.94 127.087 294.1C127.527 294.26 127.887 294.467 128.167 294.72C128.447 294.96 128.66 295.213 128.807 295.48H129.127V290H131.187V304H129.167V302.6H128.847C128.593 303.027 128.207 303.413 127.687 303.76C127.18 304.107 126.447 304.28 125.487 304.28ZM126.067 302.48C126.96 302.48 127.693 302.193 128.267 301.62C128.853 301.047 129.147 300.227 129.147 299.16V298.98C129.147 297.927 128.86 297.113 128.287 296.54C127.713 295.967 126.973 295.68 126.067 295.68C125.187 295.68 124.453 295.967 123.867 296.54C123.293 297.113 123.007 297.927 123.007 298.98V299.16C123.007 300.227 123.293 301.047 123.867 301.62C124.453 302.193 125.187 302.48 126.067 302.48ZM138.739 304.28C137.739 304.28 136.866 304.073 136.119 303.66C135.373 303.233 134.786 302.64 134.359 301.88C133.946 301.107 133.739 300.213 133.739 299.2V298.96C133.739 297.933 133.946 297.04 134.359 296.28C134.773 295.507 135.346 294.913 136.079 294.5C136.826 294.073 137.686 293.86 138.659 293.86C139.606 293.86 140.433 294.073 141.139 294.5C141.859 294.913 142.419 295.493 142.819 296.24C143.219 296.987 143.419 297.86 143.419 298.86V299.64H135.839C135.866 300.507 136.153 301.2 136.699 301.72C137.259 302.227 137.953 302.48 138.779 302.48C139.553 302.48 140.133 302.307 140.519 301.96C140.919 301.613 141.226 301.213 141.439 300.76L143.139 301.64C142.953 302.013 142.679 302.407 142.319 302.82C141.973 303.233 141.513 303.58 140.939 303.86C140.366 304.14 139.633 304.28 138.739 304.28ZM135.859 298.06H141.319C141.266 297.313 140.999 296.733 140.519 296.32C140.039 295.893 139.413 295.68 138.639 295.68C137.866 295.68 137.233 295.893 136.739 296.32C136.259 296.733 135.966 297.313 135.859 298.06ZM152.06 304L150 290H152.16L153.84 302.54H154.16L156.32 290H160.1L162.26 302.54H162.58L164.24 290H166.4L164.34 304H160.56L158.36 291.28H158.04L155.86 304H152.06ZM171.498 304.28C170.791 304.28 170.158 304.16 169.598 303.92C169.051 303.68 168.611 303.327 168.278 302.86C167.958 302.393 167.798 301.827 167.798 301.16C167.798 300.48 167.958 299.92 168.278 299.48C168.611 299.027 169.058 298.687 169.618 298.46C170.191 298.233 170.838 298.12 171.558 298.12H174.558V297.48C174.558 296.907 174.385 296.447 174.038 296.1C173.691 295.753 173.158 295.58 172.438 295.58C171.731 295.58 171.191 295.747 170.818 296.08C170.445 296.413 170.198 296.847 170.078 297.38L168.158 296.76C168.318 296.227 168.571 295.747 168.918 295.32C169.278 294.88 169.751 294.527 170.338 294.26C170.925 293.993 171.631 293.86 172.458 293.86C173.738 293.86 174.745 294.187 175.478 294.84C176.211 295.493 176.578 296.42 176.578 297.62V301.68C176.578 302.08 176.765 302.28 177.138 302.28H177.978V304H176.438C175.971 304 175.591 303.88 175.298 303.64C175.005 303.4 174.858 303.073 174.858 302.66V302.6H174.558C174.451 302.8 174.291 303.033 174.078 303.3C173.865 303.567 173.551 303.8 173.138 304C172.725 304.187 172.178 304.28 171.498 304.28ZM171.798 302.58C172.625 302.58 173.291 302.347 173.798 301.88C174.305 301.4 174.558 300.747 174.558 299.92V299.72H171.678C171.131 299.72 170.691 299.84 170.358 300.08C170.025 300.307 169.858 300.647 169.858 301.1C169.858 301.553 170.031 301.913 170.378 302.18C170.725 302.447 171.198 302.58 171.798 302.58ZM179.981 304V294.14H182.001V295.3H182.321C182.481 294.887 182.734 294.587 183.081 294.4C183.441 294.2 183.881 294.1 184.401 294.1H185.581V295.96H184.321C183.654 295.96 183.108 296.147 182.681 296.52C182.254 296.88 182.041 297.44 182.041 298.2V304H179.981ZM187.715 304V294.14H189.735V295.3H190.055C190.215 294.887 190.469 294.587 190.815 294.4C191.175 294.2 191.615 294.1 192.135 294.1H193.315V295.96H192.055C191.389 295.96 190.842 296.147 190.415 296.52C189.989 296.88 189.775 297.44 189.775 298.2V304H187.715ZM199.618 304.28C198.618 304.28 197.745 304.073 196.998 303.66C196.251 303.233 195.665 302.64 195.238 301.88C194.825 301.107 194.618 300.213 194.618 299.2V298.96C194.618 297.933 194.825 297.04 195.238 296.28C195.651 295.507 196.225 294.913 196.958 294.5C197.705 294.073 198.565 293.86 199.538 293.86C200.485 293.86 201.311 294.073 202.018 294.5C202.738 294.913 203.298 295.493 203.698 296.24C204.098 296.987 204.298 297.86 204.298 298.86V299.64H196.718C196.745 300.507 197.031 301.2 197.578 301.72C198.138 302.227 198.831 302.48 199.658 302.48C200.431 302.48 201.011 302.307 201.398 301.96C201.798 301.613 202.105 301.213 202.318 300.76L204.018 301.64C203.831 302.013 203.558 302.407 203.198 302.82C202.851 303.233 202.391 303.58 201.818 303.86C201.245 304.14 200.511 304.28 199.618 304.28ZM196.738 298.06H202.198C202.145 297.313 201.878 296.733 201.398 296.32C200.918 295.893 200.291 295.68 199.518 295.68C198.745 295.68 198.111 295.893 197.618 296.32C197.138 296.733 196.845 297.313 196.738 298.06ZM206.778 304V294.14H208.798V295.62H209.118C209.304 295.22 209.638 294.847 210.118 294.5C210.598 294.153 211.311 293.98 212.258 293.98C213.004 293.98 213.664 294.147 214.238 294.48C214.824 294.813 215.284 295.287 215.618 295.9C215.951 296.5 216.118 297.227 216.118 298.08V304H214.058V298.24C214.058 297.387 213.844 296.76 213.418 296.36C212.991 295.947 212.404 295.74 211.658 295.74C210.804 295.74 210.118 296.02 209.598 296.58C209.091 297.14 208.838 297.953 208.838 299.02V304H206.778Z" fill="white"/>
<path d="M92.08 330.248V328.712H94.048L95.728 328.976L95.848 328.688L94.48 327.68L93.088 326.288L94.168 325.208L95.56 326.576L96.568 327.968L96.856 327.848L96.592 326.144V324.2H98.128V326.144L97.864 327.848L98.152 327.968L99.16 326.576L100.552 325.208L101.632 326.288L100.264 327.68L98.872 328.688L98.992 328.976L100.672 328.712H102.64V330.248H100.672L98.992 329.984L98.872 330.272L100.264 331.28L101.632 332.672L100.552 333.752L99.16 332.36L98.152 330.968L97.864 331.088L98.128 332.792V334.736H96.592V332.792L96.856 331.088L96.568 330.968L95.56 332.36L94.168 333.752L93.088 332.672L94.48 331.28L95.848 330.272L95.728 329.984L94.048 330.248H92.08ZM104.807 330.248V328.712H106.775L108.455 328.976L108.575 328.688L107.207 327.68L105.815 326.288L106.895 325.208L108.287 326.576L109.295 327.968L109.583 327.848L109.319 326.144V324.2H110.855V326.144L110.591 327.848L110.879 327.968L111.887 326.576L113.279 325.208L114.359 326.288L112.991 327.68L111.599 328.688L111.719 328.976L113.399 328.712H115.367V330.248H113.399L111.719 329.984L111.599 330.272L112.991 331.28L114.359 332.672L113.279 333.752L111.887 332.36L110.879 330.968L110.591 331.088L110.855 332.792V334.736H109.319V332.792L109.583 331.088L109.295 330.968L108.287 332.36L106.895 333.752L105.815 332.672L107.207 331.28L108.575 330.272L108.455 329.984L106.775 330.248H104.807ZM117.533 330.248V328.712H119.501L121.181 328.976L121.301 328.688L119.933 327.68L118.541 326.288L119.621 325.208L121.013 326.576L122.021 327.968L122.309 327.848L122.045 326.144V324.2H123.581V326.144L123.317 327.848L123.605 327.968L124.613 326.576L126.005 325.208L127.085 326.288L125.717 327.68L124.325 328.688L124.445 328.976L126.125 328.712H128.093V330.248H126.125L124.445 329.984L124.325 330.272L125.717 331.28L127.085 332.672L126.005 333.752L124.613 332.36L123.605 330.968L123.317 331.088L123.581 332.792V334.736H122.045V332.792L122.309 331.088L122.021 330.968L121.013 332.36L119.621 333.752L118.541 332.672L119.933 331.28L121.301 330.272L121.181 329.984L119.501 330.248H117.533ZM130.26 330.248V328.712H132.228L133.908 328.976L134.028 328.688L132.66 327.68L131.268 326.288L132.348 325.208L133.74 326.576L134.748 327.968L135.036 327.848L134.772 326.144V324.2H136.308V326.144L136.044 327.848L136.332 327.968L137.34 326.576L138.732 325.208L139.812 326.288L138.444 327.68L137.052 328.688L137.172 328.976L138.852 328.712H140.82V330.248H138.852L137.172 329.984L137.052 330.272L138.444 331.28L139.812 332.672L138.732 333.752L137.34 332.36L136.332 330.968L136.044 331.088L136.308 332.792V334.736H134.772V332.792L135.036 331.088L134.748 330.968L133.74 332.36L132.348 333.752L131.268 332.672L132.66 331.28L134.028 330.272L133.908 329.984L132.228 330.248H130.26ZM149.103 330.248V328.712H151.071L152.751 328.976L152.871 328.688L151.503 327.68L150.111 326.288L151.191 325.208L152.583 326.576L153.591 327.968L153.879 327.848L153.615 326.144V324.2H155.151V326.144L154.887 327.848L155.175 327.968L156.183 326.576L157.575 325.208L158.655 326.288L157.287 327.68L155.895 328.688L156.015 328.976L157.695 328.712H159.663V330.248H157.695L156.015 329.984L155.895 330.272L157.287 331.28L158.655 332.672L157.575 333.752L156.183 332.36L155.175 330.968L154.887 331.088L155.151 332.792V334.736H153.615V332.792L153.879 331.088L153.591 330.968L152.583 332.36L151.191 333.752L150.111 332.672L151.503 331.28L152.871 330.272L152.751 329.984L151.071 330.248H149.103ZM161.83 330.248V328.712H163.798L165.478 328.976L165.598 328.688L164.23 327.68L162.838 326.288L163.918 325.208L165.31 326.576L166.318 327.968L166.606 327.848L166.342 326.144V324.2H167.878V326.144L167.614 327.848L167.902 327.968L168.91 326.576L170.302 325.208L171.382 326.288L170.014 327.68L168.622 328.688L168.742 328.976L170.422 328.712H172.39V330.248H170.422L168.742 329.984L168.622 330.272L170.014 331.28L171.382 332.672L170.302 333.752L168.91 332.36L167.902 330.968L167.614 331.088L167.878 332.792V334.736H166.342V332.792L166.606 331.088L166.318 330.968L165.31 332.36L163.918 333.752L162.838 332.672L164.23 331.28L165.598 330.272L165.478 329.984L163.798 330.248H161.83ZM174.557 330.248V328.712H176.525L178.205 328.976L178.325 328.688L176.957 327.68L175.565 326.288L176.645 325.208L178.037 326.576L179.045 327.968L179.333 327.848L179.069 326.144V324.2H180.605V326.144L180.341 327.848L180.629 327.968L181.637 326.576L183.029 325.208L184.109 326.288L182.741 327.68L181.349 328.688L181.469 328.976L183.149 328.712H185.117V330.248H183.149L181.469 329.984L181.349 330.272L182.741 331.28L184.109 332.672L183.029 333.752L181.637 332.36L180.629 330.968L180.341 331.088L180.605 332.792V334.736H179.069V332.792L179.333 331.088L179.045 330.968L178.037 332.36L176.645 333.752L175.565 332.672L176.957 331.28L178.325 330.272L178.205 329.984L176.525 330.248H174.557ZM187.283 330.248V328.712H189.251L190.931 328.976L191.051 328.688L189.683 327.68L188.291 326.288L189.371 325.208L190.763 326.576L191.771 327.968L192.059 327.848L191.795 326.144V324.2H193.331V326.144L193.067 327.848L193.355 327.968L194.363 326.576L195.755 325.208L196.835 326.288L195.467 327.68L194.075 328.688L194.195 328.976L195.875 328.712H197.843V330.248H195.875L194.195 329.984L194.075 330.272L195.467 331.28L196.835 332.672L195.755 333.752L194.363 332.36L193.355 330.968L193.067 331.088L193.331 332.792V334.736H191.795V332.792L192.059 331.088L191.771 330.968L190.763 332.36L189.371 333.752L188.291 332.672L189.683 331.28L191.051 330.272L190.931 329.984L189.251 330.248H187.283ZM206.127 330.248V328.712H208.095L209.775 328.976L209.895 328.688L208.527 327.68L207.135 326.288L208.215 325.208L209.607 326.576L210.615 327.968L210.903 327.848L210.639 326.144V324.2H212.175V326.144L211.911 327.848L212.199 327.968L213.207 326.576L214.599 325.208L215.679 326.288L214.311 327.68L212.919 328.688L213.039 328.976L214.719 328.712H216.687V330.248H214.719L213.039 329.984L212.919 330.272L214.311 331.28L215.679 332.672L214.599 333.752L213.207 332.36L212.199 330.968L211.911 331.088L212.175 332.792V334.736H210.639V332.792L210.903 331.088L210.615 330.968L209.607 332.36L208.215 333.752L207.135 332.672L208.527 331.28L209.895 330.272L209.775 329.984L208.095 330.248H206.127ZM218.853 330.248V328.712H220.821L222.501 328.976L222.621 328.688L221.253 327.68L219.861 326.288L220.941 325.208L222.333 326.576L223.341 327.968L223.629 327.848L223.365 326.144V324.2H224.901V326.144L224.637 327.848L224.925 327.968L225.933 326.576L227.325 325.208L228.405 326.288L227.037 327.68L225.645 328.688L225.765 328.976L227.445 328.712H229.413V330.248H227.445L225.765 329.984L225.645 330.272L227.037 331.28L228.405 332.672L227.325 333.752L225.933 332.36L224.925 330.968L224.637 331.088L224.901 332.792V334.736H223.365V332.792L223.629 331.088L223.341 330.968L222.333 332.36L220.941 333.752L219.861 332.672L221.253 331.28L222.621 330.272L222.501 329.984L220.821 330.248H218.853ZM231.58 330.248V328.712H233.548L235.228 328.976L235.348 328.688L233.98 327.68L232.588 326.288L233.668 325.208L235.06 326.576L236.068 327.968L236.356 327.848L236.092 326.144V324.2H237.628V326.144L237.364 327.848L237.652 327.968L238.66 326.576L240.052 325.208L241.132 326.288L239.764 327.68L238.372 328.688L238.492 328.976L240.172 328.712H242.14V330.248H240.172L238.492 329.984L238.372 330.272L239.764 331.28L241.132 332.672L240.052 333.752L238.66 332.36L237.652 330.968L237.364 331.088L237.628 332.792V334.736H236.092V332.792L236.356 331.088L236.068 330.968L235.06 332.36L233.668 333.752L232.588 332.672L233.98 331.28L235.348 330.272L235.228 329.984L233.548 330.248H231.58ZM244.307 330.248V328.712H246.275L247.955 328.976L248.075 328.688L246.707 327.68L245.315 326.288L246.395 325.208L247.787 326.576L248.795 327.968L249.083 327.848L248.819 326.144V324.2H250.355V326.144L250.091 327.848L250.379 327.968L251.387 326.576L252.779 325.208L253.859 326.288L252.491 327.68L251.099 328.688L251.219 328.976L252.899 328.712H254.867V330.248H252.899L251.219 329.984L251.099 330.272L252.491 331.28L253.859 332.672L252.779 333.752L251.387 332.36L250.379 330.968L250.091 331.088L250.355 332.792V334.736H248.819V332.792L249.083 331.088L248.795 330.968L247.787 332.36L246.395 333.752L245.315 332.672L246.707 331.28L248.075 330.272L247.955 329.984L246.275 330.248H244.307ZM268.238 341V325.976H267.854L265.094 331.64H262.43L266.15 324.2H270.758V341H268.238ZM273.652 341V339.104C273.652 337.936 273.852 336.976 274.252 336.224C274.652 335.472 275.22 334.864 275.956 334.4C276.708 333.92 277.612 333.52 278.668 333.2L280.132 332.744C280.788 332.536 281.348 332.28 281.812 331.976C282.292 331.672 282.66 331.296 282.916 330.848C283.172 330.384 283.3 329.848 283.3 329.24V329.144C283.3 328.2 282.98 327.464 282.34 326.936C281.7 326.392 280.86 326.12 279.82 326.12C278.748 326.12 277.876 326.408 277.204 326.984C276.548 327.56 276.22 328.408 276.22 329.528V329.912H273.724V329.552C273.724 328.336 273.988 327.312 274.516 326.48C275.044 325.632 275.772 324.984 276.7 324.536C277.628 324.088 278.668 323.864 279.82 323.864C280.972 323.864 281.996 324.08 282.892 324.512C283.804 324.944 284.516 325.552 285.028 326.336C285.556 327.12 285.82 328.04 285.82 329.096V329.312C285.82 330.4 285.604 331.304 285.172 332.024C284.74 332.744 284.14 333.336 283.372 333.8C282.62 334.264 281.748 334.656 280.756 334.976L279.34 335.408C278.588 335.632 277.98 335.88 277.516 336.152C277.068 336.408 276.732 336.72 276.508 337.088C276.3 337.456 276.196 337.928 276.196 338.504V338.744H285.676V341H273.652ZM294.093 341.336C292.861 341.336 291.765 341.112 290.805 340.664C289.845 340.216 289.093 339.568 288.549 338.72C288.021 337.872 287.757 336.864 287.757 335.696V335.264H290.277V335.648C290.277 336.704 290.621 337.544 291.309 338.168C292.013 338.776 292.941 339.08 294.093 339.08C295.245 339.08 296.141 338.792 296.781 338.216C297.421 337.64 297.741 336.912 297.741 336.032V335.816C297.741 335.192 297.589 334.688 297.285 334.304C296.981 333.92 296.573 333.64 296.061 333.464C295.549 333.272 294.973 333.176 294.333 333.176H291.285V330.272L297.189 326.792V326.456H288.165V324.2H299.925V327.608L294.285 330.968V331.304H295.317C296.165 331.304 296.965 331.464 297.717 331.784C298.469 332.104 299.077 332.592 299.541 333.248C300.021 333.904 300.261 334.736 300.261 335.744V336.032C300.261 337.104 300.005 338.04 299.493 338.84C298.981 339.624 298.261 340.24 297.333 340.688C296.405 341.12 295.325 341.336 294.093 341.336ZM310.544 341V337.568H302.048V334.64L308.48 324.2H313.064V335.336H315.896V337.568H313.064V341H310.544ZM304.496 335.336H310.544V325.784H310.16L304.496 335V335.336Z" fill="white"/>
<g filter="url(#filter0_d_2534_121)">
<rect x="347" y="309" width="180" height="108" rx="18" fill="white" shape-rendering="crispEdges"/>
<rect x="347.5" y="309.5" width="179" height="107" rx="17.5" stroke="#1E261B" stroke-opacity="0.06" shape-rendering="crispEdges"/>
<path d="M376.814 340.065C376.769 339.662 376.581 339.349 376.252 339.128C375.922 338.903 375.508 338.791 375.008 338.791C374.65 338.791 374.34 338.848 374.079 338.962C373.817 339.072 373.614 339.226 373.469 339.422C373.327 339.615 373.256 339.835 373.256 340.082C373.256 340.29 373.305 340.469 373.401 340.619C373.501 340.77 373.63 340.896 373.789 340.999C373.951 341.098 374.124 341.182 374.309 341.25C374.493 341.315 374.671 341.369 374.841 341.412L375.694 341.634C375.972 341.702 376.258 341.794 376.55 341.911C376.843 342.027 377.114 342.18 377.364 342.371C377.614 342.561 377.816 342.797 377.969 343.078C378.126 343.359 378.204 343.696 378.204 344.088C378.204 344.582 378.076 345.021 377.82 345.405C377.567 345.788 377.199 346.091 376.716 346.313C376.236 346.534 375.655 346.645 374.974 346.645C374.32 346.645 373.755 346.541 373.278 346.334C372.8 346.126 372.427 345.832 372.157 345.452C371.887 345.068 371.738 344.614 371.709 344.088H373.03C373.056 344.403 373.158 344.666 373.337 344.876C373.519 345.084 373.751 345.239 374.032 345.341C374.316 345.44 374.627 345.49 374.965 345.49C375.337 345.49 375.668 345.432 375.958 345.315C376.251 345.196 376.481 345.031 376.648 344.821C376.816 344.608 376.9 344.359 376.9 344.075C376.9 343.817 376.826 343.605 376.678 343.44C376.533 343.276 376.336 343.139 376.086 343.031C375.839 342.923 375.559 342.828 375.246 342.746L374.215 342.464C373.516 342.274 372.962 341.994 372.553 341.625C372.147 341.256 371.944 340.767 371.944 340.159C371.944 339.656 372.08 339.217 372.353 338.842C372.626 338.467 372.995 338.176 373.461 337.969C373.927 337.759 374.452 337.653 375.037 337.653C375.628 337.653 376.15 337.757 376.601 337.964C377.056 338.172 377.414 338.457 377.675 338.821C377.937 339.182 378.073 339.597 378.084 340.065H376.814ZM379.675 348.955V339.955H380.919V341.016H381.026C381.1 340.879 381.206 340.722 381.345 340.543C381.485 340.364 381.678 340.207 381.925 340.074C382.172 339.938 382.499 339.869 382.905 339.869C383.433 339.869 383.905 340.003 384.32 340.27C384.735 340.537 385.06 340.922 385.296 341.425C385.534 341.928 385.654 342.533 385.654 343.24C385.654 343.947 385.536 344.554 385.3 345.06C385.064 345.563 384.74 345.95 384.328 346.223C383.916 346.493 383.446 346.628 382.918 346.628C382.52 346.628 382.195 346.561 381.942 346.428C381.692 346.294 381.496 346.138 381.354 345.959C381.212 345.78 381.102 345.621 381.026 345.482H380.949V348.955H379.675ZM380.923 343.227C380.923 343.688 380.99 344.091 381.124 344.438C381.257 344.784 381.45 345.055 381.703 345.251C381.956 345.445 382.266 345.541 382.632 345.541C383.013 345.541 383.331 345.44 383.587 345.239C383.843 345.034 384.036 344.757 384.166 344.408C384.3 344.058 384.367 343.665 384.367 343.227C384.367 342.795 384.301 342.408 384.171 342.064C384.043 341.72 383.85 341.449 383.591 341.25C383.335 341.051 383.016 340.952 382.632 340.952C382.263 340.952 381.95 341.047 381.695 341.237C381.442 341.428 381.25 341.693 381.119 342.034C380.989 342.375 380.923 342.773 380.923 343.227ZM389.902 346.632C389.257 346.632 388.702 346.494 388.236 346.219C387.773 345.94 387.415 345.55 387.162 345.047C386.912 344.541 386.787 343.949 386.787 343.27C386.787 342.599 386.912 342.009 387.162 341.497C387.415 340.986 387.767 340.587 388.219 340.3C388.673 340.013 389.205 339.869 389.813 339.869C390.182 339.869 390.54 339.93 390.887 340.053C391.233 340.175 391.544 340.366 391.82 340.628C392.095 340.889 392.313 341.229 392.472 341.646C392.631 342.061 392.71 342.565 392.71 343.159V343.611H387.507V342.656H391.462C391.462 342.321 391.394 342.024 391.257 341.766C391.121 341.504 390.929 341.298 390.682 341.148C390.438 340.997 390.151 340.922 389.821 340.922C389.463 340.922 389.151 341.01 388.884 341.186C388.619 341.359 388.415 341.587 388.27 341.868C388.128 342.146 388.057 342.449 388.057 342.776V343.521C388.057 343.959 388.134 344.331 388.287 344.638C388.443 344.945 388.661 345.179 388.939 345.341C389.218 345.5 389.543 345.58 389.915 345.58C390.156 345.58 390.377 345.545 390.575 345.477C390.774 345.406 390.946 345.301 391.091 345.162C391.236 345.023 391.347 344.851 391.423 344.646L392.629 344.864C392.533 345.219 392.36 345.53 392.11 345.797C391.862 346.061 391.551 346.267 391.176 346.415C390.804 346.56 390.379 346.632 389.902 346.632ZM395.398 342.614V346.5H394.124V339.955H395.347V341.02H395.428C395.579 340.673 395.814 340.395 396.135 340.185C396.459 339.974 396.867 339.869 397.358 339.869C397.805 339.869 398.195 339.963 398.53 340.151C398.866 340.335 399.126 340.611 399.31 340.977C399.495 341.344 399.587 341.797 399.587 342.337V346.5H398.313V342.49C398.313 342.016 398.189 341.645 397.942 341.378C397.695 341.108 397.356 340.973 396.924 340.973C396.628 340.973 396.366 341.037 396.135 341.165C395.908 341.293 395.728 341.48 395.594 341.727C395.464 341.972 395.398 342.267 395.398 342.614ZM404.351 339.955V340.977H400.776V339.955H404.351ZM401.735 338.386H403.009V344.578C403.009 344.825 403.046 345.011 403.12 345.136C403.194 345.259 403.289 345.342 403.405 345.388C403.525 345.43 403.654 345.452 403.793 345.452C403.895 345.452 403.985 345.445 404.062 345.43C404.138 345.416 404.198 345.405 404.241 345.396L404.471 346.449C404.397 346.477 404.292 346.506 404.155 346.534C404.019 346.565 403.849 346.582 403.644 346.585C403.309 346.591 402.996 346.531 402.707 346.406C402.417 346.281 402.182 346.088 402.003 345.827C401.824 345.565 401.735 345.237 401.735 344.842V338.386Z" fill="#545C4D" fill-opacity="0.8"/>
<path fill-rule="evenodd" clip-rule="evenodd" d="M420 335.063C416.168 335.063 413.062 338.169 413.062 342C413.062 345.831 416.168 348.938 420 348.938C423.831 348.938 426.937 345.831 426.937 342C426.937 338.169 423.831 335.063 420 335.063ZM411.937 342C411.937 337.547 415.547 333.938 420 333.938C424.452 333.938 428.062 337.547 428.062 342C428.062 346.453 424.452 350.063 420 350.063C415.547 350.063 411.937 346.453 411.937 342ZM420 336.938C420.31 336.938 420.562 337.189 420.562 337.5V337.738C421.785 337.957 422.812 338.875 422.812 340.125C422.812 340.436 422.56 340.688 422.25 340.688C421.939 340.688 421.687 340.436 421.687 340.125C421.687 339.492 421.032 338.813 420 338.813C418.967 338.813 418.312 339.492 418.312 340.125C418.312 340.758 418.967 341.438 420 341.438C421.452 341.438 422.812 342.437 422.812 343.875C422.812 345.125 421.785 346.043 420.562 346.262V346.5C420.562 346.811 420.31 347.063 420 347.063C419.689 347.063 419.437 346.811 419.437 346.5V346.262C418.214 346.043 417.187 345.125 417.187 343.875C417.187 343.564 417.439 343.313 417.75 343.313C418.06 343.313 418.312 343.564 418.312 343.875C418.312 344.508 418.967 345.188 420 345.188C421.032 345.188 421.687 344.508 421.687 343.875C421.687 343.242 421.032 342.563 420 342.563C418.547 342.563 417.187 341.563 417.187 340.125C417.187 338.875 418.214 337.957 419.437 337.738V337.5C419.437 337.189 419.689 336.938 420 336.938Z" fill="#FC7E54"/>
<path d="M378.416 386.336C377.12 386.336 375.976 386.104 374.984 385.64C373.992 385.176 373.216 384.512 372.656 383.648C372.096 382.784 371.816 381.744 371.816 380.528V379.856H374.936V380.528C374.936 381.536 375.248 382.296 375.872 382.808C376.496 383.304 377.344 383.552 378.416 383.552C379.504 383.552 380.312 383.336 380.84 382.904C381.384 382.472 381.656 381.92 381.656 381.248C381.656 380.784 381.528 380.408 381.272 380.12C381.016 379.832 380.64 379.6 380.144 379.424C379.648 379.232 379.04 379.056 378.32 378.896L377.768 378.776C376.616 378.52 375.624 378.2 374.792 377.816C373.976 377.416 373.344 376.896 372.896 376.256C372.464 375.616 372.248 374.784 372.248 373.76C372.248 372.736 372.488 371.864 372.968 371.144C373.464 370.408 374.152 369.848 375.032 369.464C375.928 369.064 376.976 368.864 378.176 368.864C379.376 368.864 380.44 369.072 381.368 369.488C382.312 369.888 383.048 370.496 383.576 371.312C384.12 372.112 384.392 373.12 384.392 374.336V375.056H381.272V374.336C381.272 373.696 381.144 373.184 380.888 372.8C380.648 372.4 380.296 372.112 379.832 371.936C379.368 371.744 378.816 371.648 378.176 371.648C377.216 371.648 376.504 371.832 376.04 372.2C375.592 372.552 375.368 373.04 375.368 373.664C375.368 374.08 375.472 374.432 375.68 374.72C375.904 375.008 376.232 375.248 376.664 375.44C377.096 375.632 377.648 375.8 378.32 375.944L378.872 376.064C380.072 376.32 381.112 376.648 381.992 377.048C382.872 377.448 383.552 377.976 384.032 378.632C384.528 379.288 384.776 380.128 384.776 381.152C384.776 382.176 384.512 383.08 383.984 383.864C383.472 384.632 382.736 385.24 381.776 385.688C380.832 386.12 379.712 386.336 378.416 386.336ZM376.952 388.784V366.416H379.832V388.784H376.952ZM391.747 386V371.456H391.315L389.059 376.784H385.843L389.275 369.2H394.819V386H391.747ZM402.598 386V371.456H402.166L399.91 376.784H396.694L400.126 369.2H405.67V386H402.598ZM416.138 386V382.592H407.882V379.04L413.69 369.2H419.21V379.856H421.994V382.592H419.21V386H416.138ZM410.81 379.856H416.138V371.168H415.706L410.81 379.472V379.856Z" fill="#1E261B"/>
<path d="M426.092 386.336C425.452 386.336 424.908 386.128 424.46 385.712C424.028 385.28 423.812 384.728 423.812 384.056C423.812 383.384 424.028 382.84 424.46 382.424C424.908 381.992 425.452 381.776 426.092 381.776C426.748 381.776 427.292 381.992 427.724 382.424C428.156 382.84 428.372 383.384 428.372 384.056C428.372 384.728 428.156 385.28 427.724 385.712C427.292 386.128 426.748 386.336 426.092 386.336ZM436.96 386.336C435.696 386.336 434.576 386.112 433.6 385.664C432.624 385.216 431.856 384.576 431.296 383.744C430.752 382.896 430.48 381.896 430.48 380.744V380.312H433.552V380.648C433.552 381.544 433.864 382.264 434.488 382.808C435.112 383.336 435.936 383.6 436.96 383.6C438 383.6 438.8 383.352 439.36 382.856C439.936 382.36 440.224 381.736 440.224 380.984V380.744C440.224 380.232 440.096 379.816 439.84 379.496C439.584 379.176 439.24 378.944 438.808 378.8C438.376 378.64 437.888 378.56 437.344 378.56H433.984V375.2L439.408 372.32V371.936H430.912V369.2H442.816V373.28L437.752 375.968V376.352H438.64C439.392 376.352 440.12 376.504 440.824 376.808C441.544 377.112 442.136 377.584 442.6 378.224C443.064 378.848 443.296 379.664 443.296 380.672V380.96C443.296 382.048 443.032 383 442.504 383.816C441.976 384.616 441.232 385.24 440.272 385.688C439.328 386.12 438.224 386.336 436.96 386.336ZM453.146 386V382.592H444.89V379.04L450.698 369.2H456.218V379.856H459.002V382.592H456.218V386H453.146ZM447.818 379.856H453.146V371.168H452.714L447.818 379.472V379.856ZM461.107 386V369.2H464.275V375.872H464.707L470.155 369.2H474.211L467.203 377.48L474.451 386H470.275L464.707 379.184H464.275V386H461.107Z" fill="#1E261B" fill-opacity="0.6"/>
</g>
<g filter="url(#filter1_d_2534_121)">
<path d="M67 450C67 440.059 75.0589 432 85 432H229C238.941 432 247 440.059 247 450V522C247 531.941 238.941 540 229 540H85C75.0589 540 67 531.941 67 522V450Z" fill="white" shape-rendering="crispEdges"/>
<path d="M67.5 450C67.5 440.335 75.335 432.5 85 432.5H229C238.665 432.5 246.5 440.335 246.5 450V522C246.5 531.665 238.665 539.5 229 539.5H85C75.335 539.5 67.5 531.665 67.5 522V450Z" stroke="#1E261B" stroke-opacity="0.06" shape-rendering="crispEdges"/>
<path d="M92.9854 461.906V460.773H99.7397V461.906H97.0167V469.5H95.7042V461.906H92.9854ZM102.938 469.632C102.324 469.632 101.789 469.491 101.331 469.21C100.874 468.929 100.519 468.536 100.266 468.03C100.013 467.524 99.8867 466.933 99.8867 466.257C99.8867 465.578 100.013 464.984 100.266 464.476C100.519 463.967 100.874 463.572 101.331 463.291C101.789 463.01 102.324 462.869 102.938 462.869C103.551 462.869 104.087 463.01 104.544 463.291C105.002 463.572 105.357 463.967 105.61 464.476C105.863 464.984 105.989 465.578 105.989 466.257C105.989 466.933 105.863 467.524 105.61 468.03C105.357 468.536 105.002 468.929 104.544 469.21C104.087 469.491 103.551 469.632 102.938 469.632ZM102.942 468.563C103.34 468.563 103.669 468.457 103.931 468.247C104.192 468.037 104.385 467.757 104.51 467.408C104.638 467.058 104.702 466.673 104.702 466.253C104.702 465.835 104.638 465.452 104.51 465.102C104.385 464.75 104.192 464.467 103.931 464.254C103.669 464.041 103.34 463.935 102.942 463.935C102.542 463.935 102.209 464.041 101.945 464.254C101.684 464.467 101.489 464.75 101.361 465.102C101.236 465.452 101.174 465.835 101.174 466.253C101.174 466.673 101.236 467.058 101.361 467.408C101.489 467.757 101.684 468.037 101.945 468.247C102.209 468.457 102.542 468.563 102.942 468.563ZM110.467 462.955V463.977H106.891V462.955H110.467ZM107.85 461.386H109.124V467.578C109.124 467.825 109.161 468.011 109.235 468.136C109.309 468.259 109.404 468.342 109.521 468.388C109.64 468.43 109.769 468.452 109.908 468.452C110.011 468.452 110.1 468.445 110.177 468.43C110.254 468.416 110.313 468.405 110.356 468.396L110.586 469.449C110.512 469.477 110.407 469.506 110.271 469.534C110.134 469.565 109.964 469.582 109.759 469.585C109.424 469.591 109.112 469.531 108.822 469.406C108.532 469.281 108.298 469.088 108.119 468.827C107.94 468.565 107.85 468.237 107.85 467.842V461.386ZM113.781 469.645C113.366 469.645 112.991 469.568 112.656 469.415C112.321 469.259 112.055 469.033 111.859 468.737C111.666 468.442 111.569 468.08 111.569 467.651C111.569 467.281 111.64 466.977 111.782 466.739C111.924 466.5 112.116 466.311 112.358 466.172C112.599 466.033 112.869 465.928 113.167 465.857C113.466 465.786 113.77 465.732 114.079 465.695C114.471 465.649 114.789 465.612 115.034 465.584C115.278 465.553 115.456 465.503 115.566 465.435C115.677 465.366 115.733 465.256 115.733 465.102V465.072C115.733 464.7 115.627 464.412 115.417 464.207C115.21 464.003 114.9 463.901 114.488 463.901C114.059 463.901 113.721 463.996 113.474 464.186C113.23 464.374 113.061 464.582 112.967 464.813L111.77 464.54C111.912 464.142 112.119 463.821 112.392 463.577C112.667 463.33 112.984 463.151 113.342 463.04C113.7 462.926 114.076 462.869 114.471 462.869C114.733 462.869 115.01 462.901 115.302 462.963C115.598 463.023 115.873 463.134 116.129 463.295C116.387 463.457 116.599 463.689 116.764 463.99C116.929 464.288 117.011 464.676 117.011 465.153V469.5H115.767V468.605H115.716C115.633 468.77 115.51 468.932 115.345 469.091C115.18 469.25 114.968 469.382 114.71 469.487C114.451 469.592 114.142 469.645 113.781 469.645ZM114.058 468.622C114.41 468.622 114.711 468.553 114.961 468.413C115.214 468.274 115.406 468.092 115.537 467.868C115.67 467.641 115.737 467.398 115.737 467.139V466.295C115.691 466.341 115.603 466.384 115.473 466.423C115.345 466.46 115.199 466.493 115.034 466.521C114.869 466.547 114.708 466.571 114.552 466.594C114.396 466.614 114.265 466.631 114.16 466.645C113.913 466.676 113.687 466.729 113.483 466.803C113.281 466.876 113.119 466.983 112.997 467.122C112.877 467.259 112.818 467.44 112.818 467.668C112.818 467.983 112.934 468.222 113.167 468.384C113.4 468.543 113.697 468.622 114.058 468.622ZM119.982 460.773V469.5H118.708V460.773H119.982ZM124.974 469.5V460.773H128.17C128.79 460.773 129.303 460.875 129.709 461.08C130.115 461.281 130.419 461.555 130.621 461.902C130.822 462.246 130.923 462.634 130.923 463.065C130.923 463.429 130.857 463.736 130.723 463.986C130.589 464.233 130.411 464.432 130.186 464.582C129.964 464.73 129.72 464.838 129.453 464.906V464.991C129.743 465.006 130.026 465.099 130.301 465.273C130.58 465.443 130.81 465.686 130.991 466.001C131.173 466.317 131.264 466.7 131.264 467.152C131.264 467.598 131.159 467.999 130.949 468.354C130.741 468.706 130.42 468.986 129.986 469.193C129.551 469.398 128.996 469.5 128.32 469.5H124.974ZM126.291 468.371H128.192C128.822 468.371 129.274 468.249 129.547 468.004C129.82 467.76 129.956 467.455 129.956 467.088C129.956 466.813 129.886 466.56 129.747 466.33C129.608 466.099 129.409 465.916 129.151 465.78C128.895 465.643 128.591 465.575 128.239 465.575H126.291V468.371ZM126.291 464.548H128.055C128.351 464.548 128.616 464.491 128.852 464.378C129.091 464.264 129.28 464.105 129.419 463.901C129.561 463.693 129.632 463.449 129.632 463.168C129.632 462.807 129.506 462.504 129.253 462.26C129 462.016 128.612 461.893 128.089 461.893H126.291V464.548ZM134.629 469.645C134.214 469.645 133.839 469.568 133.504 469.415C133.168 469.259 132.903 469.033 132.707 468.737C132.513 468.442 132.417 468.08 132.417 467.651C132.417 467.281 132.488 466.977 132.63 466.739C132.772 466.5 132.964 466.311 133.205 466.172C133.447 466.033 133.717 465.928 134.015 465.857C134.313 465.786 134.617 465.732 134.927 465.695C135.319 465.649 135.637 465.612 135.881 465.584C136.126 465.553 136.303 465.503 136.414 465.435C136.525 465.366 136.58 465.256 136.58 465.102V465.072C136.58 464.7 136.475 464.412 136.265 464.207C136.058 464.003 135.748 463.901 135.336 463.901C134.907 463.901 134.569 463.996 134.322 464.186C134.077 464.374 133.908 464.582 133.815 464.813L132.617 464.54C132.759 464.142 132.967 463.821 133.239 463.577C133.515 463.33 133.832 463.151 134.19 463.04C134.548 462.926 134.924 462.869 135.319 462.869C135.58 462.869 135.857 462.901 136.15 462.963C136.445 463.023 136.721 463.134 136.977 463.295C137.235 463.457 137.447 463.689 137.612 463.99C137.776 464.288 137.859 464.676 137.859 465.153V469.5H136.614V468.605H136.563C136.481 468.77 136.357 468.932 136.192 469.091C136.028 469.25 135.816 469.382 135.558 469.487C135.299 469.592 134.989 469.645 134.629 469.645ZM134.906 468.622C135.258 468.622 135.559 468.553 135.809 468.413C136.062 468.274 136.254 468.092 136.384 467.868C136.518 467.641 136.585 467.398 136.585 467.139V466.295C136.539 466.341 136.451 466.384 136.32 466.423C136.192 466.46 136.046 466.493 135.881 466.521C135.717 466.547 135.556 466.571 135.4 466.594C135.244 466.614 135.113 466.631 135.008 466.645C134.761 466.676 134.535 466.729 134.33 466.803C134.129 466.876 133.967 466.983 133.844 467.122C133.725 467.259 133.665 467.44 133.665 467.668C133.665 467.983 133.782 468.222 134.015 468.384C134.248 468.543 134.545 468.622 134.906 468.622ZM140.83 460.773V469.5H139.556V460.773H140.83ZM144.449 469.645C144.034 469.645 143.659 469.568 143.324 469.415C142.989 469.259 142.723 469.033 142.527 468.737C142.334 468.442 142.237 468.08 142.237 467.651C142.237 467.281 142.308 466.977 142.45 466.739C142.592 466.5 142.784 466.311 143.026 466.172C143.267 466.033 143.537 465.928 143.835 465.857C144.134 465.786 144.438 465.732 144.747 465.695C145.139 465.649 145.457 465.612 145.702 465.584C145.946 465.553 146.124 465.503 146.234 465.435C146.345 465.366 146.401 465.256 146.401 465.102V465.072C146.401 464.7 146.295 464.412 146.085 464.207C145.878 464.003 145.568 463.901 145.156 463.901C144.727 463.901 144.389 463.996 144.142 464.186C143.898 464.374 143.729 464.582 143.635 464.813L142.438 464.54C142.58 464.142 142.787 463.821 143.06 463.577C143.335 463.33 143.652 463.151 144.01 463.04C144.368 462.926 144.744 462.869 145.139 462.869C145.401 462.869 145.678 462.901 145.97 462.963C146.266 463.023 146.541 463.134 146.797 463.295C147.055 463.457 147.267 463.689 147.432 463.99C147.597 464.288 147.679 464.676 147.679 465.153V469.5H146.435V468.605H146.384C146.301 468.77 146.178 468.932 146.013 469.091C145.848 469.25 145.636 469.382 145.378 469.487C145.119 469.592 144.81 469.645 144.449 469.645ZM144.726 468.622C145.078 468.622 145.379 468.553 145.629 468.413C145.882 468.274 146.074 468.092 146.205 467.868C146.338 467.641 146.405 467.398 146.405 467.139V466.295C146.359 466.341 146.271 466.384 146.141 466.423C146.013 466.46 145.866 466.493 145.702 466.521C145.537 466.547 145.376 466.571 145.22 466.594C145.064 466.614 144.933 466.631 144.828 466.645C144.581 466.676 144.355 466.729 144.151 466.803C143.949 466.876 143.787 466.983 143.665 467.122C143.545 467.259 143.486 467.44 143.486 467.668C143.486 467.983 143.602 468.222 143.835 468.384C144.068 468.543 144.365 468.622 144.726 468.622ZM150.65 465.614V469.5H149.376V462.955H150.599V464.02H150.68C150.831 463.673 151.066 463.395 151.387 463.185C151.711 462.974 152.119 462.869 152.61 462.869C153.056 462.869 153.447 462.963 153.782 463.151C154.118 463.335 154.377 463.611 154.562 463.977C154.747 464.344 154.839 464.797 154.839 465.337V469.5H153.565V465.49C153.565 465.016 153.441 464.645 153.194 464.378C152.947 464.108 152.608 463.973 152.176 463.973C151.88 463.973 151.618 464.037 151.387 464.165C151.16 464.293 150.98 464.48 150.846 464.727C150.716 464.972 150.65 465.267 150.65 465.614ZM159.305 469.632C158.672 469.632 158.126 469.489 157.669 469.202C157.214 468.912 156.865 468.513 156.62 468.004C156.376 467.496 156.254 466.913 156.254 466.257C156.254 465.592 156.379 465.006 156.629 464.497C156.879 463.986 157.231 463.587 157.686 463.3C158.14 463.013 158.676 462.869 159.292 462.869C159.789 462.869 160.233 462.962 160.622 463.146C161.011 463.328 161.325 463.584 161.564 463.913C161.805 464.243 161.949 464.628 161.994 465.068H160.754C160.686 464.761 160.529 464.497 160.285 464.276C160.044 464.054 159.72 463.943 159.314 463.943C158.958 463.943 158.647 464.037 158.38 464.224C158.116 464.409 157.91 464.673 157.762 465.017C157.615 465.358 157.541 465.761 157.541 466.227C157.541 466.705 157.613 467.116 157.758 467.463C157.903 467.81 158.108 468.078 158.372 468.268C158.639 468.459 158.953 468.554 159.314 468.554C159.555 468.554 159.774 468.51 159.97 468.422C160.169 468.331 160.335 468.202 160.468 468.034C160.605 467.866 160.7 467.665 160.754 467.429H161.994C161.949 467.852 161.811 468.23 161.581 468.563C161.351 468.895 161.042 469.156 160.656 469.347C160.272 469.537 159.822 469.632 159.305 469.632ZM166.178 469.632C165.533 469.632 164.977 469.494 164.511 469.219C164.048 468.94 163.69 468.55 163.438 468.047C163.188 467.541 163.063 466.949 163.063 466.27C163.063 465.599 163.188 465.009 163.438 464.497C163.69 463.986 164.043 463.587 164.494 463.3C164.949 463.013 165.48 462.869 166.088 462.869C166.457 462.869 166.815 462.93 167.162 463.053C167.509 463.175 167.82 463.366 168.095 463.628C168.371 463.889 168.588 464.229 168.747 464.646C168.906 465.061 168.986 465.565 168.986 466.159V466.611H163.783V465.656H167.737C167.737 465.321 167.669 465.024 167.533 464.766C167.396 464.504 167.205 464.298 166.957 464.148C166.713 463.997 166.426 463.922 166.097 463.922C165.739 463.922 165.426 464.01 165.159 464.186C164.895 464.359 164.69 464.587 164.545 464.868C164.403 465.146 164.332 465.449 164.332 465.776V466.521C164.332 466.959 164.409 467.331 164.563 467.638C164.719 467.945 164.936 468.179 165.214 468.341C165.493 468.5 165.818 468.58 166.19 468.58C166.432 468.58 166.652 468.545 166.851 468.477C167.05 468.406 167.222 468.301 167.366 468.162C167.511 468.023 167.622 467.851 167.699 467.646L168.905 467.864C168.808 468.219 168.635 468.53 168.385 468.797C168.138 469.061 167.827 469.267 167.452 469.415C167.08 469.56 166.655 469.632 166.178 469.632Z" fill="#545C4D" fill-opacity="0.8"/>
<path fill-rule="evenodd" clip-rule="evenodd" d="M185 458.063C181.168 458.063 178.062 461.169 178.062 465C178.062 468.831 181.168 471.938 185 471.938C188.831 471.938 191.937 468.831 191.937 465C191.937 461.169 188.831 458.063 185 458.063ZM176.937 465C176.937 460.547 180.547 456.938 185 456.938C189.452 456.938 193.062 460.547 193.062 465C193.062 469.453 189.452 473.063 185 473.063C180.547 473.063 176.937 469.453 176.937 465ZM185 459.938C185.31 459.938 185.562 460.189 185.562 460.5V460.738C186.785 460.957 187.812 461.875 187.812 463.125C187.812 463.436 187.56 463.688 187.25 463.688C186.939 463.688 186.687 463.436 186.687 463.125C186.687 462.492 186.032 461.813 185 461.813C183.967 461.813 183.312 462.492 183.312 463.125C183.312 463.758 183.967 464.438 185 464.438C186.452 464.438 187.812 465.437 187.812 466.875C187.812 468.125 186.785 469.043 185.562 469.262V469.5C185.562 469.811 185.31 470.063 185 470.063C184.689 470.063 184.437 469.811 184.437 469.5V469.262C183.214 469.043 182.187 468.125 182.187 466.875C182.187 466.564 182.439 466.313 182.75 466.313C183.06 466.313 183.312 466.564 183.312 466.875C183.312 467.508 183.967 468.188 185 468.188C186.032 468.188 186.687 467.508 186.687 466.875C186.687 466.242 186.032 465.563 185 465.563C183.547 465.563 182.187 464.563 182.187 463.125C182.187 461.875 183.214 460.957 184.437 460.738V460.5C184.437 460.189 184.689 459.938 185 459.938Z" fill="#FC7E54"/>
<path d="M99.416 509.336C98.12 509.336 96.976 509.104 95.984 508.64C94.992 508.176 94.216 507.512 93.656 506.648C93.096 505.784 92.816 504.744 92.816 503.528V502.856H95.936V503.528C95.936 504.536 96.248 505.296 96.872 505.808C97.496 506.304 98.344 506.552 99.416 506.552C100.504 506.552 101.312 506.336 101.84 505.904C102.384 505.472 102.656 504.92 102.656 504.248C102.656 503.784 102.528 503.408 102.272 503.12C102.016 502.832 101.64 502.6 101.144 502.424C100.648 502.232 100.04 502.056 99.32 501.896L98.768 501.776C97.616 501.52 96.624 501.2 95.792 500.816C94.976 500.416 94.344 499.896 93.896 499.256C93.464 498.616 93.248 497.784 93.248 496.76C93.248 495.736 93.488 494.864 93.968 494.144C94.464 493.408 95.152 492.848 96.032 492.464C96.928 492.064 97.976 491.864 99.176 491.864C100.376 491.864 101.44 492.072 102.368 492.488C103.312 492.888 104.048 493.496 104.576 494.312C105.12 495.112 105.392 496.12 105.392 497.336V498.056H102.272V497.336C102.272 496.696 102.144 496.184 101.888 495.8C101.648 495.4 101.296 495.112 100.832 494.936C100.368 494.744 99.816 494.648 99.176 494.648C98.216 494.648 97.504 494.832 97.04 495.2C96.592 495.552 96.368 496.04 96.368 496.664C96.368 497.08 96.472 497.432 96.68 497.72C96.904 498.008 97.232 498.248 97.664 498.44C98.096 498.632 98.648 498.8 99.32 498.944L99.872 499.064C101.072 499.32 102.112 499.648 102.992 500.048C103.872 500.448 104.552 500.976 105.032 501.632C105.528 502.288 105.776 503.128 105.776 504.152C105.776 505.176 105.512 506.08 104.984 506.864C104.472 507.632 103.736 508.24 102.776 508.688C101.832 509.12 100.712 509.336 99.416 509.336ZM97.952 511.784V489.416H100.832V511.784H97.952ZM113.827 509.336C112.515 509.336 111.379 509.104 110.419 508.64C109.475 508.176 108.747 507.52 108.235 506.672C107.723 505.824 107.467 504.84 107.467 503.72V503.48H110.587V503.696C110.587 504.496 110.851 505.184 111.379 505.76C111.923 506.32 112.723 506.6 113.779 506.6C114.835 506.6 115.643 506.32 116.203 505.76C116.779 505.184 117.067 504.44 117.067 503.528V503.288C117.067 502.392 116.779 501.68 116.203 501.152C115.643 500.624 114.939 500.36 114.091 500.36C113.627 500.36 113.243 500.424 112.939 500.552C112.635 500.68 112.387 500.84 112.195 501.032C112.003 501.224 111.843 501.416 111.715 501.608H107.995V492.2H119.467V494.984H111.067V499.088H111.499C111.659 498.88 111.875 498.68 112.147 498.488C112.419 498.296 112.771 498.136 113.203 498.008C113.635 497.88 114.147 497.816 114.739 497.816C115.731 497.816 116.635 498.024 117.451 498.44C118.267 498.856 118.915 499.472 119.395 500.288C119.891 501.088 120.139 502.08 120.139 503.264V503.552C120.139 504.736 119.883 505.76 119.371 506.624C118.875 507.488 118.155 508.16 117.211 508.64C116.267 509.104 115.139 509.336 113.827 509.336ZM128.433 509.336C127.153 509.336 126.041 509.096 125.097 508.616C124.153 508.136 123.425 507.472 122.913 506.624C122.401 505.776 122.145 504.8 122.145 503.696V497.96C122.145 496.6 122.417 495.472 122.961 494.576C123.521 493.664 124.281 492.984 125.241 492.536C126.217 492.088 127.329 491.864 128.577 491.864C129.825 491.864 130.905 492.072 131.817 492.488C132.745 492.904 133.457 493.504 133.953 494.288C134.465 495.072 134.721 496.008 134.721 497.096H131.601C131.601 496.424 131.369 495.84 130.905 495.344C130.441 494.848 129.665 494.6 128.577 494.6C127.505 494.6 126.673 494.88 126.081 495.44C125.505 496 125.217 496.776 125.217 497.768V499.496H125.649C125.921 499.176 126.337 498.872 126.897 498.584C127.457 498.296 128.273 498.152 129.345 498.152C130.321 498.152 131.217 498.36 132.033 498.776C132.865 499.192 133.537 499.8 134.049 500.6C134.561 501.384 134.817 502.336 134.817 503.456V503.744C134.817 504.848 134.553 505.824 134.025 506.672C133.497 507.504 132.753 508.16 131.793 508.64C130.833 509.104 129.713 509.336 128.433 509.336ZM128.481 506.6C129.489 506.6 130.281 506.336 130.857 505.808C131.449 505.28 131.745 504.576 131.745 503.696V503.504C131.745 502.912 131.609 502.4 131.337 501.968C131.081 501.536 130.705 501.2 130.209 500.96C129.729 500.72 129.153 500.6 128.481 500.6C127.825 500.6 127.249 500.72 126.753 500.96C126.257 501.2 125.873 501.536 125.601 501.968C125.345 502.4 125.217 502.912 125.217 503.504V503.696C125.217 504.576 125.505 505.28 126.081 505.808C126.673 506.336 127.473 506.6 128.481 506.6ZM138.55 509V508.376C138.55 507.752 138.598 507.224 138.694 506.792C138.79 506.344 138.998 505.84 139.318 505.28L144.958 495.32V494.936H136.03V492.2H148.126V495.848L142.174 506.48C141.966 506.848 141.822 507.176 141.742 507.464C141.662 507.752 141.622 508.104 141.622 508.52V509H138.55Z" fill="#1E261B"/>
<path d="M150.631 509.336C149.991 509.336 149.447 509.128 148.999 508.712C148.567 508.28 148.351 507.728 148.351 507.056C148.351 506.384 148.567 505.84 148.999 505.424C149.447 504.992 149.991 504.776 150.631 504.776C151.287 504.776 151.831 504.992 152.263 505.424C152.695 505.84 152.911 506.384 152.911 507.056C152.911 507.728 152.695 508.28 152.263 508.712C151.831 509.128 151.287 509.336 150.631 509.336ZM161.499 509.336C160.235 509.336 159.115 509.112 158.139 508.664C157.163 508.216 156.395 507.576 155.835 506.744C155.291 505.896 155.019 504.896 155.019 503.744V503.312H158.091V503.648C158.091 504.544 158.403 505.264 159.027 505.808C159.651 506.336 160.475 506.6 161.499 506.6C162.539 506.6 163.339 506.352 163.899 505.856C164.475 505.36 164.763 504.736 164.763 503.984V503.744C164.763 503.232 164.635 502.816 164.379 502.496C164.123 502.176 163.779 501.944 163.347 501.8C162.915 501.64 162.427 501.56 161.883 501.56H158.523V498.2L163.947 495.32V494.936H155.451V492.2H167.355V496.28L162.291 498.968V499.352H163.179C163.931 499.352 164.659 499.504 165.363 499.808C166.083 500.112 166.675 500.584 167.139 501.224C167.603 501.848 167.835 502.664 167.835 503.672V503.96C167.835 505.048 167.571 506 167.043 506.816C166.515 507.616 165.771 508.24 164.811 508.688C163.867 509.12 162.763 509.336 161.499 509.336ZM177.685 509V505.592H169.429V502.04L175.237 492.2H180.757V502.856H183.541V505.592H180.757V509H177.685ZM172.357 502.856H177.685V494.168H177.253L172.357 502.472V502.856ZM185.647 509V492.2H188.815V498.872H189.247L194.695 492.2H198.751L191.743 500.48L198.991 509H194.815L189.247 502.184H188.815V509H185.647Z" fill="#1E261B" fill-opacity="0.6"/>
</g>
<defs>
<filter id="filter0_d_2534_121" x="341" y="303" width="220" height="148" filterUnits="userSpaceOnUse" color-interpolation-filters="sRGB">
<feFlood flood-opacity="0" result="BackgroundImageFix"/>
<feColorMatrix in="SourceAlpha" type="matrix" values="0 0 0 0 0 0 0 0 0 0 0 0 0 0 0 0 0 0 127 0" result="hardAlpha"/>
<feOffset dx="14" dy="14"/>
<feGaussianBlur stdDeviation="10"/>
<feComposite in2="hardAlpha" operator="out"/>
<feColorMatrix type="matrix" values="0 0 0 0 0.117647 0 0 0 0 0.14902 0 0 0 0 0.105882 0 0 0 0.07 0"/>
<feBlend mode="normal" in2="BackgroundImageFix" result="effect1_dropShadow_2534_121"/>
<feBlend mode="normal" in="SourceGraphic" in2="effect1_dropShadow_2534_121" result="shape"/>
</filter>
<filter id="filter1_d_2534_121" x="61" y="426" width="220" height="148" filterUnits="userSpaceOnUse" color-interpolation-filters="sRGB">
<feFlood flood-opacity="0" result="BackgroundImageFix"/>
<feColorMatrix in="SourceAlpha" type="matrix" values="0 0 0 0 0 0 0 0 0 0 0 0 0 0 0 0 0 0 127 0" result="hardAlpha"/>
<feOffset dx="14" dy="14"/>
<feGaussianBlur stdDeviation="10"/>
<feComposite in2="hardAlpha" operator="out"/>
<feColorMatrix type="matrix" values="0 0 0 0 0.117647 0 0 0 0 0.14902 0 0 0 0 0.105882 0 0 0 0.07 0"/>
<feBlend mode="normal" in2="BackgroundImageFix" result="effect1_dropShadow_2534_121"/>
<feBlend mode="normal" in="SourceGraphic" in2="effect1_dropShadow_2534_121" result="shape"/>
</filter>
<linearGradient id="paint0_linear_2534_121" x1="67" y1="395.695" x2="467.772" y2="119.187" gradientUnits="userSpaceOnUse">
<stop stop-color="#FF612F"/>
<stop offset="1" stop-color="#DEC956"/>
</linearGradient>
<linearGradient id="paint1_linear_2534_121" x1="67" y1="395.695" x2="467.772" y2="119.187" gradientUnits="userSpaceOnUse">
<stop stop-color="#42FB6B"/>
<stop offset="1" stop-color="#4BF551"/>
</linearGradient>
<linearGradient id="paint2_linear_2534_121" x1="38.9489" y1="338.275" x2="159.979" y2="432.606" gradientUnits="userSpaceOnUse">
<stop stop-color="white" stop-opacity="0.28"/>
<stop offset="1" stop-color="white" stop-opacity="0"/>
</linearGradient>
<linearGradient id="paint3_linear_2534_121" x1="407.235" y1="83.0723" x2="407.235" y2="275.993" gradientUnits="userSpaceOnUse">
<stop stop-color="white" stop-opacity="0.28"/>
<stop offset="1" stop-color="white" stop-opacity="0"/>
</linearGradient>
</defs>
</svg>
