<svg width="586" height="616" viewBox="0 0 586 616" fill="none" xmlns="http://www.w3.org/2000/svg">
<rect x="6.6" y="0.6" width="543.8" height="614.8" rx="30.4" fill="white" stroke="white" stroke-width="0.8"/>
<g clip-path="url(#clip0_2534_1222)">
<mask id="mask0_2534_1222" style="mask-type:alpha" maskUnits="userSpaceOnUse" x="-265" y="-797" width="1440" height="1440">
<rect width="355" height="177" transform="translate(456 378) rotate(-180)" fill="url(#paint0_radial_2534_1222)"/>
</mask>
<g mask="url(#mask0_2534_1222)">
<g clip-path="url(#clip1_2534_1222)">
<mask id="path-4-inside-1_2534_1222" fill="white">
<path d="M647 643L551 643L551 547L647 547L647 643Z"/>
</mask>
<path d="M551 547L551 546L550 546L550 547L551 547ZM552 643L552 547L550 547L550 643L552 643ZM551 548L647 548L647 546L551 546L551 548Z" fill="#D0D5DD" fill-opacity="0.05" mask="url(#path-4-inside-1_2534_1222)"/>
<mask id="path-6-inside-2_2534_1222" fill="white">
<path d="M551 643L455 643L455 547L551 547L551 643Z"/>
</mask>
<path d="M455 547L455 546L454 546L454 547L455 547ZM456 643L456 547L454 547L454 643L456 643ZM455 548L551 548L551 546L455 546L455 548Z" fill="#D0D5DD" fill-opacity="0.05" mask="url(#path-6-inside-2_2534_1222)"/>
<mask id="path-8-inside-3_2534_1222" fill="white">
<path d="M455 643L359 643L359 547L455 547L455 643Z"/>
</mask>
<path d="M359 547L359 546L358 546L358 547L359 547ZM360 643L360 547L358 547L358 643L360 643ZM359 548L455 548L455 546L359 546L359 548Z" fill="#D0D5DD" fill-opacity="0.05" mask="url(#path-8-inside-3_2534_1222)"/>
<mask id="path-10-inside-4_2534_1222" fill="white">
<path d="M359 643L263 643L263 547L359 547L359 643Z"/>
</mask>
<path d="M263 547L263 546L262 546L262 547L263 547ZM264 643L264 547L262 547L262 643L264 643ZM263 548L359 548L359 546L263 546L263 548Z" fill="#D0D5DD" fill-opacity="0.05" mask="url(#path-10-inside-4_2534_1222)"/>
<mask id="path-12-inside-5_2534_1222" fill="white">
<path d="M263 643L167 643L167 547L263 547L263 643Z"/>
</mask>
<path d="M167 547L167 546L166 546L166 547L167 547ZM168 643L168 547L166 547L166 643L168 643ZM167 548L263 548L263 546L167 546L167 548Z" fill="#D0D5DD" fill-opacity="0.05" mask="url(#path-12-inside-5_2534_1222)"/>
<mask id="path-14-inside-6_2534_1222" fill="white">
<path d="M167 643L71 643L71 547L167 547L167 643Z"/>
</mask>
<path d="M71 547L71 546L70 546L70 547L71 547ZM72 643L72 547L70 547L70 643L72 643ZM71 548L167 548L167 546L71 546L71 548Z" fill="#D0D5DD" fill-opacity="0.05" mask="url(#path-14-inside-6_2534_1222)"/>
<mask id="path-16-inside-7_2534_1222" fill="white">
<path d="M71 643L-25 643L-25 547L71 547L71 643Z"/>
</mask>
<path d="M-25 547L-25 546L-26 546L-26 547L-25 547ZM-24 643L-24 547L-26 547L-26 643L-24 643ZM-25 548L71 548L71 546L-25 546L-25 548Z" fill="#D0D5DD" fill-opacity="0.05" mask="url(#path-16-inside-7_2534_1222)"/>
<mask id="path-18-inside-8_2534_1222" fill="white">
<path d="M647 547L551 547L551 451L647 451L647 547Z"/>
</mask>
<path d="M551 451L551 450L550 450L550 451L551 451ZM552 547L552 451L550 451L550 547L552 547ZM551 452L647 452L647 450L551 450L551 452Z" fill="#D0D5DD" fill-opacity="0.05" mask="url(#path-18-inside-8_2534_1222)"/>
<mask id="path-20-inside-9_2534_1222" fill="white">
<path d="M551 547L455 547L455 451L551 451L551 547Z"/>
</mask>
<path d="M455 451L455 450L454 450L454 451L455 451ZM456 547L456 451L454 451L454 547L456 547ZM455 452L551 452L551 450L455 450L455 452Z" fill="#D0D5DD" fill-opacity="0.05" mask="url(#path-20-inside-9_2534_1222)"/>
<mask id="path-22-inside-10_2534_1222" fill="white">
<path d="M455 547L359 547L359 451L455 451L455 547Z"/>
</mask>
<path d="M359 451L359 450L358 450L358 451L359 451ZM360 547L360 451L358 451L358 547L360 547ZM359 452L455 452L455 450L359 450L359 452Z" fill="#D0D5DD" fill-opacity="0.05" mask="url(#path-22-inside-10_2534_1222)"/>
<mask id="path-24-inside-11_2534_1222" fill="white">
<path d="M359 547L263 547L263 451L359 451L359 547Z"/>
</mask>
<path d="M263 451L263 450L262 450L262 451L263 451ZM264 547L264 451L262 451L262 547L264 547ZM263 452L359 452L359 450L263 450L263 452Z" fill="#D0D5DD" fill-opacity="0.05" mask="url(#path-24-inside-11_2534_1222)"/>
<mask id="path-26-inside-12_2534_1222" fill="white">
<path d="M263 547L167 547L167 451L263 451L263 547Z"/>
</mask>
<path d="M167 451L167 450L166 450L166 451L167 451ZM168 547L168 451L166 451L166 547L168 547ZM167 452L263 452L263 450L167 450L167 452Z" fill="#D0D5DD" fill-opacity="0.05" mask="url(#path-26-inside-12_2534_1222)"/>
<mask id="path-28-inside-13_2534_1222" fill="white">
<path d="M167 547L71 547L71 451L167 451L167 547Z"/>
</mask>
<path d="M71 451L71 450L70 450L70 451L71 451ZM72 547L72 451L70 451L70 547L72 547ZM71 452L167 452L167 450L71 450L71 452Z" fill="#D0D5DD" fill-opacity="0.05" mask="url(#path-28-inside-13_2534_1222)"/>
<mask id="path-30-inside-14_2534_1222" fill="white">
<path d="M71 547L-25 547L-25 451L71 451L71 547Z"/>
</mask>
<path d="M71 547L-25 547L-25 451L71 451L71 547Z" fill="#D9D9D9" fill-opacity="0.05"/>
<path d="M-25 451L-25 450L-26 450L-26 451L-25 451ZM-24 547L-24 451L-26 451L-26 547L-24 547ZM-25 452L71 452L71 450L-25 450L-25 452Z" fill="#D0D5DD" fill-opacity="0.05" mask="url(#path-30-inside-14_2534_1222)"/>
<mask id="path-32-inside-15_2534_1222" fill="white">
<path d="M647 451L551 451L551 355L647 355L647 451Z"/>
</mask>
<path d="M551 355L551 354L550 354L550 355L551 355ZM552 451L552 355L550 355L550 451L552 451ZM551 356L647 356L647 354L551 354L551 356Z" fill="#D0D5DD" fill-opacity="0.05" mask="url(#path-32-inside-15_2534_1222)"/>
<mask id="path-34-inside-16_2534_1222" fill="white">
<path d="M551 451L455 451L455 355L551 355L551 451Z"/>
</mask>
<path d="M455 355L455 354L454 354L454 355L455 355ZM456 451L456 355L454 355L454 451L456 451ZM455 356L551 356L551 354L455 354L455 356Z" fill="#D0D5DD" fill-opacity="0.05" mask="url(#path-34-inside-16_2534_1222)"/>
<mask id="path-36-inside-17_2534_1222" fill="white">
<path d="M455 451L359 451L359 355L455 355L455 451Z"/>
</mask>
<path d="M359 355L359 354L358 354L358 355L359 355ZM360 451L360 355L358 355L358 451L360 451ZM359 356L455 356L455 354L359 354L359 356Z" fill="#D0D5DD" fill-opacity="0.05" mask="url(#path-36-inside-17_2534_1222)"/>
<mask id="path-38-inside-18_2534_1222" fill="white">
<path d="M359 451L263 451L263 355L359 355L359 451Z"/>
</mask>
<path d="M359 451L263 451L263 355L359 355L359 451Z" fill="#D9D9D9" fill-opacity="0.05"/>
<path d="M263 355L263 354L262 354L262 355L263 355ZM264 451L264 355L262 355L262 451L264 451ZM263 356L359 356L359 354L263 354L263 356Z" fill="#D0D5DD" fill-opacity="0.05" mask="url(#path-38-inside-18_2534_1222)"/>
<mask id="path-40-inside-19_2534_1222" fill="white">
<path d="M263 451L167 451L167 355L263 355L263 451Z"/>
</mask>
<path d="M167 355L167 354L166 354L166 355L167 355ZM168 451L168 355L166 355L166 451L168 451ZM167 356L263 356L263 354L167 354L167 356Z" fill="#D0D5DD" fill-opacity="0.05" mask="url(#path-40-inside-19_2534_1222)"/>
<mask id="path-42-inside-20_2534_1222" fill="white">
<path d="M167 451L71 451L71 355L167 355L167 451Z"/>
</mask>
<path d="M71 355L71 354L70 354L70 355L71 355ZM72 451L72 355L70 355L70 451L72 451ZM71 356L167 356L167 354L71 354L71 356Z" fill="#D0D5DD" fill-opacity="0.05" mask="url(#path-42-inside-20_2534_1222)"/>
<mask id="path-44-inside-21_2534_1222" fill="white">
<path d="M71 451L-25 451L-25 355L71 355L71 451Z"/>
</mask>
<path d="M-25 355L-25 354L-26 354L-26 355L-25 355ZM-24 451L-24 355L-26 355L-26 451L-24 451ZM-25 356L71 356L71 354L-25 354L-25 356Z" fill="#D0D5DD" fill-opacity="0.05" mask="url(#path-44-inside-21_2534_1222)"/>
<mask id="path-46-inside-22_2534_1222" fill="white">
<path d="M647 355L551 355L551 259L647 259L647 355Z"/>
</mask>
<path d="M551 259L551 258L550 258L550 259L551 259ZM552 355L552 259L550 259L550 355L552 355ZM551 260L647 260L647 258L551 258L551 260Z" fill="#D0D5DD" fill-opacity="0.05" mask="url(#path-46-inside-22_2534_1222)"/>
<mask id="path-48-inside-23_2534_1222" fill="white">
<path d="M551 355L455 355L455 259L551 259L551 355Z"/>
</mask>
<path d="M455 259L455 258L454 258L454 259L455 259ZM456 355L456 259L454 259L454 355L456 355ZM455 260L551 260L551 258L455 258L455 260Z" fill="#D0D5DD" fill-opacity="0.05" mask="url(#path-48-inside-23_2534_1222)"/>
<mask id="path-50-inside-24_2534_1222" fill="white">
<path d="M455 355L359 355L359 259L455 259L455 355Z"/>
</mask>
<path d="M359 259L359 258L358 258L358 259L359 259ZM360 355L360 259L358 259L358 355L360 355ZM359 260L455 260L455 258L359 258L359 260Z" fill="#D0D5DD" fill-opacity="0.05" mask="url(#path-50-inside-24_2534_1222)"/>
<mask id="path-52-inside-25_2534_1222" fill="white">
<path d="M359 355L263 355L263 259L359 259L359 355Z"/>
</mask>
<path d="M263 259L263 258L262 258L262 259L263 259ZM264 355L264 259L262 259L262 355L264 355ZM263 260L359 260L359 258L263 258L263 260Z" fill="#D0D5DD" fill-opacity="0.05" mask="url(#path-52-inside-25_2534_1222)"/>
<mask id="path-54-inside-26_2534_1222" fill="white">
<path d="M263 355L167 355L167 259L263 259L263 355Z"/>
</mask>
<path d="M167 259L167 258L166 258L166 259L167 259ZM168 355L168 259L166 259L166 355L168 355ZM167 260L263 260L263 258L167 258L167 260Z" fill="#D0D5DD" fill-opacity="0.05" mask="url(#path-54-inside-26_2534_1222)"/>
<mask id="path-56-inside-27_2534_1222" fill="white">
<path d="M167 355L71 355L71 259L167 259L167 355Z"/>
</mask>
<path d="M71 259L71 258L70 258L70 259L71 259ZM72 355L72 259L70 259L70 355L72 355ZM71 260L167 260L167 258L71 258L71 260Z" fill="#D0D5DD" fill-opacity="0.05" mask="url(#path-56-inside-27_2534_1222)"/>
<mask id="path-58-inside-28_2534_1222" fill="white">
<path d="M71 355L-25 355L-25 259L71 259L71 355Z"/>
</mask>
<path d="M71 355L-25 355L-25 259L71 259L71 355Z" fill="#D9D9D9" fill-opacity="0.05"/>
<path d="M-25 259L-25 258L-26 258L-26 259L-25 259ZM-24 355L-24 259L-26 259L-26 355L-24 355ZM-25 260L71 260L71 258L-25 258L-25 260Z" fill="#D0D5DD" fill-opacity="0.05" mask="url(#path-58-inside-28_2534_1222)"/>
<mask id="path-60-inside-29_2534_1222" fill="white">
<path d="M647 259L551 259L551 163L647 163L647 259Z"/>
</mask>
<path d="M551 163L551 162L550 162L550 163L551 163ZM552 259L552 163L550 163L550 259L552 259ZM551 164L647 164L647 162L551 162L551 164Z" fill="#D0D5DD" fill-opacity="0.05" mask="url(#path-60-inside-29_2534_1222)"/>
<mask id="path-62-inside-30_2534_1222" fill="white">
<path d="M551 259L455 259L455 163L551 163L551 259Z"/>
</mask>
<path d="M455 163L455 162L454 162L454 163L455 163ZM456 259L456 163L454 163L454 259L456 259ZM455 164L551 164L551 162L455 162L455 164Z" fill="#D0D5DD" fill-opacity="0.05" mask="url(#path-62-inside-30_2534_1222)"/>
<mask id="path-64-inside-31_2534_1222" fill="white">
<path d="M455 259L359 259L359 163L455 163L455 259Z"/>
</mask>
<path d="M455 259L359 259L359 163L455 163L455 259Z" fill="#D9D9D9" fill-opacity="0.05"/>
<path d="M359 163L359 162L358 162L358 163L359 163ZM360 259L360 163L358 163L358 259L360 259ZM359 164L455 164L455 162L359 162L359 164Z" fill="#D0D5DD" fill-opacity="0.05" mask="url(#path-64-inside-31_2534_1222)"/>
<mask id="path-66-inside-32_2534_1222" fill="white">
<path d="M359 259L263 259L263 163L359 163L359 259Z"/>
</mask>
<path d="M263 163L263 162L262 162L262 163L263 163ZM264 259L264 163L262 163L262 259L264 259ZM263 164L359 164L359 162L263 162L263 164Z" fill="#D0D5DD" fill-opacity="0.05" mask="url(#path-66-inside-32_2534_1222)"/>
<mask id="path-68-inside-33_2534_1222" fill="white">
<path d="M263 259L167 259L167 163L263 163L263 259Z"/>
</mask>
<path d="M167 163L167 162L166 162L166 163L167 163ZM168 259L168 163L166 163L166 259L168 259ZM167 164L263 164L263 162L167 162L167 164Z" fill="#D0D5DD" fill-opacity="0.05" mask="url(#path-68-inside-33_2534_1222)"/>
<mask id="path-70-inside-34_2534_1222" fill="white">
<path d="M167 259L71 259L71 163L167 163L167 259Z"/>
</mask>
<path d="M71 163L71 162L70 162L70 163L71 163ZM72 259L72 163L70 163L70 259L72 259ZM71 164L167 164L167 162L71 162L71 164Z" fill="#D0D5DD" fill-opacity="0.05" mask="url(#path-70-inside-34_2534_1222)"/>
<mask id="path-72-inside-35_2534_1222" fill="white">
<path d="M71 259L-25 259L-25 163L71 163L71 259Z"/>
</mask>
<path d="M-25 163L-25 162L-26 162L-26 163L-25 163ZM-24 259L-24 163L-26 163L-26 259L-24 259ZM-25 164L71 164L71 162L-25 162L-25 164Z" fill="#D0D5DD" fill-opacity="0.05" mask="url(#path-72-inside-35_2534_1222)"/>
<mask id="path-74-inside-36_2534_1222" fill="white">
<path d="M647 163L551 163L551 67L647 67L647 163Z"/>
</mask>
<path d="M551 67L551 66L550 66L550 67L551 67ZM552 163L552 67L550 67L550 163L552 163ZM551 68L647 68L647 66L551 66L551 68Z" fill="#D0D5DD" fill-opacity="0.05" mask="url(#path-74-inside-36_2534_1222)"/>
<mask id="path-76-inside-37_2534_1222" fill="white">
<path d="M551 163L455 163L455 67L551 67L551 163Z"/>
</mask>
<path d="M455 67L455 66L454 66L454 67L455 67ZM456 163L456 67L454 67L454 163L456 163ZM455 68L551 68L551 66L455 66L455 68Z" fill="#D0D5DD" fill-opacity="0.05" mask="url(#path-76-inside-37_2534_1222)"/>
<mask id="path-78-inside-38_2534_1222" fill="white">
<path d="M455 163L359 163L359 67L455 67L455 163Z"/>
</mask>
<path d="M359 67L359 66L358 66L358 67L359 67ZM360 163L360 67L358 67L358 163L360 163ZM359 68L455 68L455 66L359 66L359 68Z" fill="#D0D5DD" fill-opacity="0.05" mask="url(#path-78-inside-38_2534_1222)"/>
<mask id="path-80-inside-39_2534_1222" fill="white">
<path d="M359 163L263 163L263 67L359 67L359 163Z"/>
</mask>
<path d="M359 163L263 163L263 67L359 67L359 163Z" fill="#D9D9D9" fill-opacity="0.05"/>
<path d="M263 67L263 66L262 66L262 67L263 67ZM264 163L264 67L262 67L262 163L264 163ZM263 68L359 68L359 66L263 66L263 68Z" fill="#D0D5DD" fill-opacity="0.05" mask="url(#path-80-inside-39_2534_1222)"/>
<mask id="path-82-inside-40_2534_1222" fill="white">
<path d="M263 163L167 163L167 67L263 67L263 163Z"/>
</mask>
<path d="M167 67L167 66L166 66L166 67L167 67ZM168 163L168 67L166 67L166 163L168 163ZM167 68L263 68L263 66L167 66L167 68Z" fill="#D0D5DD" fill-opacity="0.05" mask="url(#path-82-inside-40_2534_1222)"/>
<mask id="path-84-inside-41_2534_1222" fill="white">
<path d="M167 163L71 163L71 67L167 67L167 163Z"/>
</mask>
<path d="M71 67L71 66L70 66L70 67L71 67ZM72 163L72 67L70 67L70 163L72 163ZM71 68L167 68L167 66L71 66L71 68Z" fill="#D0D5DD" fill-opacity="0.05" mask="url(#path-84-inside-41_2534_1222)"/>
<mask id="path-86-inside-42_2534_1222" fill="white">
<path d="M71 163L-25 163L-25 67L71 67L71 163Z"/>
</mask>
<path d="M-25 67L-25 66L-26 66L-26 67L-25 67ZM-24 163L-24 67L-26 67L-26 163L-24 163ZM-25 68L71 68L71 66L-25 66L-25 68Z" fill="#D0D5DD" fill-opacity="0.05" mask="url(#path-86-inside-42_2534_1222)"/>
<mask id="path-88-inside-43_2534_1222" fill="white">
<path d="M647 67L551 67L551 -29L647 -29L647 67Z"/>
</mask>
<path d="M551 -29L551 -30L550 -30L550 -29L551 -29ZM552 67L552 -29L550 -29L550 67L552 67ZM551 -28L647 -28L647 -30L551 -30L551 -28Z" fill="#D0D5DD" fill-opacity="0.05" mask="url(#path-88-inside-43_2534_1222)"/>
<mask id="path-90-inside-44_2534_1222" fill="white">
<path d="M551 67L455 67L455 -29L551 -29L551 67Z"/>
</mask>
<path d="M455 -29L455 -30L454 -30L454 -29L455 -29ZM456 67L456 -29L454 -29L454 67L456 67ZM455 -28L551 -28L551 -30L455 -30L455 -28Z" fill="#D0D5DD" fill-opacity="0.05" mask="url(#path-90-inside-44_2534_1222)"/>
<mask id="path-92-inside-45_2534_1222" fill="white">
<path d="M455 67L359 67L359 -29L455 -29L455 67Z"/>
</mask>
<path d="M359 -29L359 -30L358 -30L358 -29L359 -29ZM360 67L360 -29L358 -29L358 67L360 67ZM359 -28L455 -28L455 -30L359 -30L359 -28Z" fill="#D0D5DD" fill-opacity="0.05" mask="url(#path-92-inside-45_2534_1222)"/>
<mask id="path-94-inside-46_2534_1222" fill="white">
<path d="M359 67L263 67L263 -29L359 -29L359 67Z"/>
</mask>
<path d="M263 -29L263 -30L262 -30L262 -29L263 -29ZM264 67L264 -29L262 -29L262 67L264 67ZM263 -28L359 -28L359 -30L263 -30L263 -28Z" fill="#D0D5DD" fill-opacity="0.05" mask="url(#path-94-inside-46_2534_1222)"/>
<mask id="path-96-inside-47_2534_1222" fill="white">
<path d="M263 67L167 67L167 -29L263 -29L263 67Z"/>
</mask>
<path d="M167 -29L167 -30L166 -30L166 -29L167 -29ZM168 67L168 -29L166 -29L166 67L168 67ZM167 -28L263 -28L263 -30L167 -30L167 -28Z" fill="#D0D5DD" fill-opacity="0.05" mask="url(#path-96-inside-47_2534_1222)"/>
<mask id="path-98-inside-48_2534_1222" fill="white">
<path d="M167 67L71 67L71 -29L167 -29L167 67Z"/>
</mask>
<path d="M71 -29L71 -30L70 -30L70 -29L71 -29ZM72 67L72 -29L70 -29L70 67L72 67ZM71 -28L167 -28L167 -30L71 -30L71 -28Z" fill="#D0D5DD" fill-opacity="0.05" mask="url(#path-98-inside-48_2534_1222)"/>
<mask id="path-100-inside-49_2534_1222" fill="white">
<path d="M71 67L-25 67L-25 -29L71 -29L71 67Z"/>
</mask>
<path d="M-25 -29L-25 -30L-26 -30L-26 -29L-25 -29ZM-24 67L-24 -29L-26 -29L-26 67L-24 67ZM-25 -28L71 -28L71 -30L-25 -30L-25 -28Z" fill="#D0D5DD" fill-opacity="0.05" mask="url(#path-100-inside-49_2534_1222)"/>
</g>
<rect x="1414.5" y="642.5" width="1919" height="1439" transform="rotate(-180 1414.5 642.5)" stroke="#D0D5DD" stroke-opacity="0.05"/>
</g>
</g>
<g filter="url(#filter0_d_2534_1222)">
<rect x="152" y="94" width="348" height="62" rx="14" fill="white" shape-rendering="crispEdges"/>
<rect x="152.4" y="94.4" width="347.2" height="61.2" rx="13.6" stroke="#1E261B" stroke-opacity="0.09" stroke-width="0.8" shape-rendering="crispEdges"/>
<path d="M171.459 129.5V120.773H174.57C175.249 120.773 175.811 120.896 176.257 121.143C176.703 121.391 177.037 121.729 177.259 122.158C177.48 122.584 177.591 123.064 177.591 123.598C177.591 124.135 177.479 124.618 177.254 125.047C177.033 125.473 176.697 125.811 176.249 126.061C175.803 126.308 175.241 126.432 174.565 126.432H172.426V125.315H174.446C174.875 125.315 175.223 125.241 175.49 125.094C175.757 124.943 175.953 124.739 176.078 124.48C176.203 124.222 176.266 123.928 176.266 123.598C176.266 123.268 176.203 122.976 176.078 122.72C175.953 122.464 175.756 122.264 175.486 122.119C175.219 121.974 174.866 121.902 174.429 121.902H172.776V129.5H171.459ZM179.032 129.5V122.955H180.264V123.994H180.332C180.451 123.642 180.662 123.365 180.963 123.163C181.267 122.959 181.61 122.857 181.994 122.857C182.074 122.857 182.167 122.859 182.275 122.865C182.386 122.871 182.473 122.878 182.535 122.886V124.105C182.484 124.091 182.393 124.075 182.262 124.058C182.132 124.038 182.001 124.028 181.87 124.028C181.569 124.028 181.301 124.092 181.065 124.22C180.832 124.345 180.647 124.52 180.511 124.744C180.375 124.966 180.306 125.219 180.306 125.503V129.5H179.032ZM183.638 129.5V122.955H184.912V129.5H183.638ZM184.281 121.945C184.06 121.945 183.869 121.871 183.71 121.723C183.554 121.572 183.476 121.393 183.476 121.186C183.476 120.976 183.554 120.797 183.71 120.649C183.869 120.499 184.06 120.423 184.281 120.423C184.503 120.423 184.692 120.499 184.848 120.649C185.007 120.797 185.087 120.976 185.087 121.186C185.087 121.393 185.007 121.572 184.848 121.723C184.692 121.871 184.503 121.945 184.281 121.945ZM186.626 129.5V122.955H187.849V124.02H187.93C188.066 123.659 188.289 123.378 188.599 123.176C188.909 122.972 189.279 122.869 189.711 122.869C190.149 122.869 190.515 122.972 190.811 123.176C191.109 123.381 191.329 123.662 191.471 124.02H191.539C191.696 123.67 191.944 123.392 192.285 123.185C192.626 122.974 193.032 122.869 193.504 122.869C194.098 122.869 194.582 123.055 194.957 123.428C195.335 123.8 195.524 124.361 195.524 125.111V129.5H194.25V125.23C194.25 124.787 194.129 124.466 193.887 124.267C193.646 124.068 193.358 123.969 193.022 123.969C192.608 123.969 192.285 124.097 192.055 124.352C191.825 124.605 191.71 124.93 191.71 125.328V129.5H190.44V125.149C190.44 124.794 190.329 124.509 190.108 124.293C189.886 124.077 189.598 123.969 189.243 123.969C189.001 123.969 188.778 124.033 188.574 124.161C188.372 124.286 188.208 124.46 188.083 124.685C187.961 124.909 187.9 125.169 187.9 125.464V129.5H186.626ZM199.136 129.645C198.722 129.645 198.347 129.568 198.011 129.415C197.676 129.259 197.411 129.033 197.214 128.737C197.021 128.442 196.925 128.08 196.925 127.651C196.925 127.281 196.996 126.977 197.138 126.739C197.28 126.5 197.472 126.311 197.713 126.172C197.955 126.033 198.224 125.928 198.523 125.857C198.821 125.786 199.125 125.732 199.435 125.695C199.827 125.649 200.145 125.612 200.389 125.584C200.634 125.553 200.811 125.503 200.922 125.435C201.033 125.366 201.088 125.256 201.088 125.102V125.072C201.088 124.7 200.983 124.412 200.773 124.207C200.565 124.003 200.256 123.901 199.844 123.901C199.415 123.901 199.077 123.996 198.83 124.186C198.585 124.374 198.416 124.582 198.322 124.813L197.125 124.54C197.267 124.142 197.474 123.821 197.747 123.577C198.023 123.33 198.339 123.151 198.697 123.04C199.055 122.926 199.432 122.869 199.827 122.869C200.088 122.869 200.365 122.901 200.658 122.963C200.953 123.023 201.229 123.134 201.484 123.295C201.743 123.457 201.955 123.689 202.119 123.99C202.284 124.288 202.366 124.676 202.366 125.153V129.5H201.122V128.605H201.071C200.989 128.77 200.865 128.932 200.7 129.091C200.536 129.25 200.324 129.382 200.065 129.487C199.807 129.592 199.497 129.645 199.136 129.645ZM199.413 128.622C199.766 128.622 200.067 128.553 200.317 128.413C200.57 128.274 200.761 128.092 200.892 127.868C201.026 127.641 201.092 127.398 201.092 127.139V126.295C201.047 126.341 200.959 126.384 200.828 126.423C200.7 126.46 200.554 126.493 200.389 126.521C200.224 126.547 200.064 126.571 199.908 126.594C199.751 126.614 199.621 126.631 199.516 126.645C199.268 126.676 199.043 126.729 198.838 126.803C198.636 126.876 198.474 126.983 198.352 127.122C198.233 127.259 198.173 127.44 198.173 127.668C198.173 127.983 198.29 128.222 198.523 128.384C198.756 128.543 199.053 128.622 199.413 128.622ZM204.064 129.5V122.955H205.295V123.994H205.363C205.483 123.642 205.693 123.365 205.994 123.163C206.298 122.959 206.642 122.857 207.025 122.857C207.105 122.857 207.199 122.859 207.306 122.865C207.417 122.871 207.504 122.878 207.566 122.886V124.105C207.515 124.091 207.424 124.075 207.294 124.058C207.163 124.038 207.032 124.028 206.902 124.028C206.601 124.028 206.332 124.092 206.096 124.22C205.863 124.345 205.679 124.52 205.542 124.744C205.406 124.966 205.338 125.219 205.338 125.503V129.5H204.064ZM209.674 131.955C209.483 131.955 209.31 131.939 209.154 131.908C208.998 131.879 208.881 131.848 208.804 131.814L209.111 130.77C209.344 130.832 209.551 130.859 209.733 130.851C209.915 130.842 210.076 130.774 210.215 130.646C210.357 130.518 210.482 130.31 210.59 130.02L210.748 129.585L208.353 122.955H209.716L211.374 128.034H211.442L213.1 122.955H214.468L211.77 130.374C211.645 130.714 211.486 131.003 211.293 131.239C211.1 131.477 210.87 131.656 210.603 131.776C210.336 131.895 210.026 131.955 209.674 131.955ZM219.68 129.5H218.283L221.423 120.773H222.945L226.085 129.5H224.688L222.22 122.358H222.152L219.68 129.5ZM219.915 126.082H224.449V127.19H219.915V126.082ZM229.895 129.632C229.261 129.632 228.716 129.489 228.259 129.202C227.804 128.912 227.455 128.513 227.21 128.004C226.966 127.496 226.844 126.913 226.844 126.257C226.844 125.592 226.969 125.006 227.219 124.497C227.469 123.986 227.821 123.587 228.276 123.3C228.73 123.013 229.266 122.869 229.882 122.869C230.379 122.869 230.822 122.962 231.212 123.146C231.601 123.328 231.915 123.584 232.153 123.913C232.395 124.243 232.538 124.628 232.584 125.068H231.344C231.276 124.761 231.119 124.497 230.875 124.276C230.634 124.054 230.31 123.943 229.903 123.943C229.548 123.943 229.237 124.037 228.97 124.224C228.706 124.409 228.5 124.673 228.352 125.017C228.205 125.358 228.131 125.761 228.131 126.227C228.131 126.705 228.203 127.116 228.348 127.463C228.493 127.81 228.697 128.078 228.962 128.268C229.229 128.459 229.543 128.554 229.903 128.554C230.145 128.554 230.364 128.51 230.56 128.422C230.759 128.331 230.925 128.202 231.058 128.034C231.195 127.866 231.29 127.665 231.344 127.429H232.584C232.538 127.852 232.401 128.23 232.17 128.563C231.94 128.895 231.632 129.156 231.246 129.347C230.862 129.537 230.412 129.632 229.895 129.632ZM236.703 129.632C236.07 129.632 235.525 129.489 235.067 129.202C234.613 128.912 234.263 128.513 234.019 128.004C233.775 127.496 233.652 126.913 233.652 126.257C233.652 125.592 233.777 125.006 234.027 124.497C234.277 123.986 234.63 123.587 235.084 123.3C235.539 123.013 236.074 122.869 236.691 122.869C237.188 122.869 237.631 122.962 238.02 123.146C238.409 123.328 238.723 123.584 238.962 123.913C239.203 124.243 239.347 124.628 239.392 125.068H238.152C238.084 124.761 237.928 124.497 237.684 124.276C237.442 124.054 237.118 123.943 236.712 123.943C236.357 123.943 236.046 124.037 235.779 124.224C235.515 124.409 235.309 124.673 235.161 125.017C235.013 125.358 234.939 125.761 234.939 126.227C234.939 126.705 235.012 127.116 235.157 127.463C235.301 127.81 235.506 128.078 235.77 128.268C236.037 128.459 236.351 128.554 236.712 128.554C236.953 128.554 237.172 128.51 237.368 128.422C237.567 128.331 237.733 128.202 237.867 128.034C238.003 127.866 238.098 127.665 238.152 127.429H239.392C239.347 127.852 239.209 128.23 238.979 128.563C238.749 128.895 238.441 129.156 238.054 129.347C237.671 129.537 237.221 129.632 236.703 129.632ZM243.512 129.632C242.898 129.632 242.363 129.491 241.906 129.21C241.448 128.929 241.093 128.536 240.84 128.03C240.587 127.524 240.461 126.933 240.461 126.257C240.461 125.578 240.587 124.984 240.84 124.476C241.093 123.967 241.448 123.572 241.906 123.291C242.363 123.01 242.898 122.869 243.512 122.869C244.126 122.869 244.661 123.01 245.119 123.291C245.576 123.572 245.931 123.967 246.184 124.476C246.437 124.984 246.563 125.578 246.563 126.257C246.563 126.933 246.437 127.524 246.184 128.03C245.931 128.536 245.576 128.929 245.119 129.21C244.661 129.491 244.126 129.632 243.512 129.632ZM243.516 128.563C243.914 128.563 244.244 128.457 244.505 128.247C244.766 128.037 244.96 127.757 245.085 127.408C245.212 127.058 245.276 126.673 245.276 126.253C245.276 125.835 245.212 125.452 245.085 125.102C244.96 124.75 244.766 124.467 244.505 124.254C244.244 124.041 243.914 123.935 243.516 123.935C243.116 123.935 242.783 124.041 242.519 124.254C242.258 124.467 242.063 124.75 241.935 125.102C241.81 125.452 241.748 125.835 241.748 126.253C241.748 126.673 241.81 127.058 241.935 127.408C242.063 127.757 242.258 128.037 242.519 128.247C242.783 128.457 243.116 128.563 243.516 128.563ZM252.132 126.786V122.955H253.41V129.5H252.157V128.366H252.089C251.939 128.716 251.697 129.007 251.365 129.24C251.035 129.47 250.625 129.585 250.133 129.585C249.713 129.585 249.341 129.493 249.017 129.308C248.696 129.121 248.443 128.844 248.258 128.477C248.076 128.111 247.985 127.658 247.985 127.118V122.955H249.26V126.964C249.26 127.411 249.383 127.766 249.63 128.03C249.877 128.294 250.199 128.426 250.593 128.426C250.832 128.426 251.069 128.366 251.305 128.247C251.544 128.128 251.741 127.947 251.897 127.706C252.056 127.464 252.135 127.158 252.132 126.786ZM256.396 125.614V129.5H255.122V122.955H256.345V124.02H256.426C256.577 123.673 256.813 123.395 257.134 123.185C257.457 122.974 257.865 122.869 258.357 122.869C258.803 122.869 259.193 122.963 259.528 123.151C259.864 123.335 260.124 123.611 260.308 123.977C260.493 124.344 260.585 124.797 260.585 125.337V129.5H259.311V125.49C259.311 125.016 259.188 124.645 258.94 124.378C258.693 124.108 258.354 123.973 257.922 123.973C257.626 123.973 257.364 124.037 257.134 124.165C256.906 124.293 256.726 124.48 256.592 124.727C256.462 124.972 256.396 125.267 256.396 125.614ZM265.349 122.955V123.977H261.774V122.955H265.349ZM262.733 121.386H264.007V127.578C264.007 127.825 264.044 128.011 264.118 128.136C264.192 128.259 264.287 128.342 264.403 128.388C264.523 128.43 264.652 128.452 264.791 128.452C264.893 128.452 264.983 128.445 265.06 128.43C265.136 128.416 265.196 128.405 265.239 128.396L265.469 129.449C265.395 129.477 265.29 129.506 265.153 129.534C265.017 129.565 264.847 129.582 264.642 129.585C264.307 129.591 263.994 129.531 263.705 129.406C263.415 129.281 263.18 129.088 263.001 128.827C262.822 128.565 262.733 128.237 262.733 127.842V121.386Z" fill="#1E261B" fill-opacity="0.8"/>
<path fill-rule="evenodd" clip-rule="evenodd" d="M281.499 118.063C277.668 118.063 274.562 121.169 274.562 125C274.562 128.831 277.668 131.938 281.499 131.938C285.33 131.938 288.437 128.831 288.437 125C288.437 121.169 285.33 118.063 281.499 118.063ZM273.437 125C273.437 120.547 277.046 116.938 281.499 116.938C285.952 116.938 289.562 120.547 289.562 125C289.562 129.453 285.952 133.063 281.499 133.063C277.046 133.063 273.437 129.453 273.437 125ZM281.499 119.938C281.81 119.938 282.062 120.189 282.062 120.5V120.738C283.284 120.957 284.312 121.875 284.312 123.125C284.312 123.436 284.06 123.688 283.749 123.688C283.438 123.688 283.187 123.436 283.187 123.125C283.187 122.492 282.531 121.813 281.499 121.813C280.467 121.813 279.812 122.492 279.812 123.125C279.812 123.758 280.467 124.438 281.499 124.438C282.952 124.438 284.312 125.437 284.312 126.875C284.312 128.125 283.284 129.043 282.062 129.262V129.5C282.062 129.811 281.81 130.063 281.499 130.063C281.188 130.063 280.937 129.811 280.937 129.5V129.262C279.714 129.043 278.687 128.125 278.687 126.875C278.687 126.564 278.938 126.313 279.249 126.313C279.56 126.313 279.812 126.564 279.812 126.875C279.812 127.508 280.467 128.188 281.499 128.188C282.531 128.188 283.187 127.508 283.187 126.875C283.187 126.242 282.531 125.563 281.499 125.563C280.046 125.563 278.687 124.563 278.687 123.125C278.687 121.875 279.714 120.957 280.937 120.738V120.5C280.937 120.189 281.188 119.938 281.499 119.938Z" fill="#FC7E54"/>
<path d="M372.416 133.336C371.12 133.336 369.976 133.104 368.984 132.64C367.992 132.176 367.216 131.512 366.656 130.648C366.096 129.784 365.816 128.744 365.816 127.528V126.856H368.936V127.528C368.936 128.536 369.248 129.296 369.872 129.808C370.496 130.304 371.344 130.552 372.416 130.552C373.504 130.552 374.312 130.336 374.84 129.904C375.384 129.472 375.656 128.92 375.656 128.248C375.656 127.784 375.528 127.408 375.272 127.12C375.016 126.832 374.64 126.6 374.144 126.424C373.648 126.232 373.04 126.056 372.32 125.896L371.768 125.776C370.616 125.52 369.624 125.2 368.792 124.816C367.976 124.416 367.344 123.896 366.896 123.256C366.464 122.616 366.248 121.784 366.248 120.76C366.248 119.736 366.488 118.864 366.968 118.144C367.464 117.408 368.152 116.848 369.032 116.464C369.928 116.064 370.976 115.864 372.176 115.864C373.376 115.864 374.44 116.072 375.368 116.488C376.312 116.888 377.048 117.496 377.576 118.312C378.12 119.112 378.392 120.12 378.392 121.336V122.056H375.272V121.336C375.272 120.696 375.144 120.184 374.888 119.8C374.648 119.4 374.296 119.112 373.832 118.936C373.368 118.744 372.816 118.648 372.176 118.648C371.216 118.648 370.504 118.832 370.04 119.2C369.592 119.552 369.368 120.04 369.368 120.664C369.368 121.08 369.472 121.432 369.68 121.72C369.904 122.008 370.232 122.248 370.664 122.44C371.096 122.632 371.648 122.8 372.32 122.944L372.872 123.064C374.072 123.32 375.112 123.648 375.992 124.048C376.872 124.448 377.552 124.976 378.032 125.632C378.528 126.288 378.776 127.128 378.776 128.152C378.776 129.176 378.512 130.08 377.984 130.864C377.472 131.632 376.736 132.24 375.776 132.688C374.832 133.12 373.712 133.336 372.416 133.336ZM370.952 135.784V113.416H373.832V135.784H370.952ZM380.563 133V130.984C380.563 129.816 380.755 128.848 381.139 128.08C381.523 127.296 382.075 126.656 382.795 126.16C383.531 125.648 384.427 125.232 385.483 124.912L387.091 124.408C387.683 124.216 388.179 123.984 388.579 123.712C388.979 123.424 389.283 123.08 389.491 122.68C389.715 122.28 389.827 121.824 389.827 121.312V121.216C389.827 120.416 389.555 119.784 389.011 119.32C388.467 118.84 387.723 118.6 386.779 118.6C385.851 118.6 385.099 118.856 384.523 119.368C383.963 119.864 383.683 120.584 383.683 121.528V121.96H380.611V121.576C380.611 120.36 380.883 119.328 381.427 118.48C381.971 117.632 382.707 116.984 383.635 116.536C384.579 116.088 385.627 115.864 386.779 115.864C387.931 115.864 388.971 116.088 389.899 116.536C390.827 116.968 391.555 117.584 392.083 118.384C392.627 119.168 392.899 120.096 392.899 121.168V121.408C392.899 122.48 392.675 123.392 392.227 124.144C391.795 124.88 391.203 125.488 390.451 125.968C389.699 126.432 388.843 126.816 387.883 127.12L386.347 127.6C385.659 127.808 385.123 128.04 384.739 128.296C384.355 128.536 384.083 128.808 383.923 129.112C383.779 129.4 383.707 129.752 383.707 130.168V130.264H392.755V133H380.563ZM395.701 136.528V134.896H396.637C397.373 134.896 397.741 134.528 397.741 133.792V133.024H397.333C396.693 133.024 396.157 132.832 395.725 132.448C395.309 132.064 395.101 131.576 395.101 130.984C395.101 130.344 395.309 129.824 395.725 129.424C396.157 129.024 396.693 128.824 397.333 128.824C397.989 128.824 398.525 129.032 398.941 129.448C399.357 129.848 399.565 130.392 399.565 131.08V133.84C399.565 135.632 398.669 136.528 396.877 136.528H395.701ZM409.739 133V129.592H401.483V126.04L407.291 116.2H412.811V126.856H415.595V129.592H412.811V133H409.739ZM404.411 126.856H409.739V118.168H409.307L404.411 126.472V126.856ZM423.317 133.336C422.037 133.336 420.901 133.144 419.909 132.76C418.933 132.376 418.165 131.824 417.605 131.104C417.061 130.368 416.789 129.504 416.789 128.512V128.224C416.789 127.456 416.925 126.824 417.197 126.328C417.469 125.816 417.805 125.416 418.205 125.128C418.621 124.84 419.013 124.64 419.381 124.528V124.096C419.013 123.968 418.645 123.76 418.277 123.472C417.909 123.184 417.605 122.8 417.365 122.32C417.141 121.84 417.029 121.264 417.029 120.592V120.304C417.029 119.424 417.285 118.656 417.797 118C418.325 117.328 419.061 116.808 420.005 116.44C420.949 116.056 422.053 115.864 423.317 115.864C424.581 115.864 425.685 116.056 426.629 116.44C427.573 116.808 428.301 117.328 428.813 118C429.341 118.656 429.605 119.424 429.605 120.304V120.592C429.605 121.264 429.485 121.84 429.245 122.32C429.021 122.8 428.725 123.184 428.357 123.472C428.005 123.76 427.637 123.968 427.253 124.096V124.528C427.637 124.64 428.029 124.84 428.429 125.128C428.829 125.416 429.165 125.816 429.437 126.328C429.709 126.824 429.845 127.456 429.845 128.224V128.512C429.845 129.504 429.565 130.368 429.005 131.104C428.461 131.824 427.693 132.376 426.701 132.76C425.725 133.144 424.597 133.336 423.317 133.336ZM423.317 130.6C424.421 130.6 425.269 130.392 425.861 129.976C426.469 129.544 426.773 128.976 426.773 128.272V128.08C426.773 127.376 426.477 126.816 425.885 126.4C425.309 125.968 424.453 125.752 423.317 125.752C422.197 125.752 421.341 125.968 420.749 126.4C420.157 126.816 419.861 127.376 419.861 128.08V128.272C419.861 128.976 420.157 129.544 420.749 129.976C421.357 130.392 422.213 130.6 423.317 130.6ZM423.317 123.016C424.341 123.016 425.133 122.832 425.693 122.464C426.253 122.096 426.533 121.576 426.533 120.904V120.712C426.533 120.04 426.245 119.52 425.669 119.152C425.093 118.784 424.309 118.6 423.317 118.6C422.325 118.6 421.541 118.784 420.965 119.152C420.389 119.52 420.101 120.04 420.101 120.712V120.904C420.101 121.576 420.381 122.096 420.941 122.464C421.501 122.832 422.293 123.016 423.317 123.016ZM438.284 133.336C436.3 133.336 434.708 132.792 433.508 131.704C432.308 130.6 431.708 128.936 431.708 126.712V122.488C431.708 120.328 432.308 118.688 433.508 117.568C434.708 116.432 436.3 115.864 438.284 115.864C440.284 115.864 441.876 116.432 443.06 117.568C444.26 118.688 444.86 120.328 444.86 122.488V126.712C444.86 128.936 444.26 130.6 443.06 131.704C441.876 132.792 440.284 133.336 438.284 133.336ZM438.284 130.6C439.484 130.6 440.364 130.272 440.924 129.616C441.5 128.96 441.788 128.024 441.788 126.808V122.344C441.788 121.112 441.468 120.184 440.828 119.56C440.204 118.92 439.356 118.6 438.284 118.6C437.18 118.6 436.316 118.928 435.692 119.584C435.084 120.24 434.78 121.16 434.78 122.344V126.808C434.78 128.072 435.068 129.024 435.644 129.664C436.236 130.288 437.116 130.6 438.284 130.6ZM449.365 133.336C448.725 133.336 448.181 133.128 447.733 132.712C447.301 132.28 447.085 131.728 447.085 131.056C447.085 130.384 447.301 129.84 447.733 129.424C448.181 128.992 448.725 128.776 449.365 128.776C450.021 128.776 450.565 128.992 450.997 129.424C451.429 129.84 451.645 130.384 451.645 131.056C451.645 131.728 451.429 132.28 450.997 132.712C450.565 133.128 450.021 133.336 449.365 133.336Z" fill="#1E261B"/>
<path d="M460.432 133.336C458.448 133.336 456.856 132.792 455.656 131.704C454.456 130.6 453.856 128.936 453.856 126.712V122.488C453.856 120.328 454.456 118.688 455.656 117.568C456.856 116.432 458.448 115.864 460.432 115.864C462.432 115.864 464.024 116.432 465.208 117.568C466.408 118.688 467.008 120.328 467.008 122.488V126.712C467.008 128.936 466.408 130.6 465.208 131.704C464.024 132.792 462.432 133.336 460.432 133.336ZM460.432 130.6C461.632 130.6 462.512 130.272 463.072 129.616C463.648 128.96 463.936 128.024 463.936 126.808V122.344C463.936 121.112 463.616 120.184 462.976 119.56C462.352 118.92 461.504 118.6 460.432 118.6C459.328 118.6 458.464 118.928 457.84 119.584C457.232 120.24 456.928 121.16 456.928 122.344V126.808C456.928 128.072 457.216 129.024 457.792 129.664C458.384 130.288 459.264 130.6 460.432 130.6ZM475.995 133.336C474.011 133.336 472.419 132.792 471.219 131.704C470.019 130.6 469.419 128.936 469.419 126.712V122.488C469.419 120.328 470.019 118.688 471.219 117.568C472.419 116.432 474.011 115.864 475.995 115.864C477.995 115.864 479.587 116.432 480.771 117.568C481.971 118.688 482.571 120.328 482.571 122.488V126.712C482.571 128.936 481.971 130.6 480.771 131.704C479.587 132.792 477.995 133.336 475.995 133.336ZM475.995 130.6C477.195 130.6 478.075 130.272 478.635 129.616C479.211 128.96 479.499 128.024 479.499 126.808V122.344C479.499 121.112 479.179 120.184 478.539 119.56C477.915 118.92 477.067 118.6 475.995 118.6C474.891 118.6 474.027 118.928 473.403 119.584C472.795 120.24 472.491 121.16 472.491 122.344V126.808C472.491 128.072 472.779 129.024 473.355 129.664C473.947 130.288 474.827 130.6 475.995 130.6Z" fill="#1E261B" fill-opacity="0.6"/>
</g>
<g filter="url(#filter1_d_2534_1222)">
<rect x="57" y="461" width="348" height="62" rx="14" fill="white" shape-rendering="crispEdges"/>
<rect x="57.4" y="461.4" width="347.2" height="61.2" rx="13.6" stroke="#1E261B" stroke-opacity="0.09" stroke-width="0.8" shape-rendering="crispEdges"/>
<path d="M80.7188 490.065C80.6733 489.662 80.4858 489.349 80.1563 489.128C79.8267 488.903 79.4119 488.791 78.9119 488.791C78.554 488.791 78.2443 488.848 77.983 488.962C77.7216 489.072 77.5185 489.226 77.3736 489.422C77.2315 489.615 77.1605 489.835 77.1605 490.082C77.1605 490.29 77.2088 490.469 77.3054 490.619C77.4048 490.77 77.5341 490.896 77.6932 490.999C77.8551 491.098 78.0284 491.182 78.2131 491.25C78.3977 491.315 78.5753 491.369 78.7457 491.412L79.598 491.634C79.8764 491.702 80.1619 491.794 80.4545 491.911C80.7472 492.027 81.0185 492.18 81.2685 492.371C81.5185 492.561 81.7202 492.797 81.8736 493.078C82.0298 493.359 82.108 493.696 82.108 494.088C82.108 494.582 81.9801 495.021 81.7244 495.405C81.4716 495.788 81.1037 496.091 80.6207 496.313C80.1406 496.534 79.5597 496.645 78.8778 496.645C78.2244 496.645 77.6591 496.541 77.1818 496.334C76.7045 496.126 76.331 495.832 76.0611 495.452C75.7912 495.068 75.642 494.614 75.6136 494.088H76.9347C76.9602 494.403 77.0625 494.666 77.2415 494.876C77.4233 495.084 77.6548 495.239 77.9361 495.341C78.2202 495.44 78.5313 495.49 78.8693 495.49C79.2415 495.49 79.5724 495.432 79.8622 495.315C80.1548 495.196 80.3849 495.031 80.5526 494.821C80.7202 494.608 80.804 494.359 80.804 494.075C80.804 493.817 80.7301 493.605 80.5824 493.44C80.4375 493.276 80.2401 493.139 79.9901 493.031C79.7429 492.923 79.4631 492.828 79.1506 492.746L78.1193 492.464C77.4205 492.274 76.8665 491.994 76.4574 491.625C76.0511 491.256 75.848 490.767 75.848 490.159C75.848 489.656 75.9844 489.217 76.2571 488.842C76.5298 488.467 76.8991 488.176 77.3651 487.969C77.831 487.759 78.3565 487.653 78.9418 487.653C79.5327 487.653 80.054 487.757 80.5057 487.964C80.9602 488.172 81.3182 488.457 81.5795 488.821C81.8409 489.182 81.9773 489.597 81.9886 490.065H80.7188ZM85.484 496.645C85.0692 496.645 84.6942 496.568 84.359 496.415C84.0238 496.259 83.7582 496.033 83.5621 495.737C83.369 495.442 83.2724 495.08 83.2724 494.651C83.2724 494.281 83.3434 493.977 83.4854 493.739C83.6275 493.5 83.8192 493.311 84.0607 493.172C84.3022 493.033 84.5721 492.928 84.8704 492.857C85.1687 492.786 85.4727 492.732 85.7823 492.695C86.1744 492.649 86.4925 492.612 86.7369 492.584C86.9812 492.553 87.1587 492.503 87.2695 492.435C87.3803 492.366 87.4357 492.256 87.4357 492.102V492.072C87.4357 491.7 87.3306 491.412 87.1204 491.207C86.913 491.003 86.6033 490.901 86.1914 490.901C85.7624 490.901 85.4244 490.996 85.1772 491.186C84.9329 491.374 84.7639 491.582 84.6701 491.813L83.4727 491.54C83.6147 491.142 83.8221 490.821 84.0948 490.577C84.3704 490.33 84.6871 490.151 85.0451 490.04C85.4031 489.926 85.7795 489.869 86.1744 489.869C86.4357 489.869 86.7127 489.901 87.0053 489.963C87.3008 490.023 87.5764 490.134 87.832 490.295C88.0906 490.457 88.3022 490.689 88.467 490.99C88.6317 491.288 88.7141 491.676 88.7141 492.153V496.5H87.4698V495.605H87.4187C87.3363 495.77 87.2127 495.932 87.0479 496.091C86.8832 496.25 86.6715 496.382 86.413 496.487C86.1545 496.592 85.8448 496.645 85.484 496.645ZM85.761 495.622C86.1133 495.622 86.4144 495.553 86.6644 495.413C86.9173 495.274 87.109 495.092 87.2397 494.868C87.3732 494.641 87.44 494.398 87.44 494.139V493.295C87.3945 493.341 87.3065 493.384 87.1758 493.423C87.0479 493.46 86.9016 493.493 86.7369 493.521C86.5721 493.547 86.4116 493.571 86.2553 493.594C86.0991 493.614 85.9684 493.631 85.8633 493.645C85.6161 493.676 85.3903 493.729 85.1857 493.803C84.984 493.876 84.8221 493.983 84.6999 494.122C84.5806 494.259 84.521 494.44 84.521 494.668C84.521 494.983 84.6374 495.222 84.8704 495.384C85.1033 495.543 85.4002 495.622 85.761 495.622ZM95.7763 489.955L93.4027 496.5H92.0391L89.6612 489.955H91.0291L92.6868 494.991H92.755L94.4084 489.955H95.7763ZM96.9737 496.5V489.955H98.2479V496.5H96.9737ZM97.6172 488.945C97.3956 488.945 97.2053 488.871 97.0462 488.723C96.8899 488.572 96.8118 488.393 96.8118 488.186C96.8118 487.976 96.8899 487.797 97.0462 487.649C97.2053 487.499 97.3956 487.423 97.6172 487.423C97.8388 487.423 98.0277 487.499 98.184 487.649C98.343 487.797 98.4226 487.976 98.4226 488.186C98.4226 488.393 98.343 488.572 98.184 488.723C98.0277 488.871 97.8388 488.945 97.6172 488.945ZM101.236 492.614V496.5H99.962V489.955H101.185V491.02H101.266C101.417 490.673 101.652 490.395 101.973 490.185C102.297 489.974 102.705 489.869 103.196 489.869C103.642 489.869 104.033 489.963 104.368 490.151C104.703 490.335 104.963 490.611 105.148 490.977C105.333 491.344 105.425 491.797 105.425 492.337V496.5H104.151V492.49C104.151 492.016 104.027 491.645 103.78 491.378C103.533 491.108 103.194 490.973 102.762 490.973C102.466 490.973 102.203 491.037 101.973 491.165C101.746 491.293 101.566 491.48 101.432 491.727C101.301 491.972 101.236 492.267 101.236 492.614ZM109.878 499.091C109.358 499.091 108.911 499.023 108.536 498.886C108.164 498.75 107.86 498.57 107.624 498.345C107.388 498.121 107.212 497.875 107.096 497.608L108.191 497.156C108.267 497.281 108.37 497.413 108.498 497.553C108.628 497.695 108.804 497.815 109.026 497.915C109.25 498.014 109.539 498.064 109.891 498.064C110.374 498.064 110.773 497.946 111.088 497.71C111.404 497.477 111.561 497.105 111.561 496.594V495.307H111.48C111.404 495.446 111.293 495.601 111.148 495.771C111.006 495.942 110.81 496.089 110.56 496.214C110.31 496.339 109.985 496.402 109.584 496.402C109.067 496.402 108.601 496.281 108.186 496.04C107.775 495.795 107.448 495.436 107.206 494.962C106.968 494.484 106.848 493.898 106.848 493.202C106.848 492.506 106.966 491.909 107.202 491.412C107.441 490.915 107.767 490.534 108.182 490.27C108.597 490.003 109.067 489.869 109.593 489.869C109.999 489.869 110.327 489.938 110.577 490.074C110.827 490.207 111.022 490.364 111.161 490.543C111.303 490.722 111.412 490.879 111.489 491.016H111.583V489.955H112.831V496.645C112.831 497.207 112.701 497.669 112.439 498.03C112.178 498.391 111.824 498.658 111.378 498.831C110.935 499.004 110.435 499.091 109.878 499.091ZM109.865 495.345C110.232 495.345 110.542 495.26 110.794 495.089C111.05 494.916 111.243 494.669 111.374 494.348C111.507 494.024 111.574 493.636 111.574 493.185C111.574 492.744 111.509 492.357 111.378 492.021C111.248 491.686 111.056 491.425 110.803 491.237C110.55 491.047 110.238 490.952 109.865 490.952C109.482 490.952 109.162 491.051 108.907 491.25C108.651 491.446 108.458 491.713 108.327 492.051C108.199 492.389 108.135 492.767 108.135 493.185C108.135 493.614 108.201 493.99 108.331 494.314C108.462 494.638 108.655 494.891 108.911 495.072C109.169 495.254 109.488 495.345 109.865 495.345ZM119.445 491.553L118.29 491.757C118.242 491.609 118.165 491.469 118.06 491.335C117.958 491.202 117.819 491.092 117.642 491.007C117.466 490.922 117.246 490.879 116.982 490.879C116.621 490.879 116.32 490.96 116.078 491.122C115.837 491.281 115.716 491.487 115.716 491.74C115.716 491.959 115.797 492.135 115.959 492.268C116.121 492.402 116.382 492.511 116.743 492.597L117.783 492.835C118.385 492.974 118.834 493.189 119.13 493.479C119.425 493.768 119.573 494.145 119.573 494.608C119.573 495 119.459 495.349 119.232 495.656C119.007 495.96 118.694 496.199 118.29 496.372C117.89 496.545 117.425 496.632 116.897 496.632C116.164 496.632 115.566 496.476 115.103 496.163C114.64 495.848 114.355 495.401 114.25 494.821L115.482 494.634C115.559 494.955 115.716 495.197 115.955 495.362C116.194 495.524 116.505 495.605 116.888 495.605C117.306 495.605 117.64 495.518 117.89 495.345C118.14 495.169 118.265 494.955 118.265 494.702C118.265 494.497 118.188 494.325 118.034 494.186C117.884 494.047 117.652 493.942 117.34 493.871L116.232 493.628C115.621 493.489 115.169 493.267 114.877 492.963C114.587 492.659 114.442 492.274 114.442 491.808C114.442 491.422 114.55 491.084 114.766 490.794C114.982 490.504 115.28 490.278 115.661 490.116C116.042 489.952 116.478 489.869 116.969 489.869C117.676 489.869 118.233 490.023 118.64 490.33C119.046 490.634 119.314 491.041 119.445 491.553ZM124.989 496.5H123.591L126.732 487.773H128.253L131.394 496.5H129.996L127.529 489.358H127.461L124.989 496.5ZM125.223 493.082H129.757V494.19H125.223V493.082ZM135.203 496.632C134.57 496.632 134.025 496.489 133.567 496.202C133.113 495.912 132.763 495.513 132.519 495.004C132.275 494.496 132.152 493.913 132.152 493.257C132.152 492.592 132.277 492.006 132.527 491.497C132.777 490.986 133.13 490.587 133.584 490.3C134.039 490.013 134.574 489.869 135.191 489.869C135.688 489.869 136.131 489.962 136.52 490.146C136.909 490.328 137.223 490.584 137.462 490.913C137.703 491.243 137.847 491.628 137.892 492.068H136.652C136.584 491.761 136.428 491.497 136.184 491.276C135.942 491.054 135.618 490.943 135.212 490.943C134.857 490.943 134.546 491.037 134.279 491.224C134.015 491.409 133.809 491.673 133.661 492.017C133.513 492.358 133.439 492.761 133.439 493.227C133.439 493.705 133.512 494.116 133.657 494.463C133.801 494.81 134.006 495.078 134.27 495.268C134.537 495.459 134.851 495.554 135.212 495.554C135.453 495.554 135.672 495.51 135.868 495.422C136.067 495.331 136.233 495.202 136.367 495.034C136.503 494.866 136.598 494.665 136.652 494.429H137.892C137.847 494.852 137.709 495.23 137.479 495.563C137.249 495.895 136.941 496.156 136.554 496.347C136.171 496.537 135.721 496.632 135.203 496.632ZM142.012 496.632C141.379 496.632 140.833 496.489 140.376 496.202C139.921 495.912 139.572 495.513 139.327 495.004C139.083 494.496 138.961 493.913 138.961 493.257C138.961 492.592 139.086 492.006 139.336 491.497C139.586 490.986 139.938 490.587 140.393 490.3C140.847 490.013 141.383 489.869 141.999 489.869C142.496 489.869 142.94 489.962 143.329 490.146C143.718 490.328 144.032 490.584 144.271 490.913C144.512 491.243 144.656 491.628 144.701 492.068H143.461C143.393 491.761 143.237 491.497 142.992 491.276C142.751 491.054 142.427 490.943 142.021 490.943C141.665 490.943 141.354 491.037 141.087 491.224C140.823 491.409 140.617 491.673 140.469 492.017C140.322 492.358 140.248 492.761 140.248 493.227C140.248 493.705 140.32 494.116 140.465 494.463C140.61 494.81 140.815 495.078 141.079 495.268C141.346 495.459 141.66 495.554 142.021 495.554C142.262 495.554 142.481 495.51 142.677 495.422C142.876 495.331 143.042 495.202 143.175 495.034C143.312 494.866 143.407 494.665 143.461 494.429H144.701C144.656 494.852 144.518 495.23 144.288 495.563C144.058 495.895 143.749 496.156 143.363 496.347C142.979 496.537 142.529 496.632 142.012 496.632ZM148.821 496.632C148.207 496.632 147.672 496.491 147.214 496.21C146.757 495.929 146.402 495.536 146.149 495.03C145.896 494.524 145.77 493.933 145.77 493.257C145.77 492.578 145.896 491.984 146.149 491.476C146.402 490.967 146.757 490.572 147.214 490.291C147.672 490.01 148.207 489.869 148.821 489.869C149.434 489.869 149.97 490.01 150.427 490.291C150.885 490.572 151.24 490.967 151.493 491.476C151.745 491.984 151.872 492.578 151.872 493.257C151.872 493.933 151.745 494.524 151.493 495.03C151.24 495.536 150.885 495.929 150.427 496.21C149.97 496.491 149.434 496.632 148.821 496.632ZM148.825 495.563C149.223 495.563 149.552 495.457 149.814 495.247C150.075 495.037 150.268 494.757 150.393 494.408C150.521 494.058 150.585 493.673 150.585 493.253C150.585 492.835 150.521 492.452 150.393 492.102C150.268 491.75 150.075 491.467 149.814 491.254C149.552 491.041 149.223 490.935 148.825 490.935C148.424 490.935 148.092 491.041 147.828 491.254C147.566 491.467 147.372 491.75 147.244 492.102C147.119 492.452 147.056 492.835 147.056 493.253C147.056 493.673 147.119 494.058 147.244 494.408C147.372 494.757 147.566 495.037 147.828 495.247C148.092 495.457 148.424 495.563 148.825 495.563ZM157.44 493.786V489.955H158.719V496.5H157.466V495.366H157.398C157.247 495.716 157.006 496.007 156.673 496.24C156.344 496.47 155.933 496.585 155.442 496.585C155.021 496.585 154.649 496.493 154.325 496.308C154.004 496.121 153.751 495.844 153.567 495.477C153.385 495.111 153.294 494.658 153.294 494.118V489.955H154.568V493.964C154.568 494.411 154.692 494.766 154.939 495.03C155.186 495.294 155.507 495.426 155.902 495.426C156.141 495.426 156.378 495.366 156.614 495.247C156.852 495.128 157.05 494.947 157.206 494.706C157.365 494.464 157.443 494.158 157.44 493.786ZM161.705 492.614V496.5H160.431V489.955H161.654V491.02H161.735C161.885 490.673 162.121 490.395 162.442 490.185C162.766 489.974 163.174 489.869 163.665 489.869C164.111 489.869 164.502 489.963 164.837 490.151C165.172 490.335 165.432 490.611 165.617 490.977C165.802 491.344 165.894 491.797 165.894 492.337V496.5H164.62V492.49C164.62 492.016 164.496 491.645 164.249 491.378C164.002 491.108 163.662 490.973 163.23 490.973C162.935 490.973 162.672 491.037 162.442 491.165C162.215 491.293 162.034 491.48 161.901 491.727C161.77 491.972 161.705 492.267 161.705 492.614ZM170.658 489.955V490.977H167.083V489.955H170.658ZM168.042 488.386H169.316V494.578C169.316 494.825 169.353 495.011 169.427 495.136C169.5 495.259 169.596 495.342 169.712 495.388C169.831 495.43 169.961 495.452 170.1 495.452C170.202 495.452 170.292 495.445 170.368 495.43C170.445 495.416 170.505 495.405 170.547 495.396L170.777 496.449C170.703 496.477 170.598 496.506 170.462 496.534C170.326 496.565 170.155 496.582 169.951 496.585C169.615 496.591 169.303 496.531 169.013 496.406C168.723 496.281 168.489 496.088 168.31 495.827C168.131 495.565 168.042 495.237 168.042 494.842V488.386Z" fill="#1E261B" fill-opacity="0.8"/>
<path fill-rule="evenodd" clip-rule="evenodd" d="M187 485.063C183.168 485.063 180.062 488.169 180.062 492C180.062 495.831 183.168 498.938 187 498.938C190.831 498.938 193.937 495.831 193.937 492C193.937 488.169 190.831 485.063 187 485.063ZM178.937 492C178.937 487.547 182.547 483.938 187 483.938C191.452 483.938 195.062 487.547 195.062 492C195.062 496.453 191.452 500.063 187 500.063C182.547 500.063 178.937 496.453 178.937 492ZM187 486.938C187.31 486.938 187.562 487.189 187.562 487.5V487.738C188.785 487.957 189.812 488.875 189.812 490.125C189.812 490.436 189.56 490.688 189.25 490.688C188.939 490.688 188.687 490.436 188.687 490.125C188.687 489.492 188.032 488.813 187 488.813C185.967 488.813 185.312 489.492 185.312 490.125C185.312 490.758 185.967 491.438 187 491.438C188.452 491.438 189.812 492.437 189.812 493.875C189.812 495.125 188.785 496.043 187.562 496.262V496.5C187.562 496.811 187.31 497.063 187 497.063C186.689 497.063 186.437 496.811 186.437 496.5V496.262C185.214 496.043 184.187 495.125 184.187 493.875C184.187 493.564 184.439 493.313 184.75 493.313C185.06 493.313 185.312 493.564 185.312 493.875C185.312 494.508 185.967 495.188 187 495.188C188.032 495.188 188.687 494.508 188.687 493.875C188.687 493.242 188.032 492.563 187 492.563C185.547 492.563 184.187 491.563 184.187 490.125C184.187 488.875 185.214 487.957 186.437 487.738V487.5C186.437 487.189 186.689 486.938 187 486.938Z" fill="#FC7E54"/>
<path d="M277.416 500.336C276.12 500.336 274.976 500.104 273.984 499.64C272.992 499.176 272.216 498.512 271.656 497.648C271.096 496.784 270.816 495.744 270.816 494.528V493.856H273.936V494.528C273.936 495.536 274.248 496.296 274.872 496.808C275.496 497.304 276.344 497.552 277.416 497.552C278.504 497.552 279.312 497.336 279.84 496.904C280.384 496.472 280.656 495.92 280.656 495.248C280.656 494.784 280.528 494.408 280.272 494.12C280.016 493.832 279.64 493.6 279.144 493.424C278.648 493.232 278.04 493.056 277.32 492.896L276.768 492.776C275.616 492.52 274.624 492.2 273.792 491.816C272.976 491.416 272.344 490.896 271.896 490.256C271.464 489.616 271.248 488.784 271.248 487.76C271.248 486.736 271.488 485.864 271.968 485.144C272.464 484.408 273.152 483.848 274.032 483.464C274.928 483.064 275.976 482.864 277.176 482.864C278.376 482.864 279.44 483.072 280.368 483.488C281.312 483.888 282.048 484.496 282.576 485.312C283.12 486.112 283.392 487.12 283.392 488.336V489.056H280.272V488.336C280.272 487.696 280.144 487.184 279.888 486.8C279.648 486.4 279.296 486.112 278.832 485.936C278.368 485.744 277.816 485.648 277.176 485.648C276.216 485.648 275.504 485.832 275.04 486.2C274.592 486.552 274.368 487.04 274.368 487.664C274.368 488.08 274.472 488.432 274.68 488.72C274.904 489.008 275.232 489.248 275.664 489.44C276.096 489.632 276.648 489.8 277.32 489.944L277.872 490.064C279.072 490.32 280.112 490.648 280.992 491.048C281.872 491.448 282.552 491.976 283.032 492.632C283.528 493.288 283.776 494.128 283.776 495.152C283.776 496.176 283.512 497.08 282.984 497.864C282.472 498.632 281.736 499.24 280.776 499.688C279.832 500.12 278.712 500.336 277.416 500.336ZM275.952 502.784V480.416H278.832V502.784H275.952ZM291.755 500.336C290.475 500.336 289.339 500.144 288.347 499.76C287.371 499.376 286.603 498.824 286.043 498.104C285.499 497.368 285.227 496.504 285.227 495.512V495.224C285.227 494.456 285.363 493.824 285.635 493.328C285.907 492.816 286.243 492.416 286.643 492.128C287.059 491.84 287.451 491.64 287.819 491.528V491.096C287.451 490.968 287.083 490.76 286.715 490.472C286.347 490.184 286.043 489.8 285.803 489.32C285.579 488.84 285.467 488.264 285.467 487.592V487.304C285.467 486.424 285.723 485.656 286.235 485C286.763 484.328 287.499 483.808 288.443 483.44C289.387 483.056 290.491 482.864 291.755 482.864C293.019 482.864 294.123 483.056 295.067 483.44C296.011 483.808 296.739 484.328 297.251 485C297.779 485.656 298.043 486.424 298.043 487.304V487.592C298.043 488.264 297.923 488.84 297.683 489.32C297.459 489.8 297.163 490.184 296.795 490.472C296.443 490.76 296.075 490.968 295.691 491.096V491.528C296.075 491.64 296.467 491.84 296.867 492.128C297.267 492.416 297.603 492.816 297.875 493.328C298.147 493.824 298.283 494.456 298.283 495.224V495.512C298.283 496.504 298.003 497.368 297.443 498.104C296.899 498.824 296.131 499.376 295.139 499.76C294.163 500.144 293.035 500.336 291.755 500.336ZM291.755 497.6C292.859 497.6 293.707 497.392 294.299 496.976C294.907 496.544 295.211 495.976 295.211 495.272V495.08C295.211 494.376 294.915 493.816 294.323 493.4C293.747 492.968 292.891 492.752 291.755 492.752C290.635 492.752 289.779 492.968 289.187 493.4C288.595 493.816 288.299 494.376 288.299 495.08V495.272C288.299 495.976 288.595 496.544 289.187 496.976C289.795 497.392 290.651 497.6 291.755 497.6ZM291.755 490.016C292.779 490.016 293.571 489.832 294.131 489.464C294.691 489.096 294.971 488.576 294.971 487.904V487.712C294.971 487.04 294.683 486.52 294.107 486.152C293.531 485.784 292.747 485.6 291.755 485.6C290.763 485.6 289.979 485.784 289.403 486.152C288.827 486.52 288.539 487.04 288.539 487.712V487.904C288.539 488.576 288.819 489.096 289.379 489.464C289.939 489.832 290.731 490.016 291.755 490.016ZM301.855 500V499.376C301.855 498.752 301.903 498.224 301.999 497.792C302.095 497.344 302.303 496.84 302.623 496.28L308.263 486.32V485.936H299.335V483.2H311.431V486.848L305.479 497.48C305.271 497.848 305.127 498.176 305.047 498.464C304.967 498.752 304.927 499.104 304.927 499.52V500H301.855ZM319.682 500.336C317.698 500.336 316.106 499.792 314.906 498.704C313.706 497.6 313.106 495.936 313.106 493.712V489.488C313.106 487.328 313.706 485.688 314.906 484.568C316.106 483.432 317.698 482.864 319.682 482.864C321.682 482.864 323.274 483.432 324.458 484.568C325.658 485.688 326.258 487.328 326.258 489.488V493.712C326.258 495.936 325.658 497.6 324.458 498.704C323.274 499.792 321.682 500.336 319.682 500.336ZM319.682 497.6C320.882 497.6 321.762 497.272 322.322 496.616C322.898 495.96 323.186 495.024 323.186 493.808V489.344C323.186 488.112 322.866 487.184 322.226 486.56C321.602 485.92 320.754 485.6 319.682 485.6C318.578 485.6 317.714 485.928 317.09 486.584C316.482 487.24 316.178 488.16 316.178 489.344V493.808C316.178 495.072 316.466 496.024 317.042 496.664C317.634 497.288 318.514 497.6 319.682 497.6ZM335.245 500.336C333.261 500.336 331.669 499.792 330.469 498.704C329.269 497.6 328.669 495.936 328.669 493.712V489.488C328.669 487.328 329.269 485.688 330.469 484.568C331.669 483.432 333.261 482.864 335.245 482.864C337.245 482.864 338.837 483.432 340.021 484.568C341.221 485.688 341.821 487.328 341.821 489.488V493.712C341.821 495.936 341.221 497.6 340.021 498.704C338.837 499.792 337.245 500.336 335.245 500.336ZM335.245 497.6C336.445 497.6 337.325 497.272 337.885 496.616C338.461 495.96 338.749 495.024 338.749 493.808V489.344C338.749 488.112 338.429 487.184 337.789 486.56C337.165 485.92 336.317 485.6 335.245 485.6C334.141 485.6 333.277 485.928 332.653 486.584C332.045 487.24 331.741 488.16 331.741 489.344V493.808C331.741 495.072 332.029 496.024 332.605 496.664C333.197 497.288 334.077 497.6 335.245 497.6ZM346.326 500.336C345.686 500.336 345.142 500.128 344.694 499.712C344.262 499.28 344.046 498.728 344.046 498.056C344.046 497.384 344.262 496.84 344.694 496.424C345.142 495.992 345.686 495.776 346.326 495.776C346.982 495.776 347.526 495.992 347.958 496.424C348.39 496.84 348.606 497.384 348.606 498.056C348.606 498.728 348.39 499.28 347.958 499.712C347.526 500.128 346.982 500.336 346.326 500.336Z" fill="#1E261B"/>
<path d="M357.393 500.336C355.409 500.336 353.817 499.792 352.617 498.704C351.417 497.6 350.817 495.936 350.817 493.712V489.488C350.817 487.328 351.417 485.688 352.617 484.568C353.817 483.432 355.409 482.864 357.393 482.864C359.393 482.864 360.985 483.432 362.169 484.568C363.369 485.688 363.969 487.328 363.969 489.488V493.712C363.969 495.936 363.369 497.6 362.169 498.704C360.985 499.792 359.393 500.336 357.393 500.336ZM357.393 497.6C358.593 497.6 359.473 497.272 360.033 496.616C360.609 495.96 360.897 495.024 360.897 493.808V489.344C360.897 488.112 360.577 487.184 359.937 486.56C359.313 485.92 358.465 485.6 357.393 485.6C356.289 485.6 355.425 485.928 354.801 486.584C354.193 487.24 353.889 488.16 353.889 489.344V493.808C353.889 495.072 354.177 496.024 354.753 496.664C355.345 497.288 356.225 497.6 357.393 497.6ZM372.956 500.336C370.972 500.336 369.38 499.792 368.18 498.704C366.98 497.6 366.38 495.936 366.38 493.712V489.488C366.38 487.328 366.98 485.688 368.18 484.568C369.38 483.432 370.972 482.864 372.956 482.864C374.956 482.864 376.548 483.432 377.732 484.568C378.932 485.688 379.532 487.328 379.532 489.488V493.712C379.532 495.936 378.932 497.6 377.732 498.704C376.548 499.792 374.956 500.336 372.956 500.336ZM372.956 497.6C374.156 497.6 375.036 497.272 375.596 496.616C376.172 495.96 376.46 495.024 376.46 493.808V489.344C376.46 488.112 376.14 487.184 375.5 486.56C374.876 485.92 374.028 485.6 372.956 485.6C371.852 485.6 370.988 485.928 370.364 486.584C369.756 487.24 369.452 488.16 369.452 489.344V493.808C369.452 495.072 369.74 496.024 370.316 496.664C370.908 497.288 371.788 497.6 372.956 497.6Z" fill="#1E261B" fill-opacity="0.6"/>
</g>
<rect x="100" y="172" width="348" height="273" rx="18" fill="url(#paint1_linear_2534_1222)"/>
<path d="M125.12 211V199.48H129.608C130.296 199.48 130.883 199.621 131.368 199.904C131.859 200.187 132.232 200.56 132.488 201.024C132.749 201.483 132.88 201.979 132.88 202.512C132.88 203.136 132.72 203.683 132.4 204.152C132.08 204.621 131.648 204.944 131.104 205.12L131.088 204.728C131.829 204.925 132.405 205.288 132.816 205.816C133.227 206.344 133.432 206.973 133.432 207.704C133.432 208.376 133.293 208.957 133.016 209.448C132.744 209.939 132.349 210.32 131.832 210.592C131.32 210.864 130.712 211 130.008 211H125.12ZM126.56 209.64H129.736C130.163 209.64 130.544 209.563 130.88 209.408C131.216 209.248 131.48 209.024 131.672 208.736C131.869 208.448 131.968 208.101 131.968 207.696C131.968 207.307 131.88 206.957 131.704 206.648C131.533 206.339 131.291 206.093 130.976 205.912C130.667 205.725 130.307 205.632 129.896 205.632H126.56V209.64ZM126.56 204.288H129.592C129.933 204.288 130.24 204.216 130.512 204.072C130.789 203.923 131.008 203.715 131.168 203.448C131.333 203.181 131.416 202.869 131.416 202.512C131.416 202.016 131.248 201.611 130.912 201.296C130.576 200.981 130.136 200.824 129.592 200.824H126.56V204.288ZM139.57 211.24C138.68 211.24 137.893 211.056 137.21 210.688C136.528 210.32 135.992 209.805 135.602 209.144C135.218 208.477 135.026 207.696 135.026 206.8V199.488L136.466 199.48V206.68C136.466 207.224 136.557 207.699 136.738 208.104C136.925 208.504 137.17 208.837 137.474 209.104C137.778 209.371 138.112 209.571 138.474 209.704C138.842 209.832 139.208 209.896 139.57 209.896C139.938 209.896 140.306 209.829 140.674 209.696C141.042 209.563 141.376 209.365 141.674 209.104C141.978 208.837 142.221 208.501 142.402 208.096C142.584 207.691 142.674 207.219 142.674 206.68V199.48H144.114V206.8C144.114 207.691 143.92 208.469 143.53 209.136C143.146 209.803 142.613 210.32 141.93 210.688C141.248 211.056 140.461 211.24 139.57 211.24ZM149.958 211.24C149.142 211.24 148.406 211.101 147.75 210.824C147.099 210.547 146.561 210.152 146.134 209.64C145.713 209.123 145.438 208.512 145.31 207.808L146.782 207.576C146.969 208.301 147.355 208.869 147.942 209.28C148.534 209.685 149.23 209.888 150.03 209.888C150.547 209.888 151.014 209.808 151.43 209.648C151.851 209.483 152.185 209.248 152.43 208.944C152.675 208.64 152.798 208.28 152.798 207.864C152.798 207.608 152.753 207.389 152.662 207.208C152.577 207.021 152.457 206.864 152.302 206.736C152.153 206.603 151.982 206.491 151.79 206.4C151.598 206.309 151.398 206.235 151.19 206.176L148.254 205.304C147.934 205.208 147.625 205.088 147.326 204.944C147.027 204.795 146.761 204.611 146.526 204.392C146.291 204.168 146.105 203.901 145.966 203.592C145.827 203.277 145.758 202.907 145.758 202.48C145.758 201.797 145.934 201.216 146.286 200.736C146.643 200.251 147.126 199.88 147.734 199.624C148.342 199.368 149.027 199.243 149.79 199.248C150.563 199.253 151.254 199.392 151.862 199.664C152.475 199.931 152.982 200.315 153.382 200.816C153.787 201.317 154.059 201.917 154.198 202.616L152.686 202.88C152.606 202.411 152.427 202.008 152.15 201.672C151.878 201.331 151.537 201.069 151.126 200.888C150.715 200.701 150.265 200.605 149.774 200.6C149.305 200.595 148.881 200.669 148.502 200.824C148.123 200.979 147.822 201.195 147.598 201.472C147.374 201.744 147.262 202.059 147.262 202.416C147.262 202.768 147.363 203.053 147.566 203.272C147.769 203.485 148.017 203.656 148.31 203.784C148.609 203.907 148.899 204.008 149.182 204.088L151.374 204.72C151.625 204.789 151.913 204.885 152.238 205.008C152.569 205.131 152.889 205.304 153.198 205.528C153.507 205.747 153.763 206.04 153.966 206.408C154.169 206.771 154.27 207.229 154.27 207.784C154.27 208.339 154.158 208.832 153.934 209.264C153.715 209.696 153.409 210.059 153.014 210.352C152.619 210.64 152.161 210.859 151.638 211.008C151.115 211.163 150.555 211.24 149.958 211.24ZM156.108 211V199.48H157.532V211H156.108ZM159.933 211V199.48H161.373L167.381 208.48V199.48H168.821V211H167.381L161.373 201.992V211H159.933ZM171.058 211V199.48H178.338V200.832H172.482V204.44H177.378V205.792H172.482V209.648H178.338V211H171.058ZM184.021 211.24C183.205 211.24 182.469 211.101 181.813 210.824C181.162 210.547 180.623 210.152 180.197 209.64C179.775 209.123 179.501 208.512 179.373 207.808L180.845 207.576C181.031 208.301 181.418 208.869 182.005 209.28C182.597 209.685 183.293 209.888 184.093 209.888C184.61 209.888 185.077 209.808 185.493 209.648C185.914 209.483 186.247 209.248 186.493 208.944C186.738 208.64 186.861 208.28 186.861 207.864C186.861 207.608 186.815 207.389 186.725 207.208C186.639 207.021 186.519 206.864 186.365 206.736C186.215 206.603 186.045 206.491 185.853 206.4C185.661 206.309 185.461 206.235 185.253 206.176L182.317 205.304C181.997 205.208 181.687 205.088 181.389 204.944C181.09 204.795 180.823 204.611 180.589 204.392C180.354 204.168 180.167 203.901 180.029 203.592C179.89 203.277 179.821 202.907 179.821 202.48C179.821 201.797 179.997 201.216 180.349 200.736C180.706 200.251 181.189 199.88 181.797 199.624C182.405 199.368 183.09 199.243 183.853 199.248C184.626 199.253 185.317 199.392 185.925 199.664C186.538 199.931 187.045 200.315 187.444 200.816C187.85 201.317 188.122 201.917 188.261 202.616L186.749 202.88C186.669 202.411 186.49 202.008 186.213 201.672C185.941 201.331 185.599 201.069 185.189 200.888C184.778 200.701 184.327 200.605 183.837 200.6C183.367 200.595 182.943 200.669 182.565 200.824C182.186 200.979 181.885 201.195 181.661 201.472C181.437 201.744 181.325 202.059 181.325 202.416C181.325 202.768 181.426 203.053 181.629 203.272C181.831 203.485 182.079 203.656 182.373 203.784C182.671 203.907 182.962 204.008 183.245 204.088L185.437 204.72C185.687 204.789 185.975 204.885 186.301 205.008C186.631 205.131 186.951 205.304 187.26 205.528C187.57 205.747 187.826 206.04 188.029 206.408C188.231 206.771 188.333 207.229 188.333 207.784C188.333 208.339 188.221 208.832 187.997 209.264C187.778 209.696 187.471 210.059 187.076 210.352C186.682 210.64 186.223 210.859 185.701 211.008C185.178 211.163 184.618 211.24 184.021 211.24ZM194.333 211.24C193.517 211.24 192.781 211.101 192.125 210.824C191.474 210.547 190.936 210.152 190.509 209.64C190.088 209.123 189.813 208.512 189.685 207.808L191.157 207.576C191.344 208.301 191.73 208.869 192.317 209.28C192.909 209.685 193.605 209.888 194.405 209.888C194.922 209.888 195.389 209.808 195.805 209.648C196.226 209.483 196.56 209.248 196.805 208.944C197.05 208.64 197.173 208.28 197.173 207.864C197.173 207.608 197.128 207.389 197.037 207.208C196.952 207.021 196.832 206.864 196.677 206.736C196.528 206.603 196.357 206.491 196.165 206.4C195.973 206.309 195.773 206.235 195.565 206.176L192.629 205.304C192.309 205.208 192 205.088 191.701 204.944C191.402 204.795 191.136 204.611 190.901 204.392C190.666 204.168 190.48 203.901 190.341 203.592C190.202 203.277 190.133 202.907 190.133 202.48C190.133 201.797 190.309 201.216 190.661 200.736C191.018 200.251 191.501 199.88 192.109 199.624C192.717 199.368 193.402 199.243 194.165 199.248C194.938 199.253 195.629 199.392 196.237 199.664C196.85 199.931 197.357 200.315 197.757 200.816C198.162 201.317 198.434 201.917 198.573 202.616L197.061 202.88C196.981 202.411 196.802 202.008 196.525 201.672C196.253 201.331 195.912 201.069 195.501 200.888C195.09 200.701 194.64 200.605 194.149 200.6C193.68 200.595 193.256 200.669 192.877 200.824C192.498 200.979 192.197 201.195 191.973 201.472C191.749 201.744 191.637 202.059 191.637 202.416C191.637 202.768 191.738 203.053 191.941 203.272C192.144 203.485 192.392 203.656 192.685 203.784C192.984 203.907 193.274 204.008 193.557 204.088L195.749 204.72C196 204.789 196.288 204.885 196.613 205.008C196.944 205.131 197.264 205.304 197.573 205.528C197.882 205.747 198.138 206.04 198.341 206.408C198.544 206.771 198.645 207.229 198.645 207.784C198.645 208.339 198.533 208.832 198.309 209.264C198.09 209.696 197.784 210.059 197.389 210.352C196.994 210.64 196.536 210.859 196.013 211.008C195.49 211.163 194.93 211.24 194.333 211.24ZM202.726 211L206.582 199.48H208.566L212.422 211H210.942L207.334 200.312H207.782L204.206 211H202.726ZM204.582 208.304V206.968H210.566V208.304H204.582ZM218.278 211.24C217.131 211.24 216.158 210.987 215.358 210.48C214.558 209.973 213.947 209.269 213.526 208.368C213.11 207.467 212.902 206.424 212.902 205.24C212.902 204.056 213.11 203.013 213.526 202.112C213.947 201.211 214.558 200.507 215.358 200C216.158 199.493 217.131 199.24 218.278 199.24C219.611 199.24 220.707 199.579 221.566 200.256C222.43 200.933 223.025 201.845 223.35 202.992L221.902 203.376C221.667 202.517 221.249 201.84 220.646 201.344C220.043 200.848 219.254 200.6 218.278 200.6C217.419 200.6 216.705 200.795 216.134 201.184C215.563 201.573 215.134 202.117 214.846 202.816C214.558 203.509 214.411 204.317 214.406 205.24C214.401 206.157 214.542 206.965 214.83 207.664C215.118 208.357 215.55 208.901 216.126 209.296C216.702 209.685 217.419 209.88 218.278 209.88C219.254 209.88 220.043 209.632 220.646 209.136C221.249 208.635 221.667 207.957 221.902 207.104L223.35 207.488C223.025 208.629 222.43 209.541 221.566 210.224C220.707 210.901 219.611 211.24 218.278 211.24ZM229.84 211.24C228.694 211.24 227.72 210.987 226.92 210.48C226.12 209.973 225.51 209.269 225.088 208.368C224.672 207.467 224.464 206.424 224.464 205.24C224.464 204.056 224.672 203.013 225.088 202.112C225.51 201.211 226.12 200.507 226.92 200C227.72 199.493 228.694 199.24 229.84 199.24C231.174 199.24 232.27 199.579 233.128 200.256C233.992 200.933 234.587 201.845 234.912 202.992L233.464 203.376C233.23 202.517 232.811 201.84 232.208 201.344C231.606 200.848 230.816 200.6 229.84 200.6C228.982 200.6 228.267 200.795 227.696 201.184C227.126 201.573 226.696 202.117 226.408 202.816C226.12 203.509 225.974 204.317 225.968 205.24C225.963 206.157 226.104 206.965 226.392 207.664C226.68 208.357 227.112 208.901 227.688 209.296C228.264 209.685 228.982 209.88 229.84 209.88C230.816 209.88 231.606 209.632 232.208 209.136C232.811 208.635 233.23 207.957 233.464 207.104L234.912 207.488C234.587 208.629 233.992 209.541 233.128 210.224C232.27 210.901 231.174 211.24 229.84 211.24ZM241.403 211.24C240.256 211.24 239.283 210.987 238.483 210.48C237.683 209.973 237.072 209.269 236.651 208.368C236.235 207.467 236.027 206.424 236.027 205.24C236.027 204.056 236.235 203.013 236.651 202.112C237.072 201.211 237.683 200.507 238.483 200C239.283 199.493 240.256 199.24 241.403 199.24C242.555 199.24 243.531 199.493 244.331 200C245.131 200.507 245.739 201.211 246.155 202.112C246.571 203.013 246.779 204.056 246.779 205.24C246.779 206.424 246.571 207.467 246.155 208.368C245.739 209.269 245.131 209.973 244.331 210.48C243.531 210.987 242.555 211.24 241.403 211.24ZM241.403 209.88C242.262 209.885 242.976 209.693 243.547 209.304C244.123 208.909 244.552 208.363 244.835 207.664C245.123 206.965 245.267 206.157 245.267 205.24C245.267 204.317 245.123 203.509 244.835 202.816C244.552 202.123 244.123 201.581 243.547 201.192C242.976 200.803 242.262 200.605 241.403 200.6C240.544 200.595 239.83 200.787 239.259 201.176C238.694 201.565 238.267 202.109 237.979 202.808C237.691 203.507 237.544 204.317 237.539 205.24C237.534 206.157 237.675 206.963 237.963 207.656C238.251 208.349 238.68 208.893 239.251 209.288C239.827 209.677 240.544 209.875 241.403 209.88ZM252.93 211.24C252.039 211.24 251.252 211.056 250.57 210.688C249.887 210.32 249.351 209.805 248.962 209.144C248.578 208.477 248.386 207.696 248.386 206.8V199.488L249.826 199.48V206.68C249.826 207.224 249.916 207.699 250.098 208.104C250.284 208.504 250.53 208.837 250.834 209.104C251.138 209.371 251.471 209.571 251.834 209.704C252.202 209.832 252.567 209.896 252.93 209.896C253.298 209.896 253.666 209.829 254.034 209.696C254.402 209.563 254.735 209.365 255.034 209.104C255.338 208.837 255.58 208.501 255.762 208.096C255.943 207.691 256.034 207.219 256.034 206.68V199.48H257.474V206.8C257.474 207.691 257.279 208.469 256.89 209.136C256.506 209.803 255.972 210.32 255.29 210.688C254.607 211.056 253.82 211.24 252.93 211.24ZM259.714 211V199.48H261.154L267.162 208.48V199.48H268.602V211H267.162L261.154 201.992V211H259.714ZM273.807 211V200.832H269.879V199.48H279.159V200.832H275.231V211H273.807Z" fill="#F7F6F1"/>
<path d="M125.415 415H124.307L127.511 406.273H128.602L131.807 415H130.699L128.091 407.653H128.023L125.415 415ZM125.824 411.591H130.29V412.528H125.824V411.591ZM133.886 406.273H135.148L138.113 413.517H138.216L141.182 406.273H142.443V415H141.454V408.369H141.369L138.642 415H137.687L134.96 408.369H134.875V415H133.886V406.273ZM152.646 410.636C152.646 411.557 152.479 412.352 152.147 413.023C151.815 413.693 151.359 414.21 150.779 414.574C150.2 414.938 149.538 415.119 148.793 415.119C148.049 415.119 147.387 414.938 146.808 414.574C146.228 414.21 145.772 413.693 145.44 413.023C145.107 412.352 144.941 411.557 144.941 410.636C144.941 409.716 145.107 408.92 145.44 408.25C145.772 407.58 146.228 407.062 146.808 406.699C147.387 406.335 148.049 406.153 148.793 406.153C149.538 406.153 150.2 406.335 150.779 406.699C151.359 407.062 151.815 407.58 152.147 408.25C152.479 408.92 152.646 409.716 152.646 410.636ZM151.623 410.636C151.623 409.881 151.496 409.243 151.244 408.723C150.994 408.203 150.654 407.81 150.225 407.543C149.799 407.276 149.322 407.142 148.793 407.142C148.265 407.142 147.786 407.276 147.357 407.543C146.931 407.81 146.592 408.203 146.339 408.723C146.089 409.243 145.964 409.881 145.964 410.636C145.964 411.392 146.089 412.03 146.339 412.55C146.592 413.07 146.931 413.463 147.357 413.73C147.786 413.997 148.265 414.131 148.793 414.131C149.322 414.131 149.799 413.997 150.225 413.73C150.654 413.463 150.994 413.07 151.244 412.55C151.496 412.03 151.623 411.392 151.623 410.636ZM160.87 406.273H161.927V412.051C161.927 412.648 161.786 413.18 161.505 413.649C161.226 414.115 160.833 414.483 160.324 414.753C159.816 415.02 159.219 415.153 158.535 415.153C157.85 415.153 157.253 415.02 156.745 414.753C156.236 414.483 155.841 414.115 155.56 413.649C155.282 413.18 155.143 412.648 155.143 412.051V406.273H156.199V411.966C156.199 412.392 156.293 412.771 156.481 413.104C156.668 413.433 156.935 413.693 157.282 413.884C157.631 414.071 158.049 414.165 158.535 414.165C159.02 414.165 159.438 414.071 159.787 413.884C160.137 413.693 160.404 413.433 160.589 413.104C160.776 412.771 160.87 412.392 160.87 411.966V406.273ZM171.678 406.273V415H170.655L165.899 408.148H165.814V415H164.757V406.273H165.78L170.553 413.142H170.638V406.273H171.678ZM174.035 407.21V406.273H180.58V407.21H177.836V415H176.779V407.21H174.035Z" fill="#F7F6F1"/>
<path d="M355.944 417.224C355.08 417.224 354.317 417.069 353.656 416.76C352.995 416.451 352.477 416.008 352.104 415.432C351.731 414.856 351.544 414.163 351.544 413.352V412.904H353.624V413.352C353.624 414.024 353.832 414.531 354.248 414.872C354.664 415.203 355.229 415.368 355.944 415.368C356.669 415.368 357.208 415.224 357.56 414.936C357.923 414.648 358.104 414.28 358.104 413.832C358.104 413.523 358.019 413.272 357.848 413.08C357.677 412.888 357.427 412.733 357.096 412.616C356.765 412.488 356.36 412.371 355.88 412.264L355.512 412.184C354.744 412.013 354.083 411.8 353.528 411.544C352.984 411.277 352.563 410.931 352.264 410.504C351.976 410.077 351.832 409.523 351.832 408.84C351.832 408.157 351.992 407.576 352.312 407.096C352.643 406.605 353.101 406.232 353.688 405.976C354.285 405.709 354.984 405.576 355.784 405.576C356.584 405.576 357.293 405.715 357.912 405.992C358.541 406.259 359.032 406.664 359.384 407.208C359.747 407.741 359.928 408.413 359.928 409.224V409.704H357.848V409.224C357.848 408.797 357.763 408.456 357.592 408.2C357.432 407.933 357.197 407.741 356.888 407.624C356.579 407.496 356.211 407.432 355.784 407.432C355.144 407.432 354.669 407.555 354.36 407.8C354.061 408.035 353.912 408.36 353.912 408.776C353.912 409.053 353.981 409.288 354.12 409.48C354.269 409.672 354.488 409.832 354.776 409.96C355.064 410.088 355.432 410.2 355.88 410.296L356.248 410.376C357.048 410.547 357.741 410.765 358.328 411.032C358.915 411.299 359.368 411.651 359.688 412.088C360.019 412.525 360.184 413.085 360.184 413.768C360.184 414.451 360.008 415.053 359.656 415.576C359.315 416.088 358.824 416.493 358.184 416.792C357.555 417.08 356.808 417.224 355.944 417.224ZM354.968 418.856V403.944H356.888V418.856H354.968ZM364.831 417V407.304H364.543L363.039 410.856H360.895L363.183 405.8H366.879V417H364.831ZM372.786 417.224C371.911 417.224 371.154 417.069 370.514 416.76C369.884 416.451 369.399 416.013 369.058 415.448C368.716 414.883 368.546 414.227 368.546 413.48V413.32H370.626V413.464C370.626 413.997 370.802 414.456 371.154 414.84C371.516 415.213 372.05 415.4 372.754 415.4C373.458 415.4 373.996 415.213 374.37 414.84C374.754 414.456 374.946 413.96 374.946 413.352V413.192C374.946 412.595 374.754 412.12 374.37 411.768C373.996 411.416 373.527 411.24 372.962 411.24C372.652 411.24 372.396 411.283 372.194 411.368C371.991 411.453 371.826 411.56 371.698 411.688C371.57 411.816 371.463 411.944 371.378 412.072H368.898V405.8H376.546V407.656H370.946V410.392H371.234C371.34 410.253 371.484 410.12 371.666 409.992C371.847 409.864 372.082 409.757 372.37 409.672C372.658 409.587 372.999 409.544 373.394 409.544C374.055 409.544 374.658 409.683 375.202 409.96C375.746 410.237 376.178 410.648 376.498 411.192C376.828 411.725 376.994 412.387 376.994 413.176V413.368C376.994 414.157 376.823 414.84 376.482 415.416C376.151 415.992 375.671 416.44 375.042 416.76C374.412 417.069 373.66 417.224 372.786 417.224ZM382.715 417.224C381.393 417.224 380.331 416.861 379.531 416.136C378.731 415.4 378.331 414.291 378.331 412.808V409.992C378.331 408.552 378.731 407.459 379.531 406.712C380.331 405.955 381.393 405.576 382.715 405.576C384.049 405.576 385.11 405.955 385.899 406.712C386.699 407.459 387.099 408.552 387.099 409.992V412.808C387.099 414.291 386.699 415.4 385.899 416.136C385.11 416.861 384.049 417.224 382.715 417.224ZM382.715 415.4C383.515 415.4 384.102 415.181 384.475 414.744C384.859 414.307 385.051 413.683 385.051 412.872V409.896C385.051 409.075 384.838 408.456 384.411 408.04C383.995 407.613 383.43 407.4 382.715 407.4C381.979 407.4 381.403 407.619 380.987 408.056C380.582 408.493 380.379 409.107 380.379 409.896V412.872C380.379 413.715 380.571 414.349 380.955 414.776C381.35 415.192 381.937 415.4 382.715 415.4ZM393.09 417.224C391.768 417.224 390.706 416.861 389.906 416.136C389.106 415.4 388.706 414.291 388.706 412.808V409.992C388.706 408.552 389.106 407.459 389.906 406.712C390.706 405.955 391.768 405.576 393.09 405.576C394.424 405.576 395.485 405.955 396.274 406.712C397.074 407.459 397.474 408.552 397.474 409.992V412.808C397.474 414.291 397.074 415.4 396.274 416.136C395.485 416.861 394.424 417.224 393.09 417.224ZM393.09 415.4C393.89 415.4 394.477 415.181 394.85 414.744C395.234 414.307 395.426 413.683 395.426 412.872V409.896C395.426 409.075 395.213 408.456 394.786 408.04C394.37 407.613 393.805 407.4 393.09 407.4C392.354 407.4 391.778 407.619 391.362 408.056C390.957 408.493 390.754 409.107 390.754 409.896V412.872C390.754 413.715 390.946 414.349 391.33 414.776C391.725 415.192 392.312 415.4 393.09 415.4Z" fill="white"/>
<path d="M400.478 417.224C400.051 417.224 399.688 417.085 399.39 416.808C399.102 416.52 398.958 416.152 398.958 415.704C398.958 415.256 399.102 414.893 399.39 414.616C399.688 414.328 400.051 414.184 400.478 414.184C400.915 414.184 401.278 414.328 401.566 414.616C401.854 414.893 401.998 415.256 401.998 415.704C401.998 416.152 401.854 416.52 401.566 416.808C401.278 417.085 400.915 417.224 400.478 417.224ZM407.856 417.224C406.533 417.224 405.472 416.861 404.672 416.136C403.872 415.4 403.472 414.291 403.472 412.808V409.992C403.472 408.552 403.872 407.459 404.672 406.712C405.472 405.955 406.533 405.576 407.856 405.576C409.189 405.576 410.251 405.955 411.04 406.712C411.84 407.459 412.24 408.552 412.24 409.992V412.808C412.24 414.291 411.84 415.4 411.04 416.136C410.251 416.861 409.189 417.224 407.856 417.224ZM407.856 415.4C408.656 415.4 409.243 415.181 409.616 414.744C410 414.307 410.192 413.683 410.192 412.872V409.896C410.192 409.075 409.979 408.456 409.552 408.04C409.136 407.613 408.571 407.4 407.856 407.4C407.12 407.4 406.544 407.619 406.128 408.056C405.723 408.493 405.52 409.107 405.52 409.896V412.872C405.52 413.715 405.712 414.349 406.096 414.776C406.491 415.192 407.077 415.4 407.856 415.4ZM418.231 417.224C416.908 417.224 415.847 416.861 415.047 416.136C414.247 415.4 413.847 414.291 413.847 412.808V409.992C413.847 408.552 414.247 407.459 415.047 406.712C415.847 405.955 416.908 405.576 418.231 405.576C419.564 405.576 420.626 405.955 421.415 406.712C422.215 407.459 422.615 408.552 422.615 409.992V412.808C422.615 414.291 422.215 415.4 421.415 416.136C420.626 416.861 419.564 417.224 418.231 417.224ZM418.231 415.4C419.031 415.4 419.618 415.181 419.991 414.744C420.375 414.307 420.567 413.683 420.567 412.872V409.896C420.567 409.075 420.354 408.456 419.927 408.04C419.511 407.613 418.946 407.4 418.231 407.4C417.495 407.4 416.919 407.619 416.503 408.056C416.098 408.493 415.895 409.107 415.895 409.896V412.872C415.895 413.715 416.087 414.349 416.471 414.776C416.866 415.192 417.452 415.4 418.231 415.4Z" fill="white" fill-opacity="0.6"/>
<rect x="269" y="268" width="5" height="80" fill="white"/>
<rect x="274" y="305" width="5" height="42" transform="rotate(90 274 305)" fill="white"/>
<rect x="316" y="305" width="5" height="38" transform="rotate(90 316 305)" fill="white"/>
<defs>
<filter id="filter0_d_2534_1222" x="142" y="84" width="388" height="102" filterUnits="userSpaceOnUse" color-interpolation-filters="sRGB">
<feFlood flood-opacity="0" result="BackgroundImageFix"/>
<feColorMatrix in="SourceAlpha" type="matrix" values="0 0 0 0 0 0 0 0 0 0 0 0 0 0 0 0 0 0 127 0" result="hardAlpha"/>
<feOffset dx="10" dy="10"/>
<feGaussianBlur stdDeviation="10"/>
<feComposite in2="hardAlpha" operator="out"/>
<feColorMatrix type="matrix" values="0 0 0 0 0.117647 0 0 0 0 0.14902 0 0 0 0 0.105882 0 0 0 0.07 0"/>
<feBlend mode="normal" in2="BackgroundImageFix" result="effect1_dropShadow_2534_1222"/>
<feBlend mode="normal" in="SourceGraphic" in2="effect1_dropShadow_2534_1222" result="shape"/>
</filter>
<filter id="filter1_d_2534_1222" x="47" y="451" width="388" height="102" filterUnits="userSpaceOnUse" color-interpolation-filters="sRGB">
<feFlood flood-opacity="0" result="BackgroundImageFix"/>
<feColorMatrix in="SourceAlpha" type="matrix" values="0 0 0 0 0 0 0 0 0 0 0 0 0 0 0 0 0 0 127 0" result="hardAlpha"/>
<feOffset dx="10" dy="10"/>
<feGaussianBlur stdDeviation="10"/>
<feComposite in2="hardAlpha" operator="out"/>
<feColorMatrix type="matrix" values="0 0 0 0 0.117647 0 0 0 0 0.14902 0 0 0 0 0.105882 0 0 0 0.07 0"/>
<feBlend mode="normal" in2="BackgroundImageFix" result="effect1_dropShadow_2534_1222"/>
<feBlend mode="normal" in="SourceGraphic" in2="effect1_dropShadow_2534_1222" result="shape"/>
</filter>
<radialGradient id="paint0_radial_2534_1222" cx="0" cy="0" r="1" gradientUnits="userSpaceOnUse" gradientTransform="translate(177.5 -2.11e-05) rotate(90) scale(177 185.287)">
<stop/>
<stop offset="0.953125" stop-opacity="0"/>
</radialGradient>
<linearGradient id="paint1_linear_2534_1222" x1="274" y1="172" x2="1186.5" y2="1963" gradientUnits="userSpaceOnUse">
<stop stop-color="#464E41"/>
<stop offset="1" stop-color="#E1C053"/>
</linearGradient>
<clipPath id="clip0_2534_1222">
<rect width="544" height="586" fill="white" transform="translate(551 615) rotate(-180)"/>
</clipPath>
<clipPath id="clip1_2534_1222">
<rect x="1415" y="643" width="1920" height="1440" transform="rotate(-180 1415 643)" fill="white"/>
</clipPath>
</defs>
</svg>
