<svg width="179" height="56" viewBox="0 0 179 56" fill="none" xmlns="http://www.w3.org/2000/svg">
<g clip-path="url(#clip0_2556_140)">
<mask id="mask0_2556_140" style="mask-type:luminance" maskUnits="userSpaceOnUse" x="0" y="0" width="179" height="56">
<path d="M178.541 0.339844H0.77002V55.0385H178.541V0.339844Z" fill="white"/>
</mask>
<g mask="url(#mask0_2556_140)">
<path d="M177.633 50.042C177.633 50.7747 177.502 51.5002 177.246 52.1771C176.99 52.854 176.614 53.4689 176.141 53.9868C175.669 54.5047 175.107 54.9153 174.489 55.1951C173.871 55.475 173.209 55.6187 172.54 55.6179H5.86968C4.51881 55.6194 3.22268 55.0329 2.26635 53.9872C1.31001 52.9416 0.77178 51.5225 0.77002 50.042V5.57543C0.771779 4.09425 1.3098 2.67436 2.26594 1.62755C3.22209 0.580743 4.5182 -0.00742803 5.86968 -0.0078125H172.539C173.208 -0.00781253 173.87 0.136613 174.488 0.417215C175.106 0.697817 175.668 1.1091 176.141 1.62757C176.614 2.14604 176.989 2.76154 177.245 3.43892C177.5 4.11631 177.633 4.8423 177.633 5.57543L177.633 50.042Z" fill="white"/>
<rect x="53.2661" y="6.22656" width="106.185" height="14.3171" fill="white"/>
<path d="M69.1616 9.90021H67.4997C67.4358 9.5451 67.3168 9.2326 67.1428 8.96271C66.9688 8.69283 66.7557 8.46378 66.5036 8.27557C66.2515 8.08736 65.9692 7.94531 65.6567 7.84943C65.3477 7.75355 65.0192 7.70561 64.6712 7.70561C64.0427 7.70561 63.4798 7.86364 62.9827 8.17969C62.4891 8.49574 62.0984 8.95916 61.8108 9.56996C61.5267 10.1808 61.3846 10.9265 61.3846 11.8072C61.3846 12.695 61.5267 13.4442 61.8108 14.055C62.0984 14.6658 62.4908 15.1275 62.988 15.44C63.4851 15.7525 64.0445 15.9087 64.6659 15.9087C65.0104 15.9087 65.3371 15.8626 65.646 15.7702C65.9585 15.6744 66.2408 15.5341 66.493 15.3494C66.7451 15.1648 66.9582 14.9393 67.1322 14.6729C67.3097 14.4031 67.4322 14.0941 67.4997 13.7461L69.1616 13.7514C69.0729 14.2876 68.9006 14.7812 68.6449 15.2322C68.3928 15.6797 68.0679 16.0668 67.6702 16.3935C67.276 16.7166 66.825 16.967 66.3172 17.1445C65.8094 17.3221 65.2554 17.4109 64.6552 17.4109C63.7106 17.4109 62.869 17.1871 62.1304 16.7397C61.3918 16.2887 60.8094 15.6442 60.3832 14.8061C59.9606 13.968 59.7494 12.9684 59.7494 11.8072C59.7494 10.6424 59.9624 9.64276 60.3886 8.80824C60.8147 7.97017 61.3971 7.32741 62.1357 6.87997C62.8744 6.42898 63.7142 6.20348 64.6552 6.20348C65.2341 6.20348 65.7739 6.28693 66.2746 6.45384C66.7788 6.61719 67.2316 6.85866 67.6329 7.17827C68.0342 7.49432 68.3662 7.88139 68.629 8.33949C68.8918 8.79403 69.0693 9.31428 69.1616 9.90021ZM74.4497 17.4268C73.6827 17.4268 73.0133 17.2511 72.4416 16.8995C71.8698 16.5479 71.4259 16.0561 71.1099 15.424C70.7938 14.7919 70.6358 14.0533 70.6358 13.2081C70.6358 12.3594 70.7938 11.6172 71.1099 10.9815C71.4259 10.3459 71.8698 9.85227 72.4416 9.50071C73.0133 9.14915 73.6827 8.97337 74.4497 8.97337C75.2168 8.97337 75.8862 9.14915 76.4579 9.50071C77.0296 9.85227 77.4735 10.3459 77.7896 10.9815C78.1056 11.6172 78.2636 12.3594 78.2636 13.2081C78.2636 14.0533 78.1056 14.7919 77.7896 15.424C77.4735 16.0561 77.0296 16.5479 76.4579 16.8995C75.8862 17.2511 75.2168 17.4268 74.4497 17.4268ZM74.4551 16.0898C74.9522 16.0898 75.3641 15.9585 75.6908 15.6957C76.0176 15.4329 76.259 15.0831 76.4153 14.6463C76.5751 14.2095 76.655 13.7283 76.655 13.2028C76.655 12.6808 76.5751 12.2013 76.4153 11.7646C76.259 11.3242 76.0176 10.9709 75.6908 10.7045C75.3641 10.4382 74.9522 10.305 74.4551 10.305C73.9543 10.305 73.5389 10.4382 73.2086 10.7045C72.8819 10.9709 72.6386 11.3242 72.4788 11.7646C72.3226 12.2013 72.2445 12.6808 72.2445 13.2028C72.2445 13.7283 72.3226 14.2095 72.4788 14.6463C72.6386 15.0831 72.8819 15.4329 73.2086 15.6957C73.5389 15.9585 73.9543 16.0898 74.4551 16.0898ZM80.0414 17.2617V9.0799H81.5702V10.4116H81.6714C81.8419 9.96058 82.1206 9.60902 82.5077 9.35689C82.8948 9.10121 83.3582 8.97337 83.898 8.97337C84.4448 8.97337 84.9029 9.10121 85.2723 9.35689C85.6451 9.61257 85.9203 9.96413 86.0979 10.4116H86.1831C86.3784 9.97479 86.6892 9.62678 87.1153 9.36754C87.5414 9.10476 88.0492 8.97337 88.6387 8.97337C89.3809 8.97337 89.9864 9.20597 90.4551 9.67116C90.9274 10.1364 91.1636 10.8377 91.1636 11.7752V17.2617H89.5709V11.9244C89.5709 11.3704 89.42 10.9691 89.1181 10.7205C88.8163 10.4719 88.4558 10.3477 88.0368 10.3477C87.5183 10.3477 87.1153 10.5075 86.8277 10.8271C86.54 11.1431 86.3962 11.5497 86.3962 12.0469V17.2617H84.8088V11.8232C84.8088 11.3793 84.6703 11.0224 84.3933 10.7525C84.1164 10.4826 83.7559 10.3477 83.312 10.3477C83.0102 10.3477 82.7314 10.4276 82.4757 10.5874C82.2236 10.7436 82.0194 10.962 81.8632 11.2425C81.7105 11.5231 81.6341 11.848 81.6341 12.2173V17.2617H80.0414ZM93.2983 17.2617V9.0799H94.891V17.2617H93.2983ZM94.1026 7.81747C93.8256 7.81747 93.5877 7.72514 93.3888 7.54048C93.1935 7.35227 93.0959 7.12855 93.0959 6.86932C93.0959 6.60653 93.1935 6.38281 93.3888 6.19815C93.5877 6.00994 93.8256 5.91584 94.1026 5.91584C94.3796 5.91584 94.6157 6.00994 94.8111 6.19815C95.0099 6.38281 95.1093 6.60653 95.1093 6.86932C95.1093 7.12855 95.0099 7.35227 94.8111 7.54048C94.6157 7.72514 94.3796 7.81747 94.1026 7.81747ZM98.6263 12.4038V17.2617H97.0336V9.0799H98.5624V10.4116H98.6636C98.8518 9.97834 99.1465 9.63033 99.5478 9.36754C99.9527 9.10476 100.462 8.97337 101.077 8.97337C101.634 8.97337 102.122 9.09055 102.541 9.32493C102.96 9.55575 103.285 9.90021 103.516 10.3583C103.747 10.8164 103.862 11.3828 103.862 12.0575V17.2617H102.27V12.2493C102.27 11.6562 102.115 11.1928 101.806 10.859C101.497 10.5217 101.073 10.353 100.533 10.353C100.164 10.353 99.8355 10.4329 99.5478 10.5927C99.2637 10.7525 99.0382 10.9869 98.8713 11.2958C98.708 11.6012 98.6263 11.9705 98.6263 12.4038ZM109.429 20.5004C108.779 20.5004 108.22 20.4151 107.751 20.2447C107.286 20.0742 106.906 19.8487 106.611 19.5682C106.316 19.2876 106.096 18.9805 105.951 18.6467L107.319 18.082C107.415 18.2383 107.543 18.4034 107.703 18.5774C107.866 18.755 108.087 18.9059 108.364 19.0302C108.644 19.1545 109.005 19.2166 109.445 19.2166C110.049 19.2166 110.547 19.0692 110.942 18.7745C111.336 18.4833 111.533 18.0181 111.533 17.3789V15.7702H111.432C111.336 15.9442 111.197 16.1378 111.016 16.3509C110.839 16.5639 110.594 16.7486 110.281 16.9048C109.969 17.0611 109.562 17.1392 109.061 17.1392C108.415 17.1392 107.833 16.9883 107.314 16.6864C106.799 16.381 106.391 15.9318 106.089 15.3388C105.791 14.7422 105.642 14.0089 105.642 13.1388C105.642 12.2688 105.789 11.5231 106.084 10.9016C106.382 10.2802 106.79 9.80433 107.309 9.47408C107.827 9.14027 108.415 8.97337 109.072 8.97337C109.58 8.97337 109.99 9.05859 110.302 9.22905C110.615 9.39595 110.858 9.59126 111.032 9.81499C111.21 10.0387 111.346 10.2358 111.442 10.4062H111.56V9.0799H113.12V17.4428C113.12 18.146 112.957 18.723 112.63 19.174C112.304 19.625 111.861 19.9588 111.304 20.1754C110.75 20.392 110.125 20.5004 109.429 20.5004ZM109.413 15.8182C109.871 15.8182 110.258 15.7116 110.574 15.4986C110.894 15.282 111.135 14.973 111.299 14.5717C111.465 14.1669 111.549 13.6822 111.549 13.1175C111.549 12.5671 111.467 12.0824 111.304 11.6634C111.141 11.2443 110.901 10.9176 110.585 10.6832C110.269 10.4453 109.878 10.3263 109.413 10.3263C108.933 10.3263 108.534 10.4506 108.214 10.6992C107.895 10.9442 107.653 11.2781 107.49 11.7006C107.33 12.1232 107.25 12.5955 107.25 13.1175C107.25 13.6538 107.332 14.1243 107.495 14.5291C107.659 14.9339 107.9 15.25 108.22 15.4773C108.543 15.7045 108.941 15.8182 109.413 15.8182ZM125.304 9.21839C125.247 8.71413 125.013 8.32351 124.601 8.04652C124.189 7.76598 123.67 7.62571 123.045 7.62571C122.598 7.62571 122.211 7.69673 121.884 7.83878C121.557 7.97727 121.303 8.16903 121.122 8.41406C120.945 8.65554 120.856 8.93075 120.856 9.2397C120.856 9.49893 120.916 9.72266 121.037 9.91087C121.161 10.0991 121.323 10.2571 121.522 10.3849C121.724 10.5092 121.941 10.614 122.172 10.6992C122.402 10.7809 122.624 10.8484 122.838 10.9016L123.903 11.1786C124.251 11.2638 124.608 11.3793 124.974 11.5249C125.339 11.6705 125.678 11.8622 125.991 12.1001C126.303 12.3381 126.556 12.6328 126.747 12.9844C126.943 13.3359 127.04 13.7567 127.04 14.2468C127.04 14.8647 126.88 15.4134 126.561 15.8928C126.245 16.3722 125.785 16.7504 125.181 17.0273C124.581 17.3043 123.855 17.4428 123.003 17.4428C122.186 17.4428 121.479 17.3132 120.883 17.054C120.286 16.7947 119.819 16.4272 119.482 15.9513C119.144 15.4719 118.958 14.9038 118.922 14.2468H120.574C120.606 14.641 120.733 14.9695 120.957 15.2322C121.184 15.4915 121.474 15.685 121.825 15.8129C122.181 15.9371 122.569 15.9993 122.992 15.9993C123.457 15.9993 123.871 15.9265 124.233 15.7809C124.599 15.6317 124.887 15.4258 125.096 15.163C125.306 14.8967 125.41 14.5859 125.41 14.2308C125.41 13.9077 125.318 13.6431 125.133 13.4371C124.952 13.2312 124.705 13.0607 124.393 12.9258C124.084 12.7908 123.734 12.6719 123.344 12.5689L122.054 12.2173C121.181 11.9794 120.488 11.6296 119.977 11.168C119.469 10.7063 119.215 10.0955 119.215 9.33558C119.215 8.70703 119.386 8.15838 119.727 7.68963C120.068 7.22088 120.529 6.85689 121.112 6.59766C121.694 6.33487 122.351 6.20348 123.083 6.20348C123.821 6.20348 124.473 6.3331 125.037 6.59233C125.606 6.85156 126.053 7.20845 126.38 7.663C126.706 8.11399 126.877 8.63246 126.891 9.21839H125.304ZM132.326 17.4268C131.559 17.4268 130.889 17.2511 130.318 16.8995C129.746 16.5479 129.302 16.0561 128.986 15.424C128.67 14.7919 128.512 14.0533 128.512 13.2081C128.512 12.3594 128.67 11.6172 128.986 10.9815C129.302 10.3459 129.746 9.85227 130.318 9.50071C130.889 9.14915 131.559 8.97337 132.326 8.97337C133.093 8.97337 133.762 9.14915 134.334 9.50071C134.906 9.85227 135.349 10.3459 135.666 10.9815C135.982 11.6172 136.14 12.3594 136.14 13.2081C136.14 14.0533 135.982 14.7919 135.666 15.424C135.349 16.0561 134.906 16.5479 134.334 16.8995C133.762 17.2511 133.093 17.4268 132.326 17.4268ZM132.331 16.0898C132.828 16.0898 133.24 15.9585 133.567 15.6957C133.894 15.4329 134.135 15.0831 134.291 14.6463C134.451 14.2095 134.531 13.7283 134.531 13.2028C134.531 12.6808 134.451 12.2013 134.291 11.7646C134.135 11.3242 133.894 10.9709 133.567 10.7045C133.24 10.4382 132.828 10.305 132.331 10.305C131.83 10.305 131.415 10.4382 131.085 10.7045C130.758 10.9709 130.515 11.3242 130.355 11.7646C130.199 12.2013 130.12 12.6808 130.12 13.2028C130.12 13.7283 130.199 14.2095 130.355 14.6463C130.515 15.0831 130.758 15.4329 131.085 15.6957C131.415 15.9585 131.83 16.0898 132.331 16.0898ZM141.364 17.4268C140.597 17.4268 139.927 17.2511 139.356 16.8995C138.784 16.5479 138.34 16.0561 138.024 15.424C137.708 14.7919 137.55 14.0533 137.55 13.2081C137.55 12.3594 137.708 11.6172 138.024 10.9815C138.34 10.3459 138.784 9.85227 139.356 9.50071C139.927 9.14915 140.597 8.97337 141.364 8.97337C142.131 8.97337 142.8 9.14915 143.372 9.50071C143.944 9.85227 144.388 10.3459 144.704 10.9815C145.02 11.6172 145.178 12.3594 145.178 13.2081C145.178 14.0533 145.02 14.7919 144.704 15.424C144.388 16.0561 143.944 16.5479 143.372 16.8995C142.8 17.2511 142.131 17.4268 141.364 17.4268ZM141.369 16.0898C141.866 16.0898 142.278 15.9585 142.605 15.6957C142.932 15.4329 143.173 15.0831 143.329 14.6463C143.489 14.2095 143.569 13.7283 143.569 13.2028C143.569 12.6808 143.489 12.2013 143.329 11.7646C143.173 11.3242 142.932 10.9709 142.605 10.7045C142.278 10.4382 141.866 10.305 141.369 10.305C140.868 10.305 140.453 10.4382 140.123 10.7045C139.796 10.9709 139.553 11.3242 139.393 11.7646C139.237 12.2013 139.159 12.6808 139.159 13.2028C139.159 13.7283 139.237 14.2095 139.393 14.6463C139.553 15.0831 139.796 15.4329 140.123 15.6957C140.453 15.9585 140.868 16.0898 141.369 16.0898ZM148.548 12.4038V17.2617H146.955V9.0799H148.484V10.4116H148.585C148.774 9.97834 149.068 9.63033 149.47 9.36754C149.875 9.10476 150.384 8.97337 150.998 8.97337C151.556 8.97337 152.044 9.09055 152.463 9.32493C152.882 9.55575 153.207 9.90021 153.438 10.3583C153.669 10.8164 153.784 11.3828 153.784 12.0575V17.2617H152.192V12.2493C152.192 11.6562 152.037 11.1928 151.728 10.859C151.419 10.5217 150.995 10.353 150.455 10.353C150.086 10.353 149.757 10.4329 149.47 10.5927C149.186 10.7525 148.96 10.9869 148.793 11.2958C148.63 11.6012 148.548 11.9705 148.548 12.4038Z" fill="#1E261B"/>
<path d="M40.4753 27.3997C40.4371 22.9915 43.9533 20.8469 44.114 20.7471C42.1227 17.734 39.0362 17.3223 37.9516 17.2895C35.3594 17.0063 32.8448 18.8993 31.5243 18.8993C30.1774 18.8993 28.1439 17.3168 25.9523 17.3633C23.132 17.4084 20.4937 19.1031 19.0466 21.7346C16.0602 27.1002 18.2875 34.9851 21.1487 39.3222C22.5799 41.4477 24.2523 43.8179 26.4412 43.7345C28.5828 43.6442 29.3827 42.3189 31.9671 42.3189C34.5278 42.3189 35.279 43.7345 37.5114 43.6811C39.8098 43.6442 41.2569 41.5475 42.638 39.4043C44.2919 36.971 44.9562 34.572 44.9825 34.449C44.9298 34.4298 40.5202 32.6818 40.4753 27.3997ZM36.2582 14.4364C37.4099 12.9415 38.198 10.9077 37.9793 8.84375C36.3121 8.92034 34.2273 10.0405 33.0267 11.5026C31.9645 12.791 31.0156 14.9028 31.2607 16.8887C33.1334 17.0337 35.0563 15.9081 36.2582 14.4364Z" fill="#1E261B"/>
<path d="M71.4935 43.4243H68.5005L66.861 38.0779H61.1625L59.6009 43.4243H56.687L62.3342 25.2226H65.8213L71.4935 43.4243ZM66.3668 35.8348L64.8842 31.0819C64.7274 30.5964 64.4322 29.4529 63.9999 27.653H63.9472C63.7733 28.4271 63.4953 29.5706 63.1144 31.0819L61.6567 35.8348H66.3668ZM85.9875 36.7006C85.9875 38.9326 85.4037 40.697 84.2347 41.9923C83.1883 43.1452 81.8876 43.721 80.3364 43.721C78.6614 43.721 77.4568 43.1015 76.7254 41.8596V48.7461H73.9157V34.6134C73.9157 33.2114 73.8802 31.774 73.8116 30.2996H76.2826L76.4394 32.3799H76.4922C77.4292 30.8124 78.8512 30.0288 80.7594 30.0288C82.2513 30.0288 83.4967 30.6401 84.4931 31.8643C85.488 33.0911 85.9875 34.7022 85.9875 36.7006ZM83.125 36.8072C83.125 35.5297 82.8483 34.4766 82.2922 33.6464C81.6846 32.7833 80.8688 32.3512 79.8461 32.3512C79.1529 32.3512 78.523 32.5919 77.9603 33.0665C77.3963 33.5452 77.0272 34.1702 76.8546 34.9444C76.7775 35.2339 76.7337 35.5318 76.7241 35.832V38.0217C76.7241 38.975 77.0062 39.7806 77.5702 40.4399C78.1343 41.0964 78.867 41.4261 79.7685 41.4261C80.8267 41.4261 81.6504 41.0007 82.2395 40.1568C82.8298 39.3101 83.125 38.1941 83.125 36.8072ZM100.533 36.7006C100.533 38.9326 99.9492 40.697 98.7804 41.9923C97.732 43.1452 96.4329 43.721 94.8804 43.721C93.2057 43.721 92.0014 43.1015 91.2696 41.8596V48.7461H88.4599V34.6134C88.4599 33.2114 88.4242 31.774 88.3557 30.2996H90.8268L90.9836 32.3799H91.0363C91.9723 30.8124 93.3944 30.0288 95.3034 30.0288C96.7939 30.0288 98.0393 30.6401 99.0384 31.8643C100.032 33.0911 100.533 34.7022 100.533 36.7006ZM97.6691 36.8072C97.6691 35.5297 97.3911 34.4766 96.835 33.6464C96.2278 32.7833 95.4146 32.3512 94.3918 32.3512C93.698 32.3512 93.0681 32.5919 92.5028 33.0665C91.9394 33.5452 91.5713 34.1702 91.3988 34.9444C91.3131 35.3055 91.2669 35.5995 91.2669 35.832V38.0217C91.2669 38.975 91.5503 39.7806 92.1117 40.4399C92.6761 41.0951 93.4081 41.4261 94.3125 41.4261C95.3718 41.4261 96.1959 41.0007 96.7839 40.1568C97.3738 39.3101 97.6691 38.1941 97.6691 36.8072ZM116.795 38.3186C116.795 39.8682 116.274 41.1279 115.236 42.1003C114.095 43.1617 112.502 43.6937 110.459 43.6937C108.572 43.6937 107.059 43.3163 105.918 42.5599L106.568 40.1294C107.799 40.8871 109.153 41.2646 110.626 41.2646C111.687 41.2646 112.51 41.0157 113.098 40.522C113.687 40.0269 113.985 39.3648 113.985 38.5388C113.985 37.7988 113.738 37.1793 113.255 36.6746C112.768 36.1713 111.965 35.7021 110.835 35.2713C107.764 34.0827 106.228 32.3444 106.228 30.0575C106.228 28.564 106.77 27.3412 107.854 26.3851C108.937 25.4305 110.374 24.9531 112.161 24.9531C113.757 24.9531 115.086 25.2418 116.142 25.8175L115.437 28.1947C114.443 27.6366 113.322 27.3576 112.067 27.3576C111.076 27.3576 110.298 27.6107 109.742 28.114C109.274 28.564 109.037 29.1124 109.037 29.7634C109.037 30.4815 109.307 31.0778 109.845 31.5456C110.312 31.9764 111.163 32.4456 112.394 32.9489C113.905 33.5807 115.014 34.3166 115.724 35.1618C116.44 36.0071 116.795 37.0616 116.795 38.3186ZM126.109 32.4879H123.012V38.8602C123.012 40.481 123.558 41.2892 124.651 41.2892C125.153 41.2892 125.57 41.2455 125.899 41.1539L125.977 43.3682C125.424 43.5829 124.695 43.691 123.792 43.691C122.683 43.691 121.816 43.3395 121.19 42.6365C120.566 41.9335 120.252 40.7558 120.252 39.0982V32.4825H118.407V30.2941H120.252V27.891L123.012 27.0266V30.2941H126.109V32.4879ZM140.055 36.7539C140.055 38.7713 139.499 40.4276 138.39 41.7228C137.228 43.0564 135.684 43.721 133.758 43.721C131.9 43.721 130.423 43.0823 129.32 41.8062C128.219 40.5275 127.668 38.9162 127.668 36.9727C127.668 34.9389 128.237 33.273 129.372 31.9778C130.509 30.6812 132.041 30.0329 133.966 30.0329C135.821 30.0329 137.312 30.673 138.441 31.9504C139.518 33.1896 140.055 34.7899 140.055 36.7539ZM137.142 36.8209C137.142 35.6186 136.892 34.5874 136.39 33.7243C135.8 32.6821 134.957 32.161 133.865 32.161C132.739 32.161 131.876 32.6821 131.289 33.7243C130.785 34.5874 130.535 35.6364 130.535 36.8756C130.535 38.0792 130.785 39.1132 131.289 39.9735C131.896 41.0157 132.744 41.5368 133.841 41.5368C134.915 41.5368 135.758 41.0048 136.367 39.9476C136.883 39.064 137.142 38.0258 137.142 36.8209ZM149.192 32.8641C148.9 32.8093 148.603 32.7823 148.306 32.7833C147.318 32.7833 146.553 33.169 146.015 33.9459C145.55 34.6298 145.314 35.4942 145.314 36.5377V43.4243H142.505V34.4328C142.507 33.0551 142.48 31.6774 142.424 30.3009H144.87L144.973 32.8121H145.051C145.349 31.9491 145.816 31.2529 146.456 30.7318C147.042 30.2764 147.755 30.0299 148.487 30.0288C148.747 30.0288 148.981 30.0479 149.189 30.0821L149.192 32.8641ZM161.758 36.241C161.765 36.6842 161.73 37.1272 161.655 37.5636H153.226C153.258 38.8602 153.666 39.8531 154.449 40.537C155.159 41.147 156.078 41.4534 157.206 41.4534C158.454 41.4534 159.593 41.2482 160.616 40.8338L161.057 42.8567C159.86 43.3983 158.447 43.6677 156.817 43.6677C154.856 43.6677 153.317 43.0687 152.196 41.8733C151.079 40.6765 150.519 39.0681 150.519 37.0534C150.519 35.0756 151.039 33.4276 152.081 32.1132C153.173 30.7099 154.648 30.0083 156.503 30.0083C158.326 30.0083 159.706 30.7099 160.643 32.1132C161.385 33.2251 161.758 34.6038 161.758 36.241ZM159.078 35.4846C159.098 34.6188 158.913 33.8735 158.533 33.2429C158.046 32.4305 157.298 32.0257 156.295 32.0257C155.376 32.0257 154.628 32.4209 154.059 33.2142C153.591 33.8447 153.313 34.6024 153.227 35.4819L159.078 35.4846Z" fill="#1E261B"/>
</g>
</g>
<defs>
<clipPath id="clip0_2556_140">
<rect width="177.77" height="55.6103" fill="white" transform="translate(0.770508)"/>
</clipPath>
</defs>
</svg>
