<svg width="140" height="140" viewBox="0 0 140 140" fill="none" xmlns="http://www.w3.org/2000/svg">
<g clip-path="url(#clip0_2460_2644)">
<path d="M55.6714 72.9142L63.1758 82.1428H57.25L50.5714 73.6672V82.1428H45.7142V57.8572H50.5714V72.1372L56.74 65.1428H62.9328L55.6714 72.9142ZM36.2428 64.6572C35.1793 64.6732 34.1356 64.9467 33.2009 65.4542C32.2662 65.9617 31.4684 66.6882 30.8758 67.5714V65.1428H26.2858V82.1428H31.1428V74.2014C31.079 73.625 31.1346 73.0416 31.306 72.4876C31.4775 71.9336 31.7611 71.4208 32.1392 70.9812C32.5174 70.5415 32.982 70.1843 33.5041 69.932C34.0262 69.6796 34.5947 69.5374 35.1742 69.5142C37.9914 69.5142 38.4286 72.2828 38.4286 74.2014V82.1428H43.2858V73.1328C43.2858 67.79 41.5128 64.6572 36.34 64.6572H36.2428ZM79.7142 74.0314C79.7328 74.3875 79.7328 74.7437 79.7142 75.1H66.9642V75.27C67.1712 76.2827 67.7322 77.1886 68.5467 77.825C69.3612 78.4615 70.3759 78.7868 71.4086 78.7428C72.2279 78.7784 73.0459 78.6484 73.8137 78.3605C74.5815 78.0726 75.2834 77.6327 75.8772 77.0672L79.1072 79.4958C78.0835 80.5406 76.8522 81.3592 75.4927 81.8988C74.1332 82.4384 72.6757 82.687 71.2142 82.6286C70.0038 82.7051 68.7912 82.5209 67.6581 82.0885C66.5251 81.6562 65.498 80.9857 64.6462 80.1224C63.7945 79.2592 63.1379 78.2231 62.7208 77.0844C62.3037 75.9456 62.1359 74.7306 62.2286 73.5214C62.2037 72.3277 62.4249 71.1416 62.8785 70.0372C63.3321 68.9327 64.0083 67.9335 64.8651 67.1019C65.7218 66.2703 66.7406 65.624 67.858 65.2034C68.9755 64.7828 70.1676 64.5969 71.36 64.6572C75.9258 64.6572 79.7142 67.8872 79.7142 74.0314ZM75.1972 71.9428C75.1793 71.4618 75.0637 70.9894 74.8573 70.5545C74.651 70.1196 74.3583 69.7313 73.997 69.4132C73.6357 69.0951 73.2135 68.8539 72.756 68.7042C72.2984 68.5546 71.8153 68.4996 71.3358 68.5428C69.2002 68.312 67.2662 69.8162 66.9642 71.9428H75.1972ZM6.85722 57.8572H2V82.1428H16.5714V77.2861H6.85722V57.8572ZM94.2858 57.8572H99.1428V82.1428H94.5528V80.4428C93.9699 81.1609 93.2271 81.7325 92.3837 82.1121C91.5403 82.4916 90.6198 82.6685 89.6958 82.6286C88.567 82.5996 87.456 82.3401 86.4311 81.8659C85.4062 81.3918 84.4892 80.713 83.7363 79.8714C82.9834 79.0298 82.4106 78.0431 82.053 76.972C81.6955 75.9008 81.5608 74.7679 81.6572 73.6428C81.5425 72.5161 81.6637 71.3779 82.0129 70.3005C82.3621 69.2232 82.9317 68.2303 83.6855 67.3851C84.4393 66.5399 85.3608 65.8609 86.3914 65.3913C87.4219 64.9216 88.539 64.6716 89.6714 64.6572C90.5149 64.6202 91.3573 64.7515 92.1495 65.0433C92.9417 65.3352 93.668 65.7818 94.2858 66.3572V57.8572ZM94.65 73.6428C94.7264 73.082 94.6816 72.5113 94.5187 71.9693C94.3558 71.4273 94.0786 70.9265 93.7058 70.5007C93.3329 70.0749 92.8731 69.734 92.3573 69.501C91.8415 69.268 91.2818 69.1483 90.7158 69.15C88.3924 69.3187 86.6318 71.3167 86.7572 73.6428C86.6318 75.9689 88.3924 77.9672 90.7158 78.1358C91.2818 78.1375 91.8416 78.0178 92.3574 77.7848C92.8732 77.5518 93.333 77.2109 93.7059 76.785C94.0787 76.3592 94.3559 75.8584 94.5188 75.3163C94.6817 74.7743 94.7264 74.2036 94.65 73.6428ZM21.4286 57.3714C20.6475 57.3824 19.8997 57.6894 19.3362 58.2304C18.7727 58.7714 18.4356 59.5061 18.3928 60.2861C18.3928 61.9625 19.752 63.3217 21.4286 63.3217C23.1052 63.3217 24.4639 61.9622 24.4639 60.2861C24.4211 59.5062 24.0839 58.7716 23.5205 58.2307C22.957 57.6897 22.2093 57.3827 21.4283 57.3717M19 82.1428H23.8572V65.1428H19V82.1428ZM138 55.4286V84.5714C138 85.2155 137.744 85.8332 137.289 86.2887C136.833 86.7441 136.215 87 135.571 87H106.429C105.785 87 105.167 86.7441 104.711 86.2887C104.256 85.8332 104 85.2155 104 84.5714V55.4286C104 54.7845 104.256 54.1668 104.711 53.7113C105.167 53.2559 105.785 53 106.429 53H135.571C136.215 53 136.833 53.2559 137.289 53.7113C137.744 54.1668 138 54.7845 138 55.4286ZM113.714 65.1428H108.857V82.1428H113.714V65.1428ZM114.321 60.2858C114.321 58.6092 112.962 57.25 111.286 57.25C109.609 57.25 108.25 58.6092 108.25 60.2858C108.25 61.9622 109.609 63.3214 111.286 63.3214C112.962 63.3214 114.321 61.9622 114.321 60.2858ZM133.143 73.1328C133.143 67.79 131.37 64.6572 126.197 64.6572C125.117 64.6574 124.054 64.9233 123.101 65.4315C122.148 65.9397 121.335 66.6746 120.733 67.5714V65.1428H116.143V82.1428H121V74.2014C120.936 73.625 120.992 73.0416 121.163 72.4876C121.335 71.9336 121.618 71.4208 121.996 70.9812C122.375 70.5415 122.839 70.1843 123.361 69.932C123.883 69.6796 124.452 69.5374 125.031 69.5142C127.849 69.5142 128.286 72.2828 128.286 74.2014V82.1428H133.143V73.1328Z" fill="white"/>
</g>
<defs>
<clipPath id="clip0_2460_2644">
<rect width="136" height="34" fill="white" transform="translate(2 53)"/>
</clipPath>
</defs>
</svg>
