<svg width="136" height="48" viewBox="0 0 136 48" fill="none" xmlns="http://www.w3.org/2000/svg">
<g clip-path="url(#clip0_0_3)">
<path d="M51.3442 39.8155V28.9355H54.7522C55.9362 28.9355 56.9495 29.2075 57.7922 29.7515C58.6349 30.2848 59.0562 31.1755 59.0562 32.4235C59.0562 33.6608 58.6029 34.5728 57.6962 35.1595C56.7895 35.7355 55.7602 36.0235 54.6082 36.0235H53.4082V39.8155H51.3442ZM54.6882 30.6635H53.4082V34.3115H54.7202C55.3389 34.3115 55.8402 34.1728 56.2242 33.8955C56.6082 33.6075 56.8215 33.1595 56.8642 32.5515C56.8642 31.8475 56.6722 31.3568 56.2882 31.0795C55.9042 30.8022 55.3709 30.6635 54.6882 30.6635ZM65.047 30.6635H63.767V33.9915H65.079C65.6976 33.9915 66.2096 33.8688 66.615 33.6235C67.0203 33.3675 67.223 32.9515 67.223 32.3755C67.223 31.7675 67.031 31.3302 66.647 31.0635C66.263 30.7968 65.7296 30.6635 65.047 30.6635ZM68.023 39.8155L65.719 35.6555C65.6016 35.6662 65.479 35.6768 65.351 35.6875C65.223 35.6875 65.095 35.6875 64.967 35.6875H63.767V39.8155H61.703V28.9355H65.111C66.295 28.9355 67.3083 29.2075 68.151 29.7515C68.9936 30.2955 69.415 31.1382 69.415 32.2795C69.415 32.9515 69.239 33.5328 68.887 34.0235C68.5456 34.5035 68.103 34.8768 67.559 35.1435L70.231 39.8155H68.023ZM79.9902 39.8155H72.3742V28.9355H78.8702L79.1902 30.5675H74.4382V33.4955H77.3502L77.6862 35.1435H74.4382V38.1995H79.6542L79.9902 39.8155ZM86.9675 36.5195L84.3595 33.1755V39.8155H82.2955V28.9355H83.6075L87.2875 33.9595L90.6315 28.9355H91.8955V39.8155H89.7995V33.5435L87.7675 36.4075L86.9675 36.5195ZM97.2651 28.9355V39.8155H95.2011V28.9355H97.2651ZM108.207 39.8155H100.591V28.9355H107.087L107.407 30.5675H102.655V33.4955H105.567L105.903 35.1435H102.655V38.1995H107.871L108.207 39.8155ZM113.856 30.6635H112.576V33.9915H113.888C114.507 33.9915 115.019 33.8688 115.424 33.6235C115.829 33.3675 116.032 32.9515 116.032 32.3755C116.032 31.7675 115.84 31.3302 115.456 31.0635C115.072 30.7968 114.539 30.6635 113.856 30.6635ZM116.832 39.8155L114.528 35.6555C114.411 35.6662 114.288 35.6768 114.16 35.6875C114.032 35.6875 113.904 35.6875 113.776 35.6875H112.576V39.8155H110.512V28.9355H113.92C115.104 28.9355 116.117 29.2075 116.96 29.7515C117.803 30.2955 118.224 31.1382 118.224 32.2795C118.224 32.9515 118.048 33.5328 117.696 34.0235C117.355 34.5035 116.912 34.8768 116.368 35.1435L119.04 39.8155H116.832Z" fill="#222222"/>
<path d="M55.6481 18.8155H51.1841V7.93555H55.6481C57.3441 7.93555 58.6241 8.44221 59.4881 9.45555C60.3521 10.4582 60.7841 11.7435 60.7841 13.3115C60.7841 14.9968 60.3148 16.3355 59.3761 17.3275C58.4374 18.3195 57.1948 18.8155 55.6481 18.8155ZM55.6161 10.0475H53.8081V16.7195H55.5041C56.2508 16.7195 56.8641 16.4475 57.3441 15.9035C57.8241 15.3488 58.0641 14.4848 58.0641 13.3115C58.0641 12.3408 57.8561 11.5568 57.4401 10.9595C57.0348 10.3515 56.4268 10.0475 55.6161 10.0475ZM67.87 11.1995L66.702 14.4475H69.086L67.87 11.1995ZM69.182 7.93555L73.294 18.5275L70.702 18.8155L69.854 16.5275H65.966L65.134 18.8155H62.526L66.654 7.93555H69.182ZM81.6525 14.5435H78.2125V18.8155H75.5885V7.93555H82.3405C82.3938 8.27688 82.4418 8.62355 82.4845 8.97555C82.5378 9.32755 82.5858 9.67421 82.6285 10.0155H78.2125V12.4795H81.3645L81.6525 14.5435ZM89.0507 10.0475H87.5787V13.0715H89.0827C89.5947 13.0715 90.0107 12.9435 90.3307 12.6875C90.6614 12.4208 90.8267 12.0475 90.8267 11.5675C90.8267 11.0448 90.6667 10.6608 90.3467 10.4155C90.0374 10.1702 89.6054 10.0475 89.0507 10.0475ZM91.4667 18.8155C91.1361 18.2075 90.8107 17.5995 90.4907 16.9915C90.1707 16.3728 89.8507 15.7595 89.5307 15.1515C89.4454 15.1622 89.3547 15.1675 89.2587 15.1675C89.1734 15.1675 89.0881 15.1675 89.0027 15.1675H87.5787V18.8155H84.9547V7.93555H89.1307C90.3361 7.93555 91.3761 8.22355 92.2507 8.79955C93.1254 9.36488 93.5627 10.2768 93.5627 11.5355C93.5627 12.1968 93.4081 12.7728 93.0987 13.2635C92.8001 13.7435 92.4214 14.1222 91.9627 14.3995C92.3787 15.1355 92.7894 15.8768 93.1947 16.6235C93.6107 17.3595 94.0267 18.0902 94.4427 18.8155H91.4667ZM99.3825 7.93555V18.8155H96.7585V7.93555H99.3825Z" fill="#222222"/>
<path fill-rule="evenodd" clip-rule="evenodd" d="M2.59009 11.4864C2.59009 11.8564 2.89008 12.1664 3.27008 12.1664H13.2201C13.5901 12.1664 13.9001 11.8664 13.9001 11.4864V1.49641C13.9001 1.12641 13.6001 0.816406 13.2201 0.816406H3.27008C2.90008 0.816406 2.59009 1.11641 2.59009 1.49641V11.4864Z" fill="#464E41"/>
<path fill-rule="evenodd" clip-rule="evenodd" d="M13.21 23.2366C13.21 23.6066 13.51 23.9166 13.89 23.9166H25C25.37 23.9166 25.68 23.6166 25.68 23.2366V12.1566C25.68 11.7866 25.38 11.4766 25 11.4766H13.89C13.52 11.4766 13.21 11.7766 13.21 12.1566V23.2366Z" fill="#464E41"/>
<path fill-rule="evenodd" clip-rule="evenodd" d="M24.9404 34.958C24.9404 35.328 25.2404 35.638 25.6204 35.638H36.7304C37.1004 35.638 37.4104 35.338 37.4104 34.958V23.848C37.4104 23.478 37.1104 23.168 36.7304 23.168H25.6204C25.2504 23.168 24.9404 23.468 24.9404 23.848V34.958Z" fill="#464E41"/>
<path fill-rule="evenodd" clip-rule="evenodd" d="M13.21 46.5049C13.21 46.8749 13.51 47.1848 13.89 47.1848H25C25.37 47.1848 25.68 46.8849 25.68 46.5049V35.3948C25.68 35.0248 25.38 34.7148 25 34.7148H13.89C13.52 34.7148 13.21 35.0148 13.21 35.3948V46.5049Z" fill="#464E41"/>
<path fill-rule="evenodd" clip-rule="evenodd" d="M4.44995 33.5858C4.44995 33.9558 4.74997 34.2658 5.12997 34.2658H11.86C12.23 34.2658 12.54 33.9658 12.54 33.5858V26.8558C12.54 26.4858 12.24 26.1758 11.86 26.1758H5.12997C4.75997 26.1758 4.44995 26.4758 4.44995 26.8558V33.5858Z" fill="#464E41"/>
<path fill-rule="evenodd" clip-rule="evenodd" d="M0 38.0356C0 38.4056 0.299993 38.7156 0.679993 38.7156H3.76999C4.13999 38.7156 4.44998 38.4156 4.44998 38.0356V34.9456C4.44998 34.5756 4.14999 34.2656 3.76999 34.2656H0.679993C0.309993 34.2656 0 34.5656 0 34.9456V38.0356Z" fill="#464E41"/>
<path d="M133.424 28.464H133.408L132.304 30.784H131.136L130.032 28.464H130.016V32.16H128.8V26.32H130.096L131.712 29.76H131.728L133.328 26.32H134.672V32.16H133.424V28.464ZM128.16 26.32V27.376H126.16V32.16H124.864V27.376H122.864V26.32H128.16Z" fill="#222222"/>
</g>
<defs>
<clipPath id="clip0_0_3">
<rect width="136" height="48" fill="white"/>
</clipPath>
</defs>
</svg>
