<svg width="192" height="51" viewBox="0 0 192 51" fill="none" xmlns="http://www.w3.org/2000/svg">
<path d="M54.5532 42.3061V30.7461H58.1742C59.4322 30.7461 60.5089 31.0351 61.4042 31.6131C62.2996 32.1797 62.7472 33.1261 62.7472 34.4521C62.7472 35.7667 62.2656 36.7357 61.3022 37.3591C60.3389 37.9711 59.2452 38.2771 58.0212 38.2771H56.7462V42.3061H54.5532ZM58.1062 32.5821H56.7462V36.4581H58.1402C58.7976 36.4581 59.3302 36.3107 59.7382 36.0161C60.1462 35.7101 60.3729 35.2341 60.4182 34.5881C60.4182 33.8401 60.2142 33.3187 59.8062 33.0241C59.3982 32.7295 58.8316 32.5821 58.1062 32.5821ZM69.1124 32.5821H67.7524V36.1181H69.1464C69.8037 36.1181 70.3477 35.9877 70.7784 35.7271C71.2091 35.4551 71.4244 35.0131 71.4244 34.4011C71.4244 33.7551 71.2204 33.2905 70.8124 33.0071C70.4044 32.7237 69.8377 32.5821 69.1124 32.5821ZM72.2744 42.3061L69.8264 37.8861C69.7017 37.8975 69.5714 37.9087 69.4354 37.9201C69.2994 37.9201 69.1634 37.9201 69.0274 37.9201H67.7524V42.3061H65.5594V30.7461H69.1804C70.4384 30.7461 71.5151 31.0351 72.4104 31.6131C73.3057 32.1911 73.7534 33.0865 73.7534 34.2991C73.7534 35.0131 73.5664 35.6307 73.1924 36.1521C72.8297 36.6621 72.3594 37.0587 71.7814 37.3421L74.6204 42.3061H72.2744ZM84.9896 42.3061H76.8976V30.7461H83.7996L84.1396 32.4801H79.0906V35.5911H82.1846L82.5416 37.3421H79.0906V40.5891H84.6326L84.9896 42.3061ZM92.403 38.8041L89.632 35.2511V42.3061H87.439V30.7461H88.833L92.743 36.0841L96.296 30.7461H97.639V42.3061H95.412V35.6421L93.253 38.6851L92.403 38.8041ZM103.344 30.7461V42.3061H101.151V30.7461H103.344ZM114.97 42.3061H106.878V30.7461H113.78L114.12 32.4801H109.071V35.5911H112.165L112.522 37.3421H109.071V40.5891H114.613L114.97 42.3061ZM120.972 32.5821H119.612V36.1181H121.006C121.664 36.1181 122.208 35.9877 122.638 35.7271C123.069 35.4551 123.284 35.0131 123.284 34.4011C123.284 33.7551 123.08 33.2905 122.672 33.0071C122.264 32.7237 121.698 32.5821 120.972 32.5821ZM124.134 42.3061L121.686 37.8861C121.562 37.8975 121.431 37.9087 121.295 37.9201C121.159 37.9201 121.023 37.9201 120.887 37.9201H119.612V42.3061H117.419V30.7461H121.04C122.298 30.7461 123.375 31.0351 124.27 31.6131C125.166 32.1911 125.613 33.0865 125.613 34.2991C125.613 35.0131 125.426 35.6307 125.052 36.1521C124.69 36.6621 124.219 37.0587 123.641 37.3421L126.48 42.3061H124.134Z" fill="#222222"/>
<path d="M59.1263 19.9936H54.3833V8.43359H59.1263C60.9283 8.43359 62.2883 8.97192 63.2063 10.0486C64.1243 11.114 64.5833 12.4796 64.5833 14.1456C64.5833 15.9362 64.0847 17.3586 63.0873 18.4126C62.0899 19.4666 60.7697 19.9936 59.1263 19.9936ZM59.0923 10.6776H57.1713V17.7666H58.9733C59.7667 17.7666 60.4183 17.4776 60.9283 16.8996C61.4383 16.3102 61.6933 15.3922 61.6933 14.1456C61.6933 13.1142 61.4723 12.2812 61.0303 11.6466C60.5997 11.0006 59.9537 10.6776 59.0923 10.6776ZM72.1121 11.9016L70.8711 15.3526H73.4041L72.1121 11.9016ZM73.5061 8.43359L77.8751 19.6876L75.1211 19.9936L74.2201 17.5626H70.0891L69.2051 19.9936H66.4341L70.8201 8.43359H73.5061ZM86.756 15.4546H83.101V19.9936H80.313V8.43359H87.487C87.5436 8.79626 87.5946 9.16459 87.64 9.53859C87.6966 9.91259 87.7476 10.2809 87.793 10.6436H83.101V13.2616H86.45L86.756 15.4546ZM94.6166 10.6776H93.0526V13.8906H94.6506C95.1946 13.8906 95.6366 13.7546 95.9766 13.4826C96.3279 13.1992 96.5036 12.8026 96.5036 12.2926C96.5036 11.7372 96.3336 11.3292 95.9936 11.0686C95.6649 10.808 95.2059 10.6776 94.6166 10.6776ZM97.1836 19.9936C96.8323 19.3476 96.4866 18.7016 96.1466 18.0556C95.8066 17.3982 95.4666 16.7466 95.1266 16.1006C95.0359 16.112 94.9396 16.1176 94.8376 16.1176C94.7469 16.1176 94.6563 16.1176 94.5656 16.1176H93.0526V19.9936H90.2646V8.43359H94.7016C95.9823 8.43359 97.0873 8.73959 98.0166 9.35159C98.9459 9.95226 99.4106 10.9212 99.4106 12.2586C99.4106 12.9612 99.2463 13.5732 98.9176 14.0946C98.6003 14.6046 98.1979 15.007 97.7106 15.3016C98.1526 16.0836 98.5889 16.8712 99.0196 17.6646C99.4616 18.4466 99.9036 19.223 100.346 19.9936H97.1836ZM105.594 8.43359V19.9936H102.806V8.43359H105.594Z" fill="#222222"/>
<path fill-rule="evenodd" clip-rule="evenodd" d="M2.75244 12.2041C2.75244 12.5972 3.07118 12.9266 3.47493 12.9266H14.0468C14.44 12.9266 14.7693 12.6078 14.7693 12.2041V1.58969C14.7693 1.19657 14.4506 0.867188 14.0468 0.867188H3.47493C3.08181 0.867188 2.75244 1.18594 2.75244 1.58969V12.2041Z" fill="#FC7E54"/>
<path fill-rule="evenodd" clip-rule="evenodd" d="M14.0356 24.6903C14.0356 25.0834 14.3544 25.4128 14.7581 25.4128H26.5625C26.9556 25.4128 27.285 25.0941 27.285 24.6903V12.9178C27.285 12.5247 26.9663 12.1953 26.5625 12.1953H14.7581C14.365 12.1953 14.0356 12.5141 14.0356 12.9178V24.6903Z" fill="#FC7E54"/>
<path fill-rule="evenodd" clip-rule="evenodd" d="M26.499 37.1441C26.499 37.5372 26.8178 37.8666 27.2215 37.8666H39.0259C39.419 37.8666 39.7484 37.5478 39.7484 37.1441V25.3397C39.7484 24.9466 39.4296 24.6172 39.0259 24.6172H27.2215C26.8284 24.6172 26.499 24.9359 26.499 25.3397V37.1441Z" fill="#FC7E54"/>
<path fill-rule="evenodd" clip-rule="evenodd" d="M14.0356 49.4098C14.0356 49.8029 14.3544 50.1322 14.7581 50.1322H26.5625C26.9556 50.1322 27.285 49.8135 27.285 49.4098V37.6053C27.285 37.2122 26.9663 36.8828 26.5625 36.8828H14.7581C14.365 36.8828 14.0356 37.2016 14.0356 37.6053V49.4098Z" fill="#FC7E54"/>
<path fill-rule="evenodd" clip-rule="evenodd" d="M4.72803 35.6856C4.72803 36.0787 5.0468 36.4081 5.45055 36.4081H12.6012C12.9943 36.4081 13.3237 36.0894 13.3237 35.6856V28.535C13.3237 28.1419 13.005 27.8125 12.6012 27.8125H5.45055C5.05742 27.8125 4.72803 28.1313 4.72803 28.535V35.6856Z" fill="#FC7E54"/>
<path fill-rule="evenodd" clip-rule="evenodd" d="M0 40.4119C0 40.805 0.318743 41.1344 0.722493 41.1344H4.00561C4.39874 41.1344 4.7281 40.8156 4.7281 40.4119V37.1288C4.7281 36.7356 4.40936 36.4062 4.00561 36.4062H0.722493C0.329368 36.4062 0 36.725 0 37.1288V40.4119Z" fill="#FC7E54"/>
<path d="M141.763 29.4305H141.746L140.573 31.8955H139.332L138.159 29.4305H138.142V33.3575H136.85V27.1525H138.227L139.944 30.8075H139.961L141.661 27.1525H143.089V33.3575H141.763V29.4305ZM136.17 27.1525V28.2745H134.045V33.3575H132.668V28.2745H130.543V27.1525H136.17Z" fill="#222222"/>
</svg>
