<svg width="140" height="140" viewBox="0 0 140 140" fill="none" xmlns="http://www.w3.org/2000/svg">
<g clip-path="url(#clip0_2460_2647)">
<path d="M131.173 69.0814V71.8961H133.151V74.6892C133.157 74.9027 133.147 75.1313 133.118 75.3278L133.101 75.423C133.098 75.4444 133.094 75.4663 133.089 75.4886L133.073 75.5572L133.063 75.5925L133.04 75.665C132.862 76.1792 132.327 76.831 131.123 76.831C129.842 76.831 129.327 76.0829 129.187 75.5574L129.17 75.4886L129.157 75.423C129.122 75.2078 129.107 74.9386 129.107 74.6892V65.8683C129.107 65.5909 129.123 65.2903 129.174 65.0456L129.208 64.8967L129.216 64.865L129.234 64.7996L129.245 64.7656L129.27 64.6955C129.453 64.2082 129.936 63.559 131.113 63.559C132.021 63.559 132.51 63.9292 132.772 64.3118L132.818 64.3835C132.833 64.4073 132.847 64.4312 132.859 64.4553L132.896 64.5259L132.928 64.5955L132.956 64.6633L132.98 64.7284L133 64.7912L133.017 64.8502L133.031 64.9056L133.042 64.9562C133.047 64.9817 133.052 65.0084 133.056 65.0364L133.067 65.1226L133.073 65.1674L133.084 65.303L133.092 65.4327L133.099 65.6099L133.101 65.7009V66.7719H137.961L137.962 66.1051L137.965 65.8667L137.964 65.6819L137.96 65.4664L137.956 65.3507L137.948 65.1701L137.935 64.985L137.925 64.8613C137.596 61.6031 135.146 60.3494 132.166 60.1313L131.967 60.1181L131.766 60.1084C131.665 60.1041 131.564 60.1009 131.462 60.0989L131.258 60.0962L131.155 60.0957L130.95 60.097L130.849 60.0989L130.646 60.1044L130.444 60.1131L130.244 60.1247L130.046 60.1392C129.98 60.1447 129.914 60.1506 129.849 60.1571L129.654 60.1782C129.622 60.1818 129.59 60.1856 129.558 60.1898L129.366 60.2157C128.92 60.2798 128.492 60.3713 128.086 60.4933L127.913 60.5476C126.03 61.1654 124.662 62.479 124.381 64.8613L124.352 65.1258L124.332 65.3307L124.314 65.5453L124.298 65.7589C124.289 65.8986 124.284 66.0299 124.284 66.1385L124.284 74.3567L124.285 74.4587L124.29 74.6138L124.294 74.7224L124.301 74.8384L124.31 74.9647L124.321 75.1037L124.342 75.3423L124.361 75.5253C124.633 78.5533 126.928 79.9001 129.736 80.2178L129.933 80.2384C130.262 80.27 130.598 80.2874 130.938 80.2927L131.142 80.294L131.348 80.2927C131.685 80.2881 132.021 80.2699 132.357 80.2384L132.554 80.2178C135.371 79.9001 137.651 78.5533 137.929 75.5253L137.951 75.2584L137.968 75.0325L137.983 74.7793L137.992 74.5613L138 74.2528V69.0811L131.173 69.0814ZM97.6598 60.6149H92.779V74.8922C92.7866 75.1411 92.779 75.4206 92.736 75.6255L92.7217 75.6877L92.7038 75.7536C92.6971 75.7769 92.6898 75.8002 92.6822 75.8232L92.6569 75.8957C92.4726 76.3867 92.0035 77.0271 90.8813 77.0271C89.829 77.0271 89.3486 76.4492 89.1471 75.9703L89.1179 75.8957L89.1047 75.8593L89.0817 75.7881L89.0628 75.7201L89.0546 75.6877L89.0411 75.6255C88.9924 75.4206 88.986 75.1411 88.9924 74.8925V60.6144H84.1128V74.4492L84.1118 74.5602L84.1136 74.7548L84.1205 75.0409L84.1337 75.3889L84.1432 75.5638L84.1495 75.6568L84.1556 75.7251C84.3947 78.2846 85.8963 79.6169 88.017 80.1743L88.1977 80.2197C88.6061 80.3158 89.0203 80.3855 89.4377 80.4282L89.6378 80.4478L89.8401 80.4641L90.0444 80.4773C90.1472 80.4833 90.2507 80.488 90.3548 80.4915L90.5641 80.4973L90.775 80.5L90.8813 80.5005L91.0938 80.4992L91.1993 80.4973L91.4089 80.4915C91.5133 80.488 91.617 80.4834 91.72 80.4776L91.9244 80.4644L92.1272 80.4478L92.3275 80.4282C95.1821 80.125 97.3236 78.8254 97.6184 75.7251L97.6223 75.6943L97.6303 75.6131L97.6421 75.4512L97.6527 75.255L97.6585 75.1134L97.6645 74.8961L97.6661 74.7548L97.6656 74.6222L97.6624 74.5025L97.6598 74.4492V60.6149ZM52.8126 60.6149L50.3779 75.7009L47.9445 60.6149H40.0712L39.6536 79.9141H44.4772L44.6077 62.0482L47.9265 79.9141H52.8203L56.142 62.0482L56.2731 79.9141H61.1088L60.6772 60.6149H52.8126ZM23.6619 60.6149L20.087 79.9141H25.3L27.9942 62.0482L30.6236 79.9141H35.8005L32.2404 60.6149H23.6619ZM114.718 76.1531L110.173 60.6149H103.011V79.7129H107.749L107.474 63.6777L112.355 79.7129H119.223V60.6149H114.455L114.718 76.1531ZM70.8947 65.6376C70.809 65.2563 70.8338 64.8516 70.8781 64.6398C70.8906 64.5836 70.9055 64.5272 70.9229 64.4706L70.9514 64.3859C71.1439 63.8507 71.5945 63.3481 72.6273 63.3481C73.7418 63.3481 74.3955 64.0431 74.3955 65.0857V66.2659H79.1535V64.9209C79.1535 61.8853 77.1667 60.7175 75.0439 60.3082L74.869 60.2763L74.694 60.2476L74.5186 60.222L74.3435 60.1996L74.1685 60.1798L73.9942 60.1629C73.9362 60.1577 73.8783 60.1529 73.8204 60.1487L73.648 60.1368L73.4766 60.1274L73.3065 60.12L73.138 60.1147L72.9719 60.111L72.7262 60.1092L72.6181 60.1097L72.4027 60.1129L72.2956 60.1155L72.0831 60.1234C72.0128 60.1264 71.9426 60.1299 71.8727 60.1339L71.6644 60.1484C68.7613 60.3705 66.4964 61.5628 66.0432 64.3588C65.9092 65.2104 65.876 65.9661 66.0893 66.9306C66.4252 68.5155 67.7457 69.6435 69.2613 70.5893L69.4959 70.7336L69.6141 70.8047L69.8522 70.9448L70.0916 71.0829L70.332 71.2187L70.6927 71.4191L71.6404 71.9385L71.8708 72.0662L72.0971 72.1932L72.3188 72.3203L72.5353 72.4474C73.5684 73.0623 74.396 73.6856 74.6937 74.431C74.8585 74.874 74.8226 75.4319 74.743 75.7881L74.7293 75.8456C74.7095 75.9323 74.6842 76.0176 74.6536 76.1011L74.6204 76.1847C74.401 76.6968 73.9219 77.1334 72.8691 77.1334C71.6683 77.1334 70.9453 76.4431 70.9453 75.4024L70.9438 73.5504H65.8225V75.0227C65.8225 78.4781 68.0149 79.9792 70.7608 80.4248L70.9651 80.4559C71.1021 80.4753 71.24 80.4922 71.3791 80.5068L71.5887 80.5269C71.8344 80.548 72.0824 80.5622 72.3325 80.5696L72.5474 80.5743L72.6553 80.5754L72.7631 80.5759C72.8348 80.5759 72.9064 80.5754 72.9777 80.5743L73.1908 80.5696L73.2962 80.5661L73.5069 80.5567C73.5767 80.5531 73.6461 80.549 73.7152 80.5443L73.9217 80.5284C74.0586 80.5167 74.194 80.5026 74.328 80.4863L74.5279 80.4604L74.7253 80.4309C74.7907 80.4205 74.8557 80.4095 74.9202 80.3979L75.1127 80.3615C77.4369 79.8959 79.1664 78.6332 79.5134 76.2053C79.5613 75.843 79.5909 75.5087 79.6067 75.2028L79.6151 75.0035C79.6164 74.9708 79.6173 74.9385 79.618 74.9067L79.6212 74.7203V74.5423L79.6186 74.373L79.6128 74.2124L79.6049 74.0611L79.6004 73.9886L79.5898 73.8504L79.5777 73.7212L79.5645 73.6013L79.5434 73.4386L79.5215 73.2967L79.4928 73.1404L79.4796 73.0763C79.1445 71.3956 77.6732 70.2086 76.0387 69.2314L75.804 69.0933L75.5678 68.9577L75.3307 68.8246L74.9748 68.6295L74.5028 68.3761L73.6973 67.9476L73.3661 67.7683L73.258 67.709L73.046 67.5909L72.8398 67.473C71.8257 66.885 71.0592 66.3076 70.8947 65.6376ZM8.12974 65.5898C8.0422 65.2252 8.05591 64.8415 8.10073 64.6185L8.11919 64.5352L8.14028 64.4524C8.30112 63.8728 8.74066 63.2756 9.87656 63.2756C11.0053 63.2756 11.6701 63.977 11.6701 65.0285V66.2229H16.4842V64.8674C16.4842 61.9707 14.682 60.7541 12.6683 60.2782L12.4927 60.2386C12.346 60.2073 12.1986 60.1794 12.0505 60.155L11.8731 60.1276L11.6956 60.1031L11.5182 60.0817L11.3415 60.0633C11.2828 60.0575 11.224 60.0521 11.1651 60.0472L10.99 60.034L10.816 60.0229L10.6431 60.0142L10.4717 60.0079L10.3027 60.0034L10.0522 60H9.97017C9.89792 60 9.82603 60.0005 9.75448 60.0016L9.54038 60.0061C9.39835 60.0103 9.25772 60.0164 9.11851 60.0245L8.91021 60.0388L8.80711 60.0472L8.60224 60.0662C8.53421 60.073 8.46671 60.0805 8.39974 60.0886L8.19935 60.1144C8.03376 60.1373 7.87064 60.1638 7.70997 60.1941L7.51881 60.232L7.33028 60.2737L7.14492 60.319C7.0834 60.3349 7.02258 60.3512 6.96246 60.3681L6.7829 60.4208C4.91479 60.9951 3.56821 62.1996 3.2286 64.2894C3.08833 65.1545 3.06407 65.9155 3.26684 66.8908C3.62385 68.5757 5.07932 69.7495 6.70775 70.7357L6.94717 70.8786L7.06767 70.9492L7.30945 71.0885L7.67385 71.2939L8.159 71.5612L8.87408 71.9533L9.2216 72.1468L9.55937 72.3393L9.77821 72.468C9.81407 72.4893 9.84976 72.5107 9.88526 72.5323L10.0951 72.6613C10.989 73.2213 11.6893 73.798 11.9593 74.4743C12.1365 74.9138 12.0951 75.472 12.0115 75.8396L11.9973 75.8992C11.9761 75.9847 11.9503 76.0691 11.9198 76.1518L11.8863 76.2348C11.6616 76.7558 11.1788 77.2027 10.1123 77.2027C8.90678 77.2027 8.18563 76.5006 8.18563 75.4456L8.17878 73.5886H3V75.0641C3 79.2064 6.12319 80.568 9.58204 80.6703L9.79852 80.675L10.0158 80.6766L10.2307 80.6753C10.3379 80.6737 10.4442 80.6711 10.5497 80.6674L10.7607 80.6579C10.8652 80.6526 10.9692 80.646 11.0726 80.6379L11.2782 80.6205L11.4813 80.5999C11.5488 80.5925 11.6159 80.5846 11.6827 80.5762L11.8813 80.5485C11.9474 80.5388 12.0128 80.5285 12.0777 80.5176L12.2715 80.4834C14.6786 80.0325 16.4723 78.756 16.8335 76.2588C16.8795 75.9305 16.9124 75.6005 16.9319 75.2695L16.9414 75.0717L16.9472 74.8827C16.9486 74.8223 16.9495 74.7619 16.9498 74.7016L16.949 74.5288L16.9456 74.3646L16.9398 74.209L16.9319 74.0616L16.9221 73.9229L16.9111 73.7929L16.8921 73.6142L16.8718 73.4554L16.8444 73.2748L16.8132 73.0995C16.4792 71.4389 15.0519 70.2571 13.4459 69.2855L13.2096 69.1449L13.091 69.0756L12.8518 68.939L12.6122 68.8048L12.3722 68.673L12.1323 68.5435L11.0744 67.9819L10.7359 67.8005L10.5162 67.6808L10.3019 67.5616L10.0936 67.4429L9.99205 67.3836L9.7943 67.2655C8.91996 66.7329 8.27818 66.2 8.12974 65.5898Z" fill="white"/>
</g>
<defs>
<clipPath id="clip0_2460_2647">
<rect width="135" height="20.8301" fill="white" transform="translate(3 60)"/>
</clipPath>
</defs>
</svg>
