<svg width="140" height="140" viewBox="0 0 140 140" fill="none" xmlns="http://www.w3.org/2000/svg">
<path d="M66.5365 55.4161L59.7407 56.8542V51.4138L66.5365 50V55.4161Z" fill="white"/>
<path fill-rule="evenodd" clip-rule="evenodd" d="M80.6738 58.4298C78.7047 58.4202 76.8067 59.1651 75.3698 60.5114L75.0139 58.8539H69.0566V89.9515L75.828 88.5378L75.8524 80.9913C76.8274 81.6835 78.2655 82.6732 80.6494 82.6732C85.4951 82.6732 89.9119 78.8317 89.9119 70.3784C89.8826 62.6418 85.4171 58.4298 80.6738 58.4298ZM79.0504 76.8085C77.4514 76.8085 76.5056 76.243 75.8573 75.5508L75.828 65.6545C76.53 64.8843 77.505 64.348 79.0504 64.348C81.5171 64.348 83.2234 67.0683 83.2234 70.5637C83.2234 74.137 81.5415 76.8037 79.0504 76.8037M111.25 70.6417C111.25 63.8167 107.891 58.4298 101.471 58.4298C95.0258 58.4298 91.1258 63.8167 91.1258 70.5929C91.1258 78.6172 95.7326 82.6732 102.338 82.6732C105.561 82.6732 107.998 81.9517 109.846 80.9377V75.6044C107.998 76.5112 105.887 77.0669 103.206 77.0669C100.578 77.0669 98.2481 76.165 97.9508 73.0207H111.196L111.216 72.1529C111.23 71.6264 111.25 71.0122 111.25 70.6417ZM97.8728 68.1067C97.8728 65.0988 99.7399 63.8459 101.446 63.8459C103.099 63.8459 104.859 65.0988 104.859 68.1115L97.8728 68.1067Z" fill="white"/>
<path d="M66.5365 58.8804H59.7407V82.217H66.5365V58.8804ZM52.0188 58.8804L52.4478 60.8548C54.0467 57.9785 57.2155 58.5635 58.0832 58.8804V65.0131C57.2448 64.7206 54.5342 64.3453 52.9401 66.4025V82.217H46.1639V58.8804H52.0188ZM38.9148 53.0938L32.3043 54.4831L32.2799 75.8405C32.2799 79.7893 35.2829 82.6948 39.295 82.6948C41.5131 82.6948 43.1365 82.295 44.0335 81.8173V76.406C43.1657 76.7473 38.8855 77.9758 38.8855 74.027V64.5646H44.0335V58.8804H38.8855L38.9148 53.0938ZM22.9053 64.2136C21.4671 64.2136 20.6042 64.6134 20.6042 65.6566C20.6042 66.7876 22.096 67.2898 23.9436 67.9089C26.9613 68.918 30.9295 70.2489 30.949 75.1726C30.949 79.9501 27.0734 82.6948 21.4428 82.6948C19.1125 82.6948 16.5678 82.2414 14.0474 81.1738V74.8265C16.324 76.055 19.1954 76.9618 21.4428 76.9618C22.9589 76.9618 24.0411 76.562 24.0411 75.3335C24.0411 74.0758 22.4275 73.5005 20.4726 72.8083C17.5037 71.7504 13.75 70.4146 13.75 65.9735C13.75 61.2545 17.4062 58.427 22.9053 58.427C25.1526 58.427 27.3756 58.7731 29.623 59.6555V65.9199C27.5437 64.845 25.2455 64.2613 22.9053 64.2136Z" fill="white"/>
</svg>
