<svg width="140" height="140" viewBox="0 0 140 140" fill="none" xmlns="http://www.w3.org/2000/svg">
<g clip-path="url(#clip0_2460_2641)">
<path d="M105.777 82.768L104.99 78.8305H96.1905L94.7905 82.74L87.738 82.754C92.2717 71.8597 95.6363 63.7898 97.832 58.5445C98.406 57.1725 99.4245 56.4725 100.926 56.483C102.074 56.4923 103.948 56.4935 106.547 56.4865L112 82.7575L105.777 82.768ZM98.168 73.437H103.841L101.724 63.567L98.168 73.437ZM52.717 56.4795L59.808 56.4865L48.846 82.7715L41.6675 82.7645C39.8624 75.8216 38.0797 68.8729 36.3195 61.9185C35.9695 60.5325 35.2765 59.563 33.943 59.1045C32.7507 58.6962 30.7697 58.065 28 57.211V56.4865H39.3295C41.2895 56.4865 42.434 57.435 42.8015 59.381C43.1725 61.3317 44.1058 66.2947 45.6015 74.27L52.717 56.4795ZM69.552 56.4865L63.9485 82.768L57.197 82.7575L62.79 56.4795L69.552 56.4865ZM83.237 56C85.2565 56 87.801 56.63 89.264 57.211L88.081 62.657C86.758 62.125 84.581 61.4075 82.7505 61.432C80.0905 61.4775 78.4455 62.594 78.4455 63.665C78.4455 65.408 81.3015 66.2865 84.2415 68.1905C87.5945 70.3605 88.039 72.31 87.997 74.431C87.9515 78.8235 84.2415 83.16 76.4155 83.16C72.8455 83.1075 71.5575 82.81 68.6455 81.774L69.8775 76.09C72.842 77.329 74.0985 77.7245 76.6325 77.7245C78.953 77.7245 80.9445 76.7865 80.962 75.152C80.976 73.99 80.262 73.4125 77.658 71.9775C75.054 70.5425 71.4 68.551 71.449 64.5505C71.5085 59.4335 76.356 56 83.237 56Z" fill="white"/>
</g>
<defs>
<clipPath id="clip0_2460_2641">
<rect width="84" height="84" fill="white" transform="translate(28 27)"/>
</clipPath>
</defs>
</svg>
